SplineFontDB: 3.0
FontName: Erbarre
FullName: Erbarre Bold
FamilyName: Erbarre
Weight: Bold
Copyright: Copyright (c) 2015-2016 Open Source Publishing Released under the OFL 1.1 - Partly generated with GlyphTracer 1.4
Version: 001.000
ItalicAngle: 0
UnderlinePosition: -60
UnderlineWidth: 12
Ascent: 800
Descent: 200
sfntRevision: 0x00010000
LayerCount: 2
Layer: 0 0 "Back"  1
Layer: 1 0 "Fore"  0
XUID: [1021 77 754732692 7080580]
FSType: 0
OS2Version: 3
OS2_WeightWidthSlopeOnly: 0
OS2_UseTypoMetrics: 1
CreationTime: 1445899281
ModificationTime: 1454757229
PfmFamily: 17
TTFWeight: 500
TTFWidth: 5
LineGap: 90
VLineGap: 0
Panose: 2 0 6 3 0 0 0 0 0 0
OS2TypoAscent: 800
OS2TypoAOffset: 0
OS2TypoDescent: -200
OS2TypoDOffset: 0
OS2TypoLinegap: 90
OS2WinAscent: 929
OS2WinAOffset: 0
OS2WinDescent: 228
OS2WinDOffset: 0
HheadAscent: 929
HheadAOffset: 0
HheadDescent: -229
HheadDOffset: 0
OS2SubXSize: 650
OS2SubYSize: 700
OS2SubXOff: 0
OS2SubYOff: 140
OS2SupXSize: 650
OS2SupYSize: 700
OS2SupXOff: 0
OS2SupYOff: 480
OS2StrikeYSize: 50
OS2StrikeYPos: 259
OS2Vendor: 'PfEd'
OS2CodePages: 00000001.00000000
OS2UnicodeRanges: 80000007.00000010.00000000.00000000
MarkAttachClasses: 1
DEI: 91125
LangName: 1033 "" "" "" "FontForge 2.0 : Erbarre Bold : 28-10-2015" 
Encoding: UnicodeBmp
UnicodeInterp: none
NameList: Adobe Glyph List
DisplaySize: -24
AntiAlias: 1
FitToEm: 1
WinInfo: 0 34 22
BeginPrivate: 6
BlueValues 23 [-12 1 484 498 701 710]
OtherBlues 11 [-208 -200]
BlueScale 8 0.039625
BlueShift 1 5
ForceBold 4 true
ExpansionFactor 4 0.06
EndPrivate
BeginChars: 65540 206

StartChar: .notdef
Encoding: 65536 -1 0
Width: 766
Flags: HW
LayerCount: 2
Fore
SplineSet
0 0 m 1
 0 667 l 1
 266 667 l 1
 266 0 l 1
 0 0 l 1
33 33 m 1
 232 33 l 1
 232 633 l 1
 33 633 l 1
 33 33 l 1
EndSplineSet
Validated: 1
EndChar

StartChar: exclam
Encoding: 33 33 2
Width: 220
Flags: HW
LayerCount: 2
Fore
SplineSet
43 683 m 0
 43 690 44 694 44 696 c 0
 44 698 45 699 46 700 c 0
 47 700 48 700 50 700 c 0
 52 700 54 700 57 700 c 0
 119 700 l 0
 154 700 173 699 176 698 c 0
 177 698 177 694 177 688 c 0
 177 685 177 681 177 676 c 0
 175 642 174 624 173 621 c 0
 172 618 172 607 171 588 c 0
 170 564 169 546 168 533 c 0
 167 521 167 505 166 485 c 0
 165 468 165 458 164 455 c 0
 163 442 163 435 163 432 c 0
 163 427 162 415 161 398 c 0
 160 382 160 374 160 373 c 0
 161 370 160 364 159 353 c 0
 158 342 157 332 157 322 c 0
 158 313 158 306 157 303 c 0
 156 301 155 292 154 276 c 0
 152 229 151 204 150 202 c 0
 150 201 143 201 132 201 c 0
 126 201 119 201 111 201 c 0
 85 202 72 202 71 203 c 0
 70 204 69 206 70 211 c 0
 70 214 69 227 68 252 c 0
 66 286 65 305 65 310 c 0
 64 343 62 378 60 414 c 0
 56 468 l 0
 55 484 55 495 54 501 c 0
 53 504 52 510 53 520 c 0
 53 531 52 539 51 546 c 0
 50 560 50 572 50 583 c 0
 49 600 49 608 49 609 c 0
 49 610 48 615 47 625 c 0
 47 634 46 643 45 653 c 0
 44 664 43 674 43 683 c 0
53 9 m 0
 53 155 l 0
 54 156 55 156 56 157 c 0
 57 157 58 157 59 157 c 0
 60 157 62 157 64 157 c 0
 68 156 86 156 118 156 c 0
 150 156 167 155 168 154 c 0
 169 153 170 128 170 79 c 0
 170 30 169 5 168 4 c 0
 167 3 148 3 111 3 c 0
 73 3 54 5 53 9 c 0
EndSplineSet
Validated: 1
EndChar

StartChar: quotedbl
Encoding: 34 34 3
Width: 212
Flags: HW
LayerCount: 2
Fore
SplineSet
37 483 m 4
 37 485 38 488 38 491 c 4
 39 500 40 520 41 551 c 4
 41 560 41 578 42 603 c 4
 43 628 44 645 44 654 c 4
 45 700 47 724 49 725 c 4
 50 726 71 726 112 726 c 4
 112 726 149.791 730.241 173 725 c 28
 177.96 723.88 174 712 174 712 c 4
 174 705 173.546 700.289 172 693 c 28
 170.797 687.328 168 683 167 679 c 4
 164 669 l 4
 162 664 161 660 160 657 c 4
 156 643 l 4
 155 639 154 635 153 630 c 4
 152 627 151 623 149 618 c 4
 148 613 147 610 147 609 c 4
 147 606 147 604 146 604 c 4
 145 603 145 601 144 599 c 4
 141 590 140 585 140 584 c 4
 138 577 137 572 136 567 c 4
 136 566 136 565 135 563 c 4
 134 561 133 559 132 556 c 4
 131 553 130 551 130 550 c 4
 127 539 122 518 114 488 c 4
 112 483 109 480 106 479 c 4
 103 478 93 478 74 478 c 4
 53 478 41 478 38 479 c 4
 38 480 37 481 37 483 c 4
EndSplineSet
Validated: 524321
EndChar

StartChar: numbersign
Encoding: 35 35 4
Width: 435
Flags: HW
LayerCount: 2
Fore
SplineSet
5 179 m 4
 5 182 6 185 7 186 c 4
 8 189 9 194 10 199 c 4
 15 228 18 243 19 245 c 4
 20 246 28 247 45 247 c 4
 45 247 65.1299 247 78 247 c 28
 81.9004 247 84.5763 245.133 88 247 c 28
 90.083 248.136 89 253 89 253 c 4
 90 268 93 282 96 295 c 4
 96 298 97 303 99 310 c 4
 100 316 101 323 103 332 c 4
 105 343 106 349 106 352 c 4
 106 357 106 360 104 360 c 4
 102 360 97 360 88 360 c 4
 71 359 59 359 51 359 c 4
 47 359 44 359 43 359 c 4
 41 360 40 361 40 363 c 4
 40 368 42 380 46 399 c 4
 47 406 48 413 49 418 c 4
 50 425 51 429 52 431 c 4
 53 432 58 432 68 432 c 4
 73 432 79 432 86 432 c 4
 108 432 119 432 120 433 c 4
 121 435 121 438 121 441 c 4
 121 442 122 443 122 445 c 4
 122 447 122 449 122 450 c 4
 122 451 123 452 123 453 c 4
 126 468 128 481 129 494 c 4
 129 495 129 499 130 503 c 4
 131 507 132 510 132 511 c 4
 132 514 133 519 134 526 c 4
 135 533 136 541 138 549 c 4
 140 557 141 562 141 565 c 4
 142 569 143 576 145 585 c 4
 146 594 148 599 150 601 c 4
 152 602 166 603 192 604 c 4
 202 604 l 4
 221 604 232 603 235 601 c 4
 236 600 236 594 234 585 c 4
 234 583 234 581 233 580 c 4
 231 568 229 555 226 541 c 4
 226 540 226 537 225 533 c 4
 224 529 223 526 223 525 c 4
 223 524 223 522 222 519 c 4
 221 515 l 4
 220 512 218 502 215 486 c 4
 214 482 214 477 213 472 c 4
 212 467 211 463 211 460 c 4
 211 457 210 455 210 454 c 4
 207 440 206 433 207 432 c 4
 208 431 220 430 242 430 c 4
 264 430 276 431 277 432 c 4
 278 434 279 440 281 450 c 4
 281 451 282 456 283 465 c 4
 284 474 285 479 286 482 c 4
 286 484 287 487 287 490 c 4
 287 493 287 495 288 497 c 4
 288 500 l 4
 291 523 294 535 295 538 c 4
 296 541 296 545 297 549 c 4
 301 578 304 595 306 600 c 4
 306 600 306.6 602.87 308 603 c 28
 323.926 604.481 333.007 603.807 349 604 c 28
 365.379 604.197 374.687 605.483 391 604 c 28
 392.737 603.842 393 600 393 600 c 4
 395 598 396 597 395 596 c 4
 395 595 394 591 393 583 c 4
 392 574 390 568 389 565 c 4
 389 564 389 562 388 558 c 4
 387 554 387 551 386 550 c 4
 383 533 381 523 380 518 c 4
 380 515 379 509 378 502 c 4
 377 497 375 484 370 463 c 4
 369 459 369 453 367 446 c 4
 365 439 364 434 365 433 c 4
 366 432 377 432 398 432 c 4
 398 432 417.892 435.027 430 432 c 28
 433.027 431.243 430 424 430 424 c 4
 430 419 429 414 428 408 c 4
 428 407 428 404 427 400 c 4
 426 396 425 392 425 391 c 4
 422 372 420 362 418 360 c 4
 417 359 409 358 395 358 c 4
 382 358 374 358 370 359 c 4
 367 360 363 360 359 359 c 4
 353 358 350 355 350 348 c 4
 350 339 347 325 342 304 c 4
 341 295 340 289 340 288 c 4
 339 281 338 278 337 277 c 4
 336 276 335 267 332 252 c 4
 332 252 329.688 246.361 332 246 c 28
 344.336 244.072 364 247 364 247 c 4
 371 247 377 247 382 247 c 4
 392 247 397 247 398 246 c 4
 399 245 400 244 400 243 c 4
 396 225 l 4
 393 210 391 197 390 188 c 4
 389 183 389 180 388 177 c 4
 388 177 388.086 172.245 386 172 c 28
 373.6 170.541 354 173 354 173 c 4
 347 173 341 173 336 173 c 4
 326 173 321 173 320 172 c 4
 319 171 318 168 317 161 c 4
 316 150 315 145 314 144 c 4
 314 143 314 142 314 139 c 4
 314 136 313 133 312 130 c 4
 311 127 311 124 311 122 c 4
 308 106 306 93 304 82 c 4
 302 71 301 63 300 58 c 4
 300 55 299 52 298 46 c 4
 297 40 296 36 296 35 c 4
 296 34 296 31 295 26 c 4
 294 21 294 18 294 17 c 4
 293 10 291 5 290 4 c 4
 289 3 284 2 277 2 c 4
 235 2 l 4
 220 2 211 2 208 3 c 4
 205 4 203 5 202 6 c 4
 201 7 202 11 203 18 c 4
 206 29 208 38 209 45 c 4
 210 53 213 71 218 98 c 4
 223 122 227 142 230 158 c 4
 231 167 232 172 232 173 c 4
 232 174 221 174 197 174 c 4
 173 174 161 174 160 173 c 4
 159 171 l 4
 159 170 159 168 159 166 c 4
 159 164 158 162 158 160 c 4
 157 152 156 145 154 140 c 4
 154 136 153 129 151 120 c 4
 150 111 149 105 149 104 c 4
 148 103 147 96 145 83 c 4
 138 33 133 7 131 5 c 4
 130 4 116 3 88 3 c 4
 60 3 46 4 45 5 c 4
 43 8 l 4
 43 10 44 18 47 32 c 4
 52 51 56 73 60 97 c 4
 60 102 61 107 63 114 c 4
 64 121 65 126 66 130 c 4
 66 134 67 140 70 149 c 4
 73 163 74 171 72 172 c 4
 70 173 61 174 44 173 c 4
 36 173 29 173 24 173 c 4
 13 173 7 173 6 174 c 4
 5 174 5 176 5 179 c 4
174 246 m 28
 187.307 242.958 209 246 209 246 c 4
 232 246 244 246 246 247 c 4
 247 248 248 251 248 258 c 4
 248 265 249 268 250 269 c 4
 251 270 251 273 252 277 c 4
 253 292 254 301 256 304 c 4
 256 305 257 312 260 328 c 4
 263 344 264 353 264 355 c 4
 264 358 263 359 261 360 c 4
 258 361 255 361 253 361 c 4
 251 361 240 361 221 360 c 4
 204 359 194 359 193 358 c 4
 192 357 191 353 190 346 c 4
 188 332 186 323 185 318 c 4
 185 315 185 312 184 308 c 4
 183 304 183 302 182 299 c 4
 181 296 181 294 181 293 c 4
 181 290 180 284 177 274 c 4
 176 270 175 263 174 254 c 4
 174 254 170.958 246.695 174 246 c 28
EndSplineSet
Validated: 524321
EndChar

StartChar: dollar
Encoding: 36 36 5
Width: 438
Flags: HW
LayerCount: 2
Fore
SplineSet
49 71 m 0
 49 72 49 74 50 75 c 0
 51 78 64 91 87 113 c 0
 110 136 122 147 124 147 c 0
 127 147 132 143 139 136 c 0
 150 125 159 118 164 115 c 0
 167 114 169 112 172 110 c 0
 176 107 181 105 186 104 c 0
 187 104 189 104 190 103 c 0
 190 103 193.033 101.738 195 101 c 24
 196.154 100.567 198 100 198 100 c 0
 201 99 205 99 209 99 c 0
 218 99 228 101 239 107 c 0
 252 114 261 126 265 145 c 0
 266 151 265 158 263 166 c 0
 262 171 259 179 254 190 c 0
 249 201 245 209 242 213 c 0
 241 214 238 219 233 226 c 0
 230 231 226 237 220 246 c 0
 214 255 209 260 208 261 c 0
 206 263 203 266 200 271 c 0
 195 278 192 282 191 284 c 0
 190 285 189 286 186 290 c 0
 183 294 180 297 179 299 c 0
 176 303 172 308 166 315 c 0
 162 320 157 326 151 333 c 0
 149 336 147 339 144 342 c 0
 141 345 140 347 139 348 c 0
 131 357 127 363 127 364 c 0
 127 365 125 368 122 373 c 0
 121 374 119 377 114 384 c 0
 91 422 76 454 69 481 c 0
 66 493 l 0
 65 497 65 507 65 524 c 0
 65 541 66 552 67 557 c 0
 71 577 76 593 82 605 c 0
 93 626 108 642 128 655 c 0
 137 660 150 666 165 671 c 0
 165 671 176.397 669.943 178 675 c 24
 182.361 688.755 178 712 178 712 c 0
 178 719 178 726 178 731 c 0
 178 744 179 751 180 752 c 0
 182 754 193 755 214 755 c 0
 235 755 247 755 249 754 c 0
 251 753 253 751 254 748 c 0
 255 745 255 743 254 741 c 0
 253 740 253 730 253 709 c 0
 253 692 253 682 254 679 c 0
 255 676 258 675 265 674 c 0
 280 672 293 668 305 662 c 0
 327 651 350 637 373 618 c 0
 376 616 379 614 381 610 c 0
 383 606 384 603 384 600 c 0
 384 598 379 592 370 583 c 0
 359 572 353 566 352 564 c 0
 351 562 346 557 338 549 c 0
 331 542 326 537 322 532 c 0
 321 531 320 530 319 528 c 0
 318 526 316 525 315 524 c 0
 314 522 l 0
 311 520 306 523 297 531 c 0
 293 535 288 540 281 546 c 0
 278 549 272 552 262 557 c 0
 252 562 246 564 244 564 c 0
 242 564 239 564 236 565 c 0
 231 566 226 566 219 565 c 0
 212 564 205 562 200 558 c 0
 190 549 184 539 182 526 c 0
 181 521 181 513 183 504 c 0
 185 495 188 488 191 483 c 0
 201 465 210 452 218 444 c 0
 231 430 246 412 263 389 c 0
 270 378 277 370 282 363 c 0
 283 361 285 359 287 357 c 0
 289 355 291 352 292 351 c 0
 294 349 l 0
 296 347 299 343 304 337 c 0
 309 331 314 325 317 320 c 0
 321 315 324 312 325 311 c 0
 332 304 340 293 349 276 c 0
 353 270 l 0
 356 265 358 262 359 259 c 0
 368 243 377 219 385 186 c 0
 386 181 387 171 387 156 c 0
 387 152 387 148 387 144 c 0
 387 122 385 109 384 106 c 0
 382 101 380 97 379 92 c 0
 377 85 375 81 374 80 c 0
 373 77 372 75 372 74 c 0
 372 72 366 62 353 44 c 0
 348 38 342 31 333 24 c 0
 324 17 316 11 307 6 c 0
 296 -1 287 -5 282 -6 c 0
 279 -7 276 -8 274 -9 c 0
 273 -9 270 -10 263 -13 c 0
 263 -13 254.036 -12.0625 253 -16 c 24
 249.526 -29.2002 253 -37.3496 253 -51 c 24
 253 -74.4004 253 -111 253 -111 c 0
 253 -119 252 -123 251 -125 c 0
 250 -126 248 -127 244 -127 c 0
 242 -127 240 -127 238 -127 c 0
 231 -126 220 -126 206 -126 c 0
 191 -126 183 -125 181 -123 c 0
 179 -121 177 -115 178 -103 c 0
 179 -80 179 -62 179 -48 c 0
 179 -27 178 -16 177 -15 c 0
 176 -14 174 -12 169 -11 c 0
 159 -10 147 -6 132 1 c 0
 117 8 113.248 12.8553 101 20 c 24
 99.1855 21.0586 97 22 96 22 c 0
 94 23 89 26 82 32 c 0
 75 38 69 44 66 48 c 0
 55 60 l 0
 51 64 49 67 49 71 c 0
EndSplineSet
Validated: 524321
EndChar

StartChar: percent
Encoding: 37 37 6
Width: 731
Flags: HW
LayerCount: 2
Fore
SplineSet
33 522 m 0
 33 526 33 530 33 534 c 0
 33 558 34 578 36 593 c 0
 40 622 46 646 54 664 c 0
 62 682 74 697 89 712 c 0
 98 721 105 727 111 730 c 0
 117 733 127 737 142 741 c 0
 149 743 158 744 167 744 c 0
 173 744 180 743 187 742 c 0
 204 740 219 736 231 729 c 0
 237 726 245 719 254 709 c 0
 264 700 270 693 272 688 c 0
 277 679 280 674 282 671 c 0
 285 667 287 662 289 656 c 0
 296 633 302 609 305 586 c 0
 307 574 307 560 307 542 c 0
 307 536 307 530 307 524 c 0
 306 497 306 482 305 478 c 0
 304 475 303 470 302 462 c 0
 301 457 300 451 298 445 c 0
 297 441 296 437 294 433 c 0
 289 414 284 400 279 393 c 0
 276 388 274 384 273 381 c 0
 272 376 267 369 258 360 c 0
 249 351 241 344 232 339 c 0
 216 329 196 324 173 324 c 0
 172 324 170 324 169 324 c 0
 141 325 117 332 98 347 c 0
 93 352 87 358 80 365 c 0
 73 372 69 377 66 382 c 0
 65 383 64 386 62 389 c 0
 60 394 l 0
 58 398 54 406 50 418 c 0
 46 430 43 439 42 444 c 0
 40 455 39 460 38 461 c 0
 35 472 33 492 33 522 c 0
126 539 m 0
 126 517 128 492 132 464 c 0
 132 463 132 461 132 459 c 0
 132 457 133 455 133 454 c 0
 133 453 134 452 134 451 c 0
 135 447 136 440 139 431 c 0
 142 422 144 416 146 413 c 0
 151 405 158 400 168 398 c 0
 178 397 186 400 192 408 c 0
 198 415 203 428 207 445 c 0
 210 460 212 481 213 511 c 0
 213 521 214 530 214 539 c 0
 214 556 213 572 212 584 c 0
 209 609 207 623 205 627 c 0
 204 631 l 0
 203 634 203 636 203 637 c 0
 199 651 193 660 185 665 c 0
 180 668 175 669 169 669 c 0
 163 669 158 667 154 664 c 0
 152 663 149 659 146 653 c 0
 143 647 141 643 140 640 c 0
 134 621 131 606 130 597 c 0
 130 595 129 588 128 576 c 0
 126 565 126 552 126 539 c 0
165 7 m 0
 165 11 167 14 169 16 c 0
 172 21 175 26 177 31 c 0
 180 36 182 42 185 49 c 0
 200 82 208 100 211 104 c 0
 220 122 l 0
 225 134 231 146 236 157 c 0
 242 171 245 178 246 178 c 0
 246 179 248 182 251 188 c 0
 264 210 270 224 271 230 c 0
 272 235 274 241 279 248 c 0
 284 255 287 262 289 267 c 0
 290 271 295 282 304 300 c 0
 305 303 307 308 310 314 c 0
 313 320 316 325 318 329 c 0
 320 333 322 337 323 339 c 0
 324 342 326 344 328 348 c 0
 330 352 331 354 331 355 c 0
 332 356 334 361 337 368 c 0
 338 371 342 379 349 392 c 0
 353 400 357 409 362 420 c 0
 363 423 367 431 372 444 c 0
 376 453 378 457 379 458 c 0
 381 462 l 0
 382 465 383 469 385 473 c 0
 387 477 389 481 391 484 c 0
 411 525 421 547 421 550 c 0
 421 551 425 561 434 579 c 0
 443 597 447 606 448 607 c 0
 448 608 449 611 452 618 c 0
 455 625 458 629 459 630 c 0
 460 631 463 637 466 646 c 0
 471 657 474 663 475 664 c 0
 477 667 478 668 477 668 c 0
 477 669 480 675 485 687 c 0
 486 690 489 696 494 705 c 0
 500 718 l 0
 507 735 512 743 515 744 c 0
 541 745 l 0
 558 745 567 744 568 742 c 0
 569 740 566 732 559 717 c 0
 550 697 544 686 543 683 c 0
 534 665 l 0
 531 660 528 652 523 641 c 0
 517 628 512 619 509 612 c 0
 504 603 501 596 500 593 c 0
 499 590 497 587 496 584 c 0
 493 579 487 566 478 547 c 0
 470 530 462 514 455 499 c 0
 448 486 442 474 438 463 c 0
 437 458 433 451 428 442 c 0
 423 433 420 426 418 421 c 0
 416 416 412 407 405 394 c 0
 398 380 394 373 394 372 c 0
 394 370 390 361 381 344 c 0
 360 302 350 280 350 278 c 0
 350 277 347 270 341 257 c 0
 334 243 331 235 330 234 c 0
 329 231 329 230 328 229 c 0
 325 226 320 214 311 194 c 0
 310 190 306 183 300 172 c 0
 296 163 292 155 289 147 c 0
 286 140 283 133 279 126 c 0
 275 119 272 111 270 104 c 0
 268 96 263 86 256 74 c 0
 249 60 245 52 246 51 c 0
 246 50 242 41 233 25 c 0
 228 13 224 5 222 3 c 0
 220 1 219 0 217 -0 c 0
 209 0 203 0 197 -0 c 0
 180 0 169 1 167 2 c 0
 166 3 165 5 165 7 c 0
428 209 m 0
 428 236 430 262 434 289 c 0
 435 292 435 295 436 299 c 0
 437 303 437 306 437 307 c 0
 438 311 438 313 439 314 c 0
 439 317 l 0
 440 318 440 320 441 322 c 0
 443 328 l 0
 448 343 455 357 466 372 c 0
 470 379 476 386 484 393 c 0
 492 400 498 405 503 408 c 0
 505 409 507 410 510 412 c 0
 513 414 515 414 516 414 c 0
 523 418 535 421 554 424 c 0
 557 425 560 425 564 425 c 0
 573 425 583 423 597 420 c 0
 608 417 621 411 635 400 c 0
 648 390 660 374 672 352 c 0
 684 330 691 309 694 288 c 0
 695 279 696 270 697 263 c 0
 698 256 698 238 698 210 c 0
 698 204 699 200 699 195 c 0
 699 176 698 165 697 160 c 0
 695 143 693 130 691 123 c 0
 689 116 686 107 682 94 c 0
 680 87 676 79 670 69 c 0
 664 59 660 52 657 48 c 0
 636 25 617 11 600 6 c 0
 599 6 596 5 592 4 c 0
 588 3 585 3 583 3 c 0
 578 2 572 1 565 1 c 0
 563 1 561 1 559 1 c 0
 549 1 542 3 537 4 c 0
 532 5 529 6 528 6 c 0
 527 6 521 8 513 12 c 0
 505 16 499 20 496 22 c 0
 485 31 474 42 464 57 c 0
 454 72 447 86 443 99 c 0
 436 126 432 145 431 156 c 0
 431 158 430 160 430 163 c 0
 430 166 429 168 429 169 c 0
 429 170 429 171 429 172 c 0
 429 173 429 186 428 209 c 0
521 214 m 0
 521 173 525 140 532 114 c 0
 533 109 535 103 539 96 c 0
 543 89 546 84 549 83 c 0
 552 81 557 80 564 80 c 0
 571 80 576 81 579 83 c 0
 584 86 588 95 593 108 c 0
 598 121 600 134 601 148 c 0
 602 160 603 169 604 174 c 0
 605 181 605 195 605 214 c 0
 605 218 606 222 606 225 c 0
 606 238 605 247 604 252 c 0
 603 259 602 266 602 273 c 0
 601 292 597 311 591 328 c 0
 590 331 587 334 583 338 c 0
 579 342 576 346 573 347 c 0
 570 348 566 349 561 349 c 0
 556 349 553 348 550 345 c 0
 531 331 521 287 521 214 c 0
EndSplineSet
Validated: 1
EndChar

StartChar: ampersand
Encoding: 38 38 7
Width: 497
Flags: HW
LayerCount: 2
Fore
SplineSet
27 173 m 4
 27 178 27 182 27 188 c 4
 28 205 29 218 32 226 c 4
 33 230 l 4
 34 233 34 235 34 236 c 4
 35 241 36 243 37 244 c 4
 38 246 39 248 40 251 c 4
 42 257 48 267 57 280 c 4
 66 293 74 303 81 310 c 4
 96 324 112 336 127 347 c 4
 139 355 146 360 149 363 c 4
 151 364 152 366 151 368 c 4
 150 370 148 374 143 380 c 4
 142 381 139 387 132 397 c 4
 129 403 125 408 122 413 c 4
 117 422 l 4
 117 423 116 425 114 428 c 4
 113 430 112 432 111 435 c 4
 107 443 l 4
 102 455 99 464 99 469 c 4
 98 472 97 475 96 480 c 4
 95 486 94 498 94 515 c 4
 94 532 95 541 96 542 c 4
 97 543 98 545 98 548 c 4
 98 552 99 556 100 559 c 4
 108 577 115 590 121 598 c 4
 124 602 129 607 135 614 c 4
 141 621 146 624 147 624 c 4
 148 624 151 625 154 628 c 4
 172 643 195 651 224 654 c 4
 234 655 241 655 246 655 c 4
 251 655 259 655 270 654 c 4
 281 653 288 652 290 651 c 4
 291 650 293 649 295 649 c 4
 295 649 295 649 296 649 c 4
 302 649 313 645 327 638 c 4
 337 633 346 625 356 616 c 4
 366 607 374 598 380 588 c 4
 386 579 392 565 397 547 c 4
 399 540 400 529 400 512 c 4
 400 509 401 505 401 502 c 4
 401 490 400 481 399 476 c 4
 394 460 391 451 390 448 c 4
 382 433 l 4
 379 426 374 418 367 409 c 4
 358 398 353 392 352 391 c 4
 345 380 329 367 306 352 c 4
 296 345 291 341 291 340 c 4
 296 330 l 4
 301 323 304 318 305 316 c 4
 318 295 l 4
 323 286 329 277 334 267 c 4
 339 259 342 254 344 252 c 4
 346 250 349 244 354 233 c 4
 366 210 373 198 375 197 c 4
 376 196 377 196 378 197 c 4
 379 198 383 202 389 210 c 4
 395 218 399 223 400 225 c 4
 404 231 406 235 407 236 c 4
 414 247 418 253 419 256 c 4
 422 262 425 265 428 265 c 4
 431 265 434 262 437 257 c 4
 450 226 460 206 467 195 c 4
 476 180 480 170 480 165 c 4
 480 160 476 153 469 144 c 4
 452 125 443 115 441 113 c 4
 436 108 434 105 434 104 c 4
 433 102 433 99 435 94 c 4
 439 87 442 82 443 80 c 4
 443 79 453 62 473 27 c 4
 478 18 481 12 482 9 c 4
 482 8 483 7 483 6 c 4
 483 4 482 2 481 1 c 4
 480 0 460 0 422 -0 c 4
 384 0 363 1 361 2 c 4
 359 3 356 7 353 16 c 4
 350 24 348 28 346 29 c 4
 344 30 341 28 336 23 c 4
 328 17 321 12 314 9 c 4
 307 6 297 2 284 -3 c 4
 272 -7 253 -9 228 -10 c 4
 225 -10 223 -10 220 -10 c 4
 206 -10 192 -9 178 -6 c 4
 177 -6 175 -6 174 -6 c 4
 173 -6 172 -5 170 -5 c 4
 168 -5 167 -4 166 -4 c 4
 162 -3 159 -3 158 -2 c 4
 157 -1 153 0 145 3 c 4
 125 10 105 23 84 43 c 4
 73 54 65 63 60 70 c 4
 55 77 48 88 41 103 c 4
 35 114 31 129 28 147 c 4
 27 154 27 163 27 173 c 4
141 183 m 4
 141 172 143 163 147 151 c 4
 151 140 156 132 162 127 c 4
 176 114 193 106 212 102 c 4
 216 101 221 101 226 101 c 4
 232 101 237 101 243 102 c 4
 255 104 265 109 274 114 c 4
 283 120 288 126 288 129 c 4
 288 130 288 130 287 131 c 4
 286 131 285 132 284 135 c 4
 284 136 282 140 278 146 c 4
 275 150 270 158 265 169 c 4
 256 186 l 4
 247 200 237 220 226 245 c 4
 225 247 223 250 221 254 c 4
 219 258 218 262 217 263 c 4
 214 269 210 272 207 272 c 4
 204 272 201 271 200 270 c 4
 199 269 196 266 191 263 c 4
 185 258 177 252 168 242 c 4
 159 232 154 225 152 220 c 4
 145 205 141 193 141 183 c 4
207 509 m 4
 207 503 208 495 211 484 c 4
 214 473 218 465 221 458 c 4
 232 439 239 429 242 429 c 4
 257 443 l 4
 266 452 273 460 276 467 c 4
 283 479 286 492 286 505 c 4
 286 531 277 546 259 551 c 4
 255 552 251 552 248 552 c 4
 241 552 235 551 229 547 c 4
 214 538 207 526 207 509 c 4
EndSplineSet
Validated: 1
EndChar

StartChar: quotesingle
Encoding: 39 39 8
Width: 203
Flags: HW
LayerCount: 2
Fore
SplineSet
38 488 m 4
 38 497 38 507 39 516 c 4
 42 543 43 597 43 679 c 4
 44 704 45 717 46 718 c 4
 48 719 68 719 105 719 c 4
 143 719 163 719 164 718 c 4
 164 718 165 708 165 700 c 4
 165 684 159 659 148 624 c 4
 144 613 141 602 139 592 c 4
 138 590 137 586 136 581 c 4
 135 576 133 569 131 562 c 4
 129 553 128 547 127 543 c 4
 126 539 125 532 122 521 c 4
 119 510 118 504 117 502 c 4
 116 498 115 495 114 492 c 4
 111 480 109 473 106 472 c 4
 104 471 96 470 83 470 c 4
 80 470 76 471 72 471 c 4
 52 471 41 472 40 473 c 4
 39 474 38 479 38 488 c 4
EndSplineSet
Validated: 1
EndChar

StartChar: parenleft
Encoding: 40 40 9
Width: 275
Flags: HW
LayerCount: 2
Fore
SplineSet
46 310 m 4
 46 315 46 319 46 324 c 4
 47 363 50 397 54 427 c 4
 58 449 61 464 63 473 c 4
 63 474 64 477 65 480 c 4
 66 483 66 486 66 487 c 4
 69 500 72 515 77 531 c 4
 78 536 79 538 79 539 c 4
 79 541 82 550 88 566 c 4
 94 582 98 596 103 607 c 4
 112 628 123 649 134 670 c 4
 139 679 143 687 146 693 c 4
 148 699 150 704 153 708 c 4
 156 711 159 714 160 718 c 4
 161 722 163 725 165 727 c 4
 166 728 168 728 169 728 c 4
 170 728 170 728 171 728 c 4
 178 725 189 720 203 712 c 4
 204 711 207 709 213 706 c 4
 219 703 224 701 227 699 c 4
 235 695 240 692 242 691 c 4
 244 690 244 689 244 686 c 4
 244 682 243 679 241 676 c 4
 239 674 238 672 238 671 c 4
 238 670 237 668 234 663 c 4
 225 648 219 636 216 628 c 4
 215 623 213 619 210 614 c 4
 205 605 196 583 184 549 c 4
 180 541 l 4
 180 540 180 539 180 538 c 4
 180 537 179 535 178 533 c 4
 177 531 177 530 177 529 c 4
 175 525 173 519 171 510 c 4
 169 500 168 494 168 493 c 4
 167 490 165 484 163 474 c 4
 158 456 155 439 153 422 c 4
 153 420 153 414 152 406 c 4
 151 398 150 392 149 389 c 4
 148 379 147 357 147 324 c 4
 147 313 146 303 146 294 c 4
 146 277 147 265 147 258 c 4
 150 230 153 206 157 186 c 4
 162 163 167 141 173 119 c 4
 174 116 175 113 176 109 c 4
 177 104 l 4
 178 103 178 101 179 98 c 4
 180 97 181 92 184 85 c 4
 187 72 191 62 194 53 c 4
 194 53 196.028 49.4288 197 47 c 28
 197.598 45.5068 198 43 198 43 c 4
 199 42 201 36 205 26 c 4
 209 19 212 13 213 9 c 4
 214 6 219 -4 227 -19 c 4
 235 -34 239 -44 241 -47 c 4
 243 -51 244 -55 244 -59 c 4
 244 -59 244.749 -63.3971 243 -65 c 28
 239.526 -68.1846 236.239 -67.941 232 -70 c 28
 222.587 -74.5723 208 -82 208 -82 c 4
 185 -94 173 -100 170 -100 c 4
 167 -99 166 -98 165 -97 c 4
 162 -92 153 -77 139 -50 c 4
 125 -23 115 -3 110 10 c 4
 102 30 l 4
 95 45 89 61 84 78 c 4
 75 107 70 123 70 125 c 4
 64 150 60 170 58 183 c 4
 58 184 58 186 57 190 c 4
 56 194 55 197 55 198 c 4
 49 226 46 264 46 310 c 4
EndSplineSet
Validated: 524289
EndChar

StartChar: parenright
Encoding: 41 41 10
Width: 274
Flags: HW
LayerCount: 2
Fore
SplineSet
31 687 m 4
 31 690 49 700 82 717 c 4
 95 724 103 728 104 729 c 4
 105 730 107 731 108 731 c 4
 110 731 111 729 113 726 c 4
 118 715 125 702 134 687 c 4
 149 664 163 634 177 598 c 4
 183 581 186 571 187 568 c 4
 190 561 192 556 192 555 c 4
 192 554 195 544 201 525 c 4
 202 521 205 510 210 492 c 4
 211 487 213 480 214 473 c 4
 215 466 216 456 218 443 c 4
 220 431 222 421 223 412 c 4
 224 403 224 398 225 395 c 4
 227 386 228 359 228 314 c 4
 228 282 227 253 224 226 c 4
 224 225 224 224 224 222 c 4
 224 220 223 219 223 218 c 4
 223 215 l 4
 223 211 221 197 216 174 c 4
 215 171 214 164 213 154 c 4
 212 139 208 123 202 106 c 4
 200 99 197 90 193 77 c 4
 192 71 188 60 181 44 c 4
 174 28 171 19 170 16 c 4
 168 11 163 -1 155 -18 c 4
 139 -52 130 -70 128 -71 c 4
 127 -73 l 4
 126 -74 124 -76 123 -78 c 4
 122 -80 121 -83 120 -85 c 4
 115 -94 112 -99 110 -100 c 4
 109 -100 l 4
 106 -100 100 -97 90 -92 c 4
 86 -90 l 4
 51 -72 33 -62 32 -61 c 4
 32 -59 38 -46 49 -23 c 4
 52 -17 55 -10 58 -4 c 4
 61 2 63 8 65 12 c 4
 67 16 68 18 69 19 c 4
 70 24 73 31 77 41 c 4
 87 66 98 100 111 143 c 4
 115 158 120 184 125 219 c 4
 128 237 130 262 131 292 c 4
 132 307 132 320 132 330 c 4
 132 340 132 348 131 353 c 4
 130 362 129 369 129 374 c 4
 129 390 127 407 123 425 c 4
 122 428 121 435 119 444 c 4
 118 455 115 468 111 481 c 4
 107 498 104 508 103 513 c 4
 102 518 100 527 95 541 c 4
 90 555 88 562 87 562 c 4
 87 563 86 566 84 572 c 4
 78 588 l 4
 71 603 67 612 66 617 c 4
 58 631 l 4
 55 637 50 645 45 656 c 4
 42 662 39 669 34 678 c 4
 32 682 31 685 31 687 c 4
EndSplineSet
Validated: 1
EndChar

StartChar: asterisk
Encoding: 42 42 11
Width: 437
Flags: HW
LayerCount: 2
Fore
SplineSet
35 563 m 4
 35 565 36 568 38 573 c 4
 41 581 45 595 52 614 c 4
 59 638 65 650 70 650 c 4
 71 650 75 648 81 645 c 4
 101 633 116 624 126 619 c 4
 133 616 137 613 140 611 c 4
 146 606 156 600 171 592 c 4
 186 584 193 580 194 580 c 4
 197 579 198 584 195 595 c 4
 192 604 190 617 187 632 c 4
 182 657 179 671 178 675 c 4
 177 678 176 683 175 690 c 4
 173 700 172 706 171 709 c 4
 170 715 170 719 170 720 c 4
 170 721 171 723 172 724 c 4
 173 725 177 726 184 726 c 4
 191 725 206 725 229 725 c 4
 252 724 264 723 266 722 c 4
 267 721 267 716 266 709 c 4
 262 692 258 672 255 649 c 4
 253 639 251 628 248 617 c 4
 244 599 242 587 242 582 c 4
 242 579 243 578 244 578 c 4
 247 578 258 584 278 597 c 4
 285 602 296 608 310 616 c 4
 342 634 359 644 361 646 c 4
 362 647 364 648 368 648 c 4
 372 648 373.7 644.449 376 641 c 28
 378.532 637.202 380 632 380 630 c 4
 381 627 382 625 383 622 c 4
 385 617 388 606 393 591 c 4
 398 576 400 568 401 565 c 4
 401 560 400 557 398 556 c 4
 395 555 390 554 384 553 c 4
 341 548 315 545 308 544 c 4
 304 543 298 543 290 542 c 4
 265 540 252 538 251 537 c 4
 250 536 257 528 269 516 c 4
 281 504 290 495 297 490 c 4
 304 485 311 479 320 470 c 4
 329 461 335 454 340 451 c 4
 354 440 361 433 361 429 c 4
 361 428 354 423 341 413 c 4
 328 403 322 398 321 397 c 4
 321 396 319 395 315 392 c 4
 312 391 306 387 299 381 c 4
 294 376 290 374 286 374 c 4
 284 374 282 375 281 376 c 4
 280 377 278 381 275 386 c 4
 272 391 271 396 270 399 c 4
 269 405 258 428 238 467 c 4
 233 477 229 485 226 492 c 4
 224 499 222 504 221 505 c 4
 220 505 218 505 217 504 c 4
 216 503 214 499 211 494 c 4
 208 489 207 486 207 485 c 4
 207 484 201 472 190 448 c 4
 179 425 173 413 173 412 c 4
 173 411 171 406 167 396 c 4
 160 382 155 375 152 375 c 4
 151 375 146 378 138 384 c 4
 103 409 l 4
 88 420 80 426 79 429 c 4
 78 432 80 436 87 443 c 4
 92 448 98 454 105 459 c 4
 122 476 l 4
 131 484 140 492 151 500 c 4
 158 507 167 514 175 523 c 4
 183 532 187 536 186 537 c 4
 183 539 177 540 166 541 c 4
 165 541 159 542 149 543 c 4
 139 544 131 545 126 546 c 4
 110 548 101 549 98 549 c 4
 81 551 63 554 42 557 c 4
 38 558 35 560 35 563 c 4
EndSplineSet
Validated: 524289
EndChar

StartChar: plus
Encoding: 43 43 12
Width: 593
Flags: HW
LayerCount: 2
Fore
SplineSet
56 245 m 0
 56 248 56 252 56 255 c 0
 56 279 58 291 59 292 c 0
 60 293 75 293 104 293 c 0
 119 293 136 293 158 293 c 0
 191 292 215 292 232 292 c 0
 249 292 257 292 258 293 c 0
 259 294 259 309 259 336 c 0
 259 343 258 352 258 363 c 0
 258 374 258 387 258 402 c 0
 258 435 l 0
 258 446 258 455 258 463 c 0
 258 483 259 493 260 494 c 0
 262 495 274 496 297 496 c 0
 320 495 332 494 334 493 c 0
 335 492 336 486 336 477 c 0
 336 474 337 468 337 461 c 0
 337 446 336 424 336 393 c 0
 336 360 335 335 335 318 c 0
 335 301 336 293 336 292 c 0
 434 292 l 0
 499 291 533 291 534 291 c 0
 534 291 536.905 291.229 537 290 c 24
 538.137 275.224 537 266.82 537 252 c 24
 537 237.57 538.079 229.39 537 215 c 24
 536.876 213.35 534 212 534 212 c 0
 531 211 530 211 529 211 c 0
 528 212 508 212 467 213 c 0
 442 213 410 213 372 214 c 0
 349 214 337 214 336 213 c 0
 335 212 335 206 335 194 c 0
 335 182 335 166 336 144 c 0
 337 129 337 104 337 71 c 0
 336 36 335 18 334 17 c 0
 333 16 321 15 299 15 c 0
 276 15 263 16 261 17 c 0
 261 17 258.043 17.5947 258 19 c 24
 256.854 56.8125 258 116 258 116 c 0
 259 148 259 173 259 189 c 0
 259 205 259 214 258 214 c 0
 257 215 206 215 105 215 c 0
 76 215 61 216 59 217 c 0
 57 218 56 227 56 245 c 0
EndSplineSet
Validated: 524321
EndChar

StartChar: comma
Encoding: 44 44 13
Width: 226
Flags: HW
LayerCount: 2
Fore
SplineSet
44 -58 m 0
 45 -44 46 -33 47 -27 c 0
 48 -18 49 0 49 26 c 0
 49 57 49 75 50 81 c 0
 51 85 51 100 51 125 c 0
 51 148 52 160 53 161 c 0
 54 162 75 163 116 163 c 0
 124 163 132 164 139 164 c 0
 165 164 179 163 180 162 c 0
 182 161 183 157 183 153 c 0
 183 147 181 138 178 127 c 0
 178 127 176.063 121.544 175 118 c 24
 173.723 113.741 172 107 172 107 c 0
 171 104 170 102 170 101 c 0
 164 78 159 60 155 46 c 0
 155 46 152.734 36.1934 151 30 c 24
 150.002 26.4375 148 21 148 21 c 0
 148 20 147 14 144 4 c 0
 142 -4 140 -9 139 -12 c 0
 139 -13 139 -16 138 -18 c 0
 137 -20 136 -21 136 -22 c 0
 135 -27 134 -32 132 -39 c 0
 130 -47 128 -53 127 -56 c 0
 123 -74 120 -84 118 -86 c 0
 117 -87 105 -88 84 -88 c 0
 63 -88 51 -88 48 -87 c 0
 47 -86 45 -85 44 -83 c 0
 44 -82 44 -79 44 -75 c 0
 44 -71 44 -65 44 -58 c 0
EndSplineSet
Validated: 524289
EndChar

StartChar: hyphen
Encoding: 45 45 14
Width: 335
Flags: HW
LayerCount: 2
Fore
SplineSet
44 207 m 4
 44 210 46 216 48 225 c 4
 50 229 51 233 51 238 c 4
 60 284 66 307 67 308 c 4
 68 309 106 309 179 309 c 4
 179 309 247.363 310.948 291 309 c 28
 292.948 308.913 291 304 291 304 c 4
 290 300 289 295 287 288 c 4
 285 280 284 275 284 273 c 4
 284 270 284 268 283 267 c 4
 282 266 282 264 281 260 c 4
 280 259 279 252 277 238 c 4
 276 235 275 230 274 224 c 4
 273 218 273 214 273 213 c 4
 272 208 270 205 269 204 c 4
 268 202 240 201 186 201 c 4
 177 201 167 202 157 202 c 4
 84 202 46 203 45 204 c 4
 45 204 44 206 44 207 c 4
EndSplineSet
Validated: 524321
EndChar

StartChar: period
Encoding: 46 46 15
Width: 221
Flags: HW
LayerCount: 2
Fore
SplineSet
51 74 m 4
 51 121 51 146 52 149 c 4
 52 150 55 151 60 151 c 6
 111 151 l 5
 169 151 l 5
 169 76 l 5
 170 1 l 5
 166 0 l 5
 159 0 l 5
 147 0 l 6
 85 0 53 1 52 2 c 4
 51 3 51 27 51 74 c 4
EndSplineSet
Validated: 1
EndChar

StartChar: slash
Encoding: 47 47 16
Width: 254
Flags: HW
LayerCount: 2
Fore
SplineSet
-6 6 m 0
 -6 8 -4 12 -2 20 c 1
 1 27 5 37 8 50 c 1
 18 79 l 2
 19 81 21 86 23 94 c 0
 25 102 27 108 28 112 c 0
 37 142 45 165 51 180 c 0
 60 207 65 224 67 233 c 0
 69 243 72 253 77 263 c 0
 80 270 81 276 82 280 c 0
 85 295 88 307 92 317 c 0
 96 327 101 341 106 360 c 1
 115 386 l 1
 118 398 121 405 122 408 c 0
 123 413 126 423 131 440 c 2
 143 476 l 2
 144 481 147 489 150 500 c 0
 151 503 152 508 155 517 c 2
 161 534 l 2
 163 542 167 555 172 572 c 1
 177 585 180 594 181 601 c 1
 184 610 185 614 185 615 c 0
 186 616 188 621 191 632 c 2
 196 648 l 2
 200 659 203 667 204 672 c 0
 209 687 212 698 214 705 c 0
 215 710 217 712 218 714 c 0
 219 716 222 717 226 717 c 0
 231 717 238 718 246 718 c 0
 250 718 254 717 259 717 c 0
 273 717 279 717 280 716 c 0
 282 715 282 713 282 711 c 0
 282 708 281 704 279 699 c 0
 276 689 274 683 273 682 c 0
 272 677 271 674 270 671 c 2
 266 658 l 2
 261 641 258 631 255 626 c 0
 254 623 253 622 253 621 c 0
 253 619 252 615 250 610 c 0
 248 604 246 599 245 594 c 0
 242 584 238 571 232 556 c 1
 225 533 218 510 211 486 c 0
 208 473 205 462 202 455 c 2
 197 440 l 2
 197 437 196 435 194 432 c 0
 192 427 191 424 191 423 c 0
 191 420 189 414 186 404 c 0
 182 391 180 383 179 380 c 0
 179 379 179 378 178 376 c 2
 175 371 l 1
 175 370 l 1
 171 356 l 2
 170 353 167 343 162 326 c 0
 161 323 160 317 157 310 c 0
 154 303 153 298 153 296 c 0
 153 294 151 291 149 285 c 0
 147 279 146 276 145 273 c 0
 141 263 139 256 139 253 c 2
 135 239 l 2
 133 232 132 228 131 226 c 0
 130 221 129 219 128 218 c 0
 127 217 125 210 121 197 c 2
 115 179 l 2
 112 171 111 167 111 166 c 2
 105 148 l 2
 99 129 95 118 94 115 c 0
 93 112 90 104 87 92 c 0
 84 80 82 73 82 72 c 0
 82 69 79 58 72 39 c 0
 69 31 67 24 65 17 c 0
 63 8 61 3 59 1 c 0
 58 0 52 0 43 -0 c 0
 38 0 33 0 27 -0 c 0
 7 0 -3 1 -4 3 c 0
 -5 4 -6 5 -6 6 c 0
EndSplineSet
Validated: 1
EndChar

StartChar: zero
Encoding: 48 48 17
Width: 433
Flags: HW
LayerCount: 2
Fore
SplineSet
38 330 m 0
 38 336 38 343 38 350 c 0
 38 391 39 423 41 446 c 0
 43 469 48 497 55 528 c 0
 55 529 55 532 56 536 c 0
 57 540 58 543 58 544 c 0
 61 558 65 571 70 584 c 0
 75 597 77 605 78 608 c 0
 79 611 81 617 84 624 c 0
 85 625 85 627 87 630 c 0
 89 633 90 635 91 636 c 0
 94 643 100 652 109 662 c 0
 118 673 127 681 137 687 c 0
 156 700 176 707 196 710 c 0
 200 710 206 711 213 711 c 0
 217 711 220 711 224 711 c 0
 237 711 245 709 247 708 c 0
 250 707 252 707 253 707 c 0
 256 707 258 707 259 706 c 0
 260 705 263 704 267 703 c 0
 271 702 281 697 295 689 c 0
 298 688 304 682 314 671 c 0
 324 660 331 653 334 648 c 0
 337 643 341 635 347 625 c 0
 353 615 357 607 358 602 c 0
 359 599 360 595 363 590 c 1
 365 584 367 579 368 574 c 0
 368 573 368 571 369 569 c 0
 370 567 370 565 371 564 c 2
 372 562 l 1
 376 551 379 539 380 528 c 0
 381 521 383 516 384 513 c 0
 387 497 390 475 394 448 c 1
 395 434 396 401 396 348 c 0
 396 295 395 264 394 255 c 0
 394 252 393 247 392 239 c 0
 391 231 391 225 390 222 c 0
 388 207 387 199 386 197 c 0
 385 192 385 189 385 188 c 0
 385 184 384 182 383 181 c 0
 382 180 382 179 382 176 c 0
 382 173 382 169 381 166 c 0
 380 162 379 159 378 156 c 0
 376 149 374 144 373 140 c 0
 371 131 369 123 366 116 c 0
 363 107 361 101 360 98 c 0
 349 75 342 59 337 51 c 0
 335 49 334 46 333 43 c 0
 332 40 326 33 316 24 c 0
 306 15 298 8 292 4 c 0
 279 -5 270 -9 264 -9 c 0
 263 -9 262 -9 261 -10 c 0
 260 -11 258 -11 254 -12 c 0
 250 -12 247 -12 245 -13 c 0
 244 -14 235 -14 218 -14 c 0
 215 -14 212 -15 209 -15 c 0
 198 -15 191 -14 188 -13 c 0
 163 -6 145 2 136 10 c 0
 133 13 129 15 125 17 c 0
 120 20 112 31 99 48 c 0
 96 51 93 58 88 68 c 1
 85 77 82 82 81 83 c 0
 80 84 78 88 77 93 c 0
 70 116 65 133 61 144 c 0
 60 149 59 151 59 152 c 0
 59 153 58 157 57 162 c 0
 56 164 55 170 52 181 c 0
 50 190 49 195 49 196 c 0
 48 199 47 203 47 208 c 0
 46 216 45 225 43 235 c 0
 40 260 38 291 38 330 c 0
159 347 m 0
 159 303 160 272 161 256 c 0
 162 241 163 224 165 206 c 0
 167 188 169 177 171 173 c 1
 172 167 l 2
 172 164 174 158 178 148 c 0
 182 138 185 131 187 128 c 0
 196 114 207 108 220 108 c 0
 222 108 223 108 225 108 c 0
 230 108 235 111 240 117 c 1
 244 120 247 126 251 132 c 0
 255 138 257 142 257 145 c 1
 258 147 l 2
 258 148 258 149 258 150 c 0
 258 151 259 153 259 154 c 0
 260 155 261 158 262 161 c 2
 263 166 l 2
 264 171 265 175 266 180 c 0
 267 186 268 198 270 217 c 0
 272 236 273 248 273 254 c 0
 272 261 273 269 274 278 c 0
 275 287 276 311 276 351 c 0
 276 391 275 415 274 423 c 0
 273 432 272 441 272 450 c 0
 272 461 271 470 270 476 c 0
 269 487 268 496 268 503 c 0
 266 522 261 539 254 554 c 0
 247 569 240 578 231 582 c 0
 227 584 222 585 218 585 c 0
 213 585 208 584 203 581 c 0
 190 574 180 559 175 536 c 0
 174 528 172 523 171 522 c 0
 170 518 169 512 168 505 c 0
 167 494 166 485 165 479 c 0
 164 470 163 462 163 454 c 0
 162 441 161 431 160 424 c 0
 160 419 159 406 159 385 c 0
 159 374 159 362 159 347 c 0
EndSplineSet
Validated: 1
EndChar

StartChar: one
Encoding: 49 49 18
Width: 441
Flags: HW
LayerCount: 2
Fore
SplineSet
104 504 m 2
 104 531 l 2
 104 541 104 548 104 553 c 0
 104 558 105 561 105 562 c 0
 105 563 107 564 110 567 c 2
 116 571 l 1
 118 572 l 2
 119 573 120 574 122 575 c 0
 124 576 125 578 126 579 c 0
 140 589 152 600 161 612 c 0
 188 647 206 675 214 698 c 0
 216 706 218 711 221 714 c 0
 223 715 226 717 229 717 c 0
 232 717 242 717 259 717 c 0
 281 717 292 716 293 715 c 2
 293 715 294 595 295 359 c 0
 295 123 294 5 292 3 c 0
 291 2 277 0 252 0 c 0
 247 0 241 0 235 0 c 0
 199 0 180 2 179 3 c 0
 178 3 178 37 178 102 c 0
 178 135 178 175 178 224 c 2
 178 468 l 1
 179 485 178 493 177 494 c 0
 176 494 174 492 169 488 c 0
 165 484 159 479 150 471 c 0
 141 463 133 458 128 455 c 0
 121 450 117 448 116 447 c 0
 111 443 108 443 105 446 c 0
 104 447 104 466 104 504 c 2
EndSplineSet
Validated: 1
EndChar

StartChar: two
Encoding: 50 50 19
Width: 440
Flags: HW
LayerCount: 2
Fore
SplineSet
31 4 m 1
 36 14 l 2
 37 16 38 19 40 22 c 2
 42 27 l 2
 45 36 50 44 55 52 c 0
 58 57 61 62 62 68 c 0
 64 75 67 81 71 87 c 0
 75 95 78 101 80 106 c 0
 81 108 83 113 86 121 c 0
 89 129 91 133 92 133 c 2
 98 147 l 1
 103 156 106 163 108 170 c 0
 111 179 113 183 114 184 c 0
 116 188 118 193 121 199 c 0
 124 208 128 215 131 220 c 2
 136 231 l 1
 138 238 143 250 152 268 c 0
 153 269 154 271 155 274 c 0
 156 277 157 280 158 281 c 0
 161 288 163 294 165 301 c 1
 169 310 173 319 176 327 c 0
 179 336 182 343 185 348 c 0
 187 352 190 361 195 374 c 0
 200 387 204 396 207 403 c 0
 209 407 212 413 215 422 c 0
 216 427 217 431 218 433 c 0
 219 434 224 446 231 468 c 0
 237 486 242 505 245 525 c 0
 245 529 246 533 246 537 c 0
 246 551 243 562 237 570 c 0
 228 583 219 590 208 592 c 0
 203 593 197 594 192 594 c 0
 184 594 176 592 168 589 c 0
 166 588 163 587 158 584 c 0
 153 581 150 578 149 577 c 0
 142 570 137 563 132 554 c 0
 129 549 127 546 125 545 c 0
 123 544 120 546 117 550 c 0
 106 562 96 573 89 583 c 0
 84 590 80 595 76 598 c 0
 72 601 70 604 70 605 c 0
 70 606 67 610 59 619 c 0
 51 628 47 633 47 635 c 0
 47 637 52 643 62 652 c 0
 72 661 79 668 85 673 c 0
 97 682 110 690 123 696 c 0
 140 705 157 710 172 713 c 0
 184 715 195 716 207 716 c 0
 234 716 261 710 285 698 c 0
 300 690 315 679 328 665 c 0
 334 658 337 654 337 653 c 1
 338 653 l 1
 338 652 l 1
 340 649 l 2
 340 648 340 648 341 647 c 0
 342 646 342 646 342 645 c 0
 351 631 358 616 363 599 c 0
 366 588 368 573 369 556 c 0
 369 550 369 546 369 541 c 0
 369 532 369 524 368 519 c 1
 368 514 l 1
 367 511 367 508 366 505 c 2
 364 495 l 1
 363 483 359 466 353 445 c 0
 347 424 342 409 338 400 c 0
 335 395 332 385 327 372 c 0
 323 361 320 355 319 353 c 0
 316 346 315 342 315 341 c 0
 315 339 308 324 294 296 c 0
 279 265 270 248 269 245 c 0
 265 235 260 225 255 215 c 0
 254 212 252 208 250 204 c 0
 248 200 246 196 245 194 c 2
 244 191 l 1
 244 186 239 175 229 158 c 0
 216 135 209 121 209 116 c 0
 209 114 211 113 216 113 c 0
 225 113 236 113 248 113 c 0
 273 113 305 113 343 114 c 0
 357 115 365 115 368 114 c 0
 369 114 370 111 370 104 c 0
 370 91 368 80 364 70 c 0
 363 67 363 65 363 62 c 0
 363 59 362 58 361 58 c 0
 360 57 360 55 359 50 c 0
 358 40 357 33 356 30 c 0
 355 27 353 20 350 8 c 0
 349 5 348 2 347 1 c 0
 346 0 341 0 330 -0 c 0
 319 0 304 0 283 1 c 0
 244 2 196 2 138 2 c 0
 80 2 49 2 46 1 c 0
 45 1 44 1 43 1 c 0
 41 1 39 1 37 2 c 2
 31 4 l 1
EndSplineSet
Validated: 1
EndChar

StartChar: three
Encoding: 51 51 20
Width: 440
Flags: HW
LayerCount: 2
Fore
SplineSet
23 57 m 0
 23 58 24 60 24 61 c 0
 25 66 30 73 37 84 c 0
 43 93 46 98 47 99 c 0
 50 104 58 118 71 140 c 0
 78 151 83 157 85 157 c 0
 87 157 90 154 95 149 c 0
 98 146 103 142 109 137 c 0
 115 132 119 130 120 130 c 0
 121 130 123 128 128 125 c 0
 133 122 146 118 165 113 c 0
 170 112 177 113 185 115 c 0
 193 117 200 119 206 122 c 0
 211 124 216 128 222 134 c 0
 228 140 233 144 237 149 c 0
 246 163 250 177 251 192 c 1
 251 196 l 1
 252 201 l 2
 253 202 253 204 253 205 c 0
 254 211 253 218 251 227 c 0
 251 229 251 232 251 235 c 0
 251 238 250 241 250 243 c 0
 250 245 249 246 249 247 c 0
 248 252 245 260 238 271 c 0
 230 284 220 295 209 304 c 0
 204 308 194 313 179 318 c 0
 168 322 156 325 145 327 c 0
 135 328 129 330 127 331 c 2
 123 333 l 1
 123 385 l 2
 123 419 123 437 124 439 c 0
 124 441 126 443 129 444 c 0
 132 445 137 446 145 447 c 0
 166 449 183 453 194 458 c 0
 199 461 207 466 215 474 c 0
 223 482 228 489 231 494 c 0
 232 497 234 501 236 507 c 0
 239 519 241 526 241 529 c 0
 241 532 241 536 240 542 c 0
 235 571 220 589 194 595 c 0
 186 596 178 596 170 595 c 0
 168 595 166 595 164 594 c 0
 162 593 160 592 158 592 c 0
 156 592 155 591 154 591 c 0
 147 588 137 581 125 571 c 0
 119 566 115 563 114 563 c 0
 113 564 110 567 105 573 c 0
 97 585 91 592 88 595 c 0
 85 598 84 599 84 600 c 0
 84 601 80 608 71 619 c 0
 66 625 61 632 54 641 c 0
 51 645 50 648 49 649 c 0
 48 652 50 655 54 659 c 0
 72 676 91 689 112 698 c 0
 113 698 114 698 115 699 c 0
 116 700 118 700 119 700 c 0
 120 700 121 701 122 702 c 0
 135 708 149 712 163 714 c 0
 170 715 182 716 198 716 c 0
 201 716 204 717 207 717 c 0
 218 717 226 716 231 715 c 0
 232 714 235 713 239 712 c 0
 243 711 246 711 247 710 c 0
 260 707 275 700 292 688 c 0
 312 673 328 653 341 626 c 0
 348 613 352 600 355 589 c 0
 357 578 358 563 359 542 c 0
 359 521 358 504 356 494 c 0
 354 484 349 472 343 460 c 0
 337 448 332 440 329 437 c 0
 326 433 324 431 324 430 c 0
 324 429 319 423 308 414 c 0
 297 405 289 399 285 397 c 0
 280 394 276 392 275 390 c 0
 274 389 275 387 275 386 c 0
 275 385 276 384 277 384 c 0
 279 384 285 380 295 373 c 0
 305 366 314 359 321 352 c 0
 336 337 349 318 359 297 c 0
 365 284 369 274 370 267 c 0
 374 246 376 225 376 205 c 0
 376 182 374 161 370 143 c 0
 367 127 360 111 351 94 c 0
 350 93 350 92 349 91 c 0
 348 90 348 88 347 87 c 0
 346 86 346 86 346 85 c 0
 346 84 345 84 345 83 c 2
 344 82 l 2
 344 81 344 80 343 79 c 0
 342 78 341 77 340 76 c 0
 335 71 331 65 327 58 c 0
 318 45 305 32 287 21 c 0
 269 10 250 2 231 -2 c 0
 214 -6 198 -9 181 -9 c 0
 173 -9 164 -8 156 -7 c 0
 154 -7 151 -7 147 -6 c 0
 143 -5 139 -4 137 -4 c 0
 136 -4 135 -4 131 -3 c 0
 127 -2 124 -2 123 -1 c 0
 119 0 116 1 113 1 c 0
 98 4 83 11 68 21 c 0
 63 24 61 25 60 25 c 0
 59 25 55 28 46 35 c 0
 37 42 30 47 27 50 c 0
 25 52 23 54 23 57 c 0
EndSplineSet
Validated: 1
EndChar

StartChar: four
Encoding: 52 52 21
Width: 442
Flags: HW
LayerCount: 2
Fore
SplineSet
32 146 m 0
 33 165 36 182 42 195 c 0
 47 204 53 218 60 238 c 0
 68 259 73 271 76 275 c 0
 77 277 81 285 86 300 c 0
 91 313 94 321 95 323 c 2
 99 333 l 2
 100 336 103 343 108 354 c 2
 113 367 l 2
 113 368 116 375 121 386 c 0
 129 405 135 419 139 429 c 0
 140 430 140 433 142 437 c 0
 144 441 145 443 145 444 c 0
 145 445 146 447 148 451 c 2
 152 459 l 1
 153 464 156 471 160 479 c 0
 162 483 165 489 168 498 c 0
 174 513 179 525 183 536 c 1
 188 546 190 552 190 553 c 0
 190 554 192 557 195 563 c 0
 199 572 202 578 203 583 c 0
 204 585 205 588 207 593 c 2
 210 600 l 2
 212 605 214 610 216 617 c 0
 220 628 225 640 232 655 c 0
 233 658 236 666 241 679 c 0
 246 694 250 703 252 704 c 0
 253 705 272 705 307 705 c 0
 342 705 360 704 361 702 c 0
 362 701 362 690 362 669 c 0
 362 656 362 577 361 430 c 0
 361 291 362 220 363 219 c 0
 364 218 371 217 382 217 c 0
 383 217 386 217 389 218 c 0
 398 219 403 217 404 214 c 0
 405 211 406 201 406 184 c 2
 406 169 l 2
 406 138 406 123 405 122 c 0
 404 121 396 121 382 121 c 2
 361 122 l 1
 362 63 l 2
 362 24 361 4 360 3 c 0
 359 2 340 1 303 1 c 0
 296 1 289 1 283 1 c 0
 259 1 247 2 246 3 c 0
 245 4 244 10 245 23 c 0
 245 30 246 38 246 48 c 0
 246 58 245 69 245 82 c 0
 245 107 245 120 244 121 c 0
 243 122 230 122 205 122 c 0
 180 122 144 122 95 121 c 2
 36 120 l 1
 34 123 l 2
 33 126 32 133 32 146 c 0
142 220 m 0
 142 218 144 217 148 216 c 1
 161 216 180 216 206 216 c 0
 232 216 244 217 245 218 c 0
 246 219 247 258 247 335 c 0
 247 361 247 382 247 400 c 0
 247 435 246 454 246 457 c 1
 245 459 245 460 244 460 c 2
 243 460 l 1
 241 460 l 1
 238 453 235 446 231 438 c 0
 224 421 220 411 219 408 c 2
 216 400 l 2
 215 399 215 397 214 395 c 0
 214 394 212 390 208 381 c 0
 205 374 202 367 200 361 c 0
 189 331 180 309 173 296 c 0
 171 291 170 287 170 286 c 2
 167 281 l 2
 166 280 165 277 162 270 c 0
 158 258 154 250 151 245 c 0
 148 238 145 233 144 229 c 0
 143 225 142 222 142 220 c 0
EndSplineSet
Validated: 1
EndChar

StartChar: five
Encoding: 53 53 22
Width: 439
Flags: HW
LayerCount: 2
Fore
SplineSet
34 32 m 0
 34 35 43 59 61 103 c 0
 65 114 68 120 69 122 c 0
 74 134 77 140 79 141 c 0
 80 141 83 140 88 138 c 0
 107 127 119 121 124 120 c 0
 137 117 149 115 160 114 c 0
 162 114 163 114 165 114 c 0
 173 114 181 116 192 118 c 0
 205 121 214 124 219 127 c 0
 224 130 227 133 230 135 c 0
 235 138 241 145 248 155 c 0
 255 165 260 175 263 184 c 0
 263 185 263 188 264 191 c 0
 265 194 266 197 267 198 c 0
 268 202 269 210 269 222 c 0
 269 234 268 243 267 250 c 0
 262 275 249 296 228 311 c 0
 219 318 207 326 191 333 c 0
 184 336 172 339 156 341 c 0
 144 343 134 343 125 343 c 0
 122 343 120 343 118 343 c 0
 111 342 102 341 91 339 c 0
 80 337 74 335 73 334 c 0
 71 332 70 333 69 338 c 1
 69 342 l 2
 69 343 69 347 70 352 c 0
 71 357 72 364 73 372 c 0
 74 380 75 387 76 393 c 0
 76 395 76 399 77 405 c 0
 78 411 79 415 79 416 c 0
 81 429 82 438 83 441 c 0
 84 446 85 455 86 468 c 0
 87 476 89 490 92 509 c 0
 98 552 101 577 101 584 c 0
 101 587 101 591 102 598 c 0
 103 605 104 609 104 610 c 0
 105 616 106 626 107 640 c 0
 108 648 109 657 111 667 c 0
 112 675 113 681 113 685 c 0
 114 696 115 702 118 703 c 0
 118 704 164 704 255 704 c 2
 391 704 l 1
 391 698 l 1
 392 694 391 687 388 677 c 0
 385 664 382 648 377 629 c 0
 374 614 371 603 369 598 c 0
 368 593 367 591 366 590 c 0
 365 589 364 588 361 587 c 1
 340 587 l 1
 295 587 l 2
 272 587 249 587 225 588 c 0
 222 588 219 588 218 587 c 0
 217 586 217 585 217 583 c 0
 217 576 214 556 209 522 c 0
 208 513 206 502 205 489 c 0
 203 474 202 465 201 462 c 0
 200 455 201 452 202 451 c 0
 203 450 205 449 208 449 c 0
 210 449 218 447 232 444 c 0
 246 441 256 438 261 436 c 0
 270 433 284 426 303 414 c 0
 307 412 314 406 325 396 c 0
 336 386 343 378 345 375 c 0
 364 348 376 324 382 303 c 0
 384 295 386 287 387 279 c 0
 388 274 389 269 390 263 c 0
 391 260 391 246 391 223 c 0
 390 193 388 171 384 157 c 0
 382 148 381 143 380 140 c 0
 379 134 376 127 371 120 c 1
 368 114 l 1
 363 104 l 2
 357 93 348 81 338 68 c 0
 328 55 318 45 309 37 c 1
 299 30 291 24 286 21 c 0
 279 17 269 13 257 8 c 0
 245 3 237 0 231 -1 c 2
 223 -3 l 1
 218 -6 200 -8 167 -8 c 0
 139 -8 117 -6 102 -1 c 0
 97 0 92 1 86 3 c 0
 82 4 78 5 74 8 c 0
 73 8 71 9 67 11 c 0
 63 13 61 14 59 15 c 0
 54 17 48 20 43 24 c 0
 38 28 34 30 34 32 c 0
EndSplineSet
Validated: 1
EndChar

StartChar: six
Encoding: 54 54 23
Width: 438
Flags: HW
LayerCount: 2
Fore
SplineSet
41 251 m 0
 41 267 42 284 44 300 c 0
 46 319 47 330 48 333 c 0
 49 340 50 345 51 350 c 0
 52 351 53 355 54 362 c 0
 59 386 64 406 71 422 c 0
 71 423 71 426 73 430 c 0
 75 434 76 436 77 437 c 0
 86 464 100 495 118 531 c 0
 135 565 146 586 151 593 c 0
 155 598 158 603 159 606 c 2
 172 632 l 1
 175 635 177 638 178 641 c 0
 180 644 182 647 183 650 c 0
 190 660 198 675 209 694 c 0
 212 699 213 702 214 703 c 0
 215 704 240 705 290 705 c 0
 306 705 320 705 331 705 c 0
 353 705 366 705 367 704 c 0
 369 703 370 701 370 700 c 0
 370 699 368 696 365 693 c 0
 360 686 358 682 357 681 c 0
 354 678 352 675 351 673 c 0
 350 672 346 668 340 660 c 0
 339 659 336 655 332 650 c 0
 328 645 326 641 324 639 c 0
 317 630 313 623 311 620 c 0
 310 618 308 614 304 609 c 0
 300 604 298 600 297 599 c 0
 293 594 289 588 286 582 c 0
 285 579 282 575 277 568 c 0
 274 564 271 559 266 552 c 0
 260 542 256 535 253 530 c 0
 247 520 243 513 241 509 c 0
 240 506 237 501 232 494 c 0
 221 479 215 468 214 461 c 2
 213 457 l 1
 224 458 l 2
 235 459 246 460 255 460 c 0
 270 460 282 458 291 455 c 0
 294 454 300 452 308 448 c 0
 316 444 322 441 325 438 c 0
 358 414 381 377 394 328 c 0
 397 314 398 300 400 288 c 0
 402 276 403 257 403 232 c 0
 403 207 402 189 400 180 c 0
 393 130 377 88 352 53 c 0
 347 46 339 37 328 27 c 0
 317 17 311 12 308 12 c 0
 307 12 303 10 294 6 c 2
 281 -0 l 2
 280 0 279 0 276 -1 c 0
 269 -5 255 -7 236 -8 c 0
 232 -8 229 -8 225 -8 c 0
 211 -8 198 -7 188 -5 c 0
 169 -1 154 4 142 11 c 0
 130 18 118 29 105 43 c 0
 98 51 88 65 76 86 c 0
 67 103 59 121 54 142 c 0
 48 167 45 184 45 193 c 0
 45 194 44 199 43 210 c 0
 41 224 41 237 41 251 c 0
159 227 m 0
 159 225 160 216 162 199 c 0
 164 175 168 157 173 144 c 0
 175 139 178 134 184 127 c 0
 190 120 194 116 197 115 c 0
 207 112 216 110 224 110 c 0
 231 110 235 111 236 112 c 0
 238 113 240 113 241 113 c 0
 243 113 246 115 252 119 c 0
 258 123 262 128 265 131 c 0
 278 152 285 183 286 226 c 0
 286 228 286 231 286 233 c 0
 286 257 283 279 277 298 c 0
 270 321 258 335 241 341 c 0
 234 343 227 345 221 345 c 0
 213 345 206 343 199 339 c 0
 187 332 178 321 171 305 c 1
 166 291 163 277 162 262 c 0
 162 253 161 246 160 240 c 0
 159 237 159 233 159 227 c 0
EndSplineSet
Validated: 1
EndChar

StartChar: seven
Encoding: 55 55 24
Width: 441
Flags: HW
LayerCount: 2
Fore
SplineSet
60 595 m 1
 60 596 l 2
 60 597 60 598 60 599 c 0
 60 600 61 601 61 602 c 0
 61 603 62 603 62 604 c 0
 63 605 64 607 65 611 c 0
 67 623 70 638 75 656 c 0
 76 659 76 664 78 672 c 0
 80 680 81 685 82 688 c 0
 84 697 88 702 93 703 c 1
 106 703 l 1
 113 702 159 702 246 702 c 0
 333 701 377 701 378 701 c 0
 379 700 380 697 380 690 c 0
 380 683 379 680 378 680 c 0
 377 679 377 677 377 674 c 0
 377 671 376 668 374 666 c 1
 373 663 372 660 371 656 c 0
 370 651 370 647 369 644 c 0
 367 634 364 619 360 598 c 0
 356 575 354 562 353 561 c 0
 352 560 352 557 351 552 c 0
 351 551 351 549 350 546 c 0
 349 543 349 541 348 540 c 0
 347 535 346 530 345 527 c 0
 345 526 345 525 344 522 c 0
 343 519 342 516 342 513 c 0
 342 510 342 507 341 504 c 0
 340 498 338 491 337 484 c 0
 336 477 334 470 333 464 c 0
 333 462 332 459 331 456 c 0
 330 453 329 450 329 448 c 0
 329 446 329 444 329 443 c 0
 329 442 327 433 323 416 c 0
 322 412 321 408 320 404 c 0
 319 401 318 399 318 396 c 0
 315 379 313 367 311 361 c 0
 310 356 310 354 309 353 c 1
 309 350 309 348 308 346 c 0
 307 345 306 339 304 328 c 0
 304 326 304 323 303 320 c 0
 302 317 301 314 301 312 c 0
 301 310 301 308 301 307 c 0
 301 306 301 305 300 303 c 0
 299 301 298 299 298 296 c 0
 298 293 298 292 298 291 c 2
 295 276 l 2
 294 271 292 266 291 259 c 0
 290 252 288 245 286 238 c 0
 285 233 283 223 281 208 c 0
 279 194 277 186 276 185 c 0
 275 183 275 180 275 177 c 2
 274 172 l 2
 273 169 273 166 273 165 c 0
 266 134 263 117 262 116 c 0
 262 115 261 107 258 90 c 0
 257 84 256 80 255 77 c 0
 254 74 253 70 252 64 c 0
 251 57 248 41 244 18 c 0
 243 9 242 5 241 5 c 0
 240 3 239 1 238 -0 c 2
 238 -0 232 -1 222 -1 c 0
 212 -1 196 0 175 -0 c 0
 136 0 115 1 112 2 c 0
 111 3 111 7 112 13 c 0
 115 23 119 37 123 56 c 2
 128 76 l 2
 129 82 131 88 132 95 c 0
 133 100 134 104 135 109 c 2
 140 129 l 2
 141 137 143 143 144 146 c 0
 145 150 145 153 146 154 c 0
 147 157 148 164 151 173 c 1
 152 181 155 194 158 211 c 0
 159 219 162 230 166 243 c 0
 168 249 169 253 169 255 c 0
 170 260 171 264 172 269 c 0
 174 277 175 283 176 286 c 0
 178 295 179 300 179 302 c 0
 180 304 180 306 181 310 c 0
 182 314 183 317 183 318 c 0
 183 319 183 321 184 324 c 0
 185 327 185 330 186 331 c 0
 187 338 188 342 189 345 c 0
 189 348 190 352 192 359 c 0
 195 373 198 385 201 396 c 0
 201 397 201 399 202 404 c 0
 203 409 204 412 205 415 c 0
 207 424 209 430 210 433 c 0
 210 434 210 435 211 439 c 0
 212 443 212 446 213 447 c 0
 215 458 219 473 224 492 c 0
 225 499 226 503 227 504 c 0
 227 505 227 506 228 509 c 0
 229 512 229 516 230 520 c 0
 231 524 232 528 233 531 c 0
 240 561 244 578 244 582 c 0
 244 584 240 585 231 585 c 2
 154 585 l 2
 98 585 68 586 63 587 c 0
 60 588 59 590 60 595 c 1
EndSplineSet
Validated: 1
EndChar

StartChar: eight
Encoding: 56 56 25
Width: 439
Flags: HW
LayerCount: 2
Fore
SplineSet
37 181 m 0
 37 187 37 194 37 202 c 0
 38 220 41 235 44 246 c 0
 46 253 47 258 47 259 c 0
 47 263 51 274 61 291 c 0
 71 308 80 322 87 331 c 0
 91 336 98 343 109 353 c 0
 120 363 128 370 133 374 c 2
 140 379 l 2
 140 380 137 383 131 388 c 0
 100 415 78 441 67 467 c 0
 64 475 62 479 62 480 c 0
 62 481 61 482 60 485 c 0
 56 492 53 503 50 518 c 0
 49 525 48 536 48 551 c 0
 48 571 50 587 54 599 c 0
 55 604 57 608 58 612 c 0
 59 618 62 625 67 632 c 0
 82 658 102 679 129 695 c 0
 136 699 145 703 158 707 c 0
 171 711 179 714 184 714 c 1
 185 715 188 715 195 716 c 0
 198 716 203 717 211 717 c 0
 215 717 221 716 226 716 c 0
 242 716 252 715 257 714 c 0
 260 713 264 712 271 711 c 0
 290 707 310 698 331 684 c 0
 337 679 345 672 356 661 c 0
 369 647 380 631 388 612 c 0
 391 605 394 600 395 599 c 0
 396 598 396 596 395 594 c 0
 394 591 394 588 395 584 c 0
 396 581 397 570 398 552 c 0
 398 549 398 547 398 545 c 0
 398 523 395 503 390 487 c 0
 387 480 384 470 378 458 c 0
 372 446 368 439 366 438 c 1
 361 431 l 2
 355 423 341 409 320 390 c 0
 315 385 312 382 312 381 c 0
 312 380 316 375 324 368 c 0
 337 355 351 338 364 319 c 0
 381 293 393 266 398 237 c 0
 399 232 399 215 399 187 c 0
 399 181 400 177 400 172 c 0
 400 153 399 141 398 137 c 0
 394 116 389 100 384 90 c 0
 382 86 379 81 376 75 c 0
 371 66 365 57 357 47 c 0
 349 37 342 30 335 25 c 0
 332 23 329 20 324 16 c 0
 317 10 305 5 286 0 c 0
 265 -5 245 -8 226 -8 c 0
 220 -8 215 -7 209 -7 c 0
 190 -6 174 -3 162 0 c 0
 150 3 138 9 124 17 c 0
 114 23 103 32 91 45 c 2
 86 50 l 1
 81 55 l 1
 80 57 l 1
 77 60 71 68 63 79 c 1
 58 88 53 97 49 107 c 0
 45 118 41 135 38 158 c 0
 37 164 37 172 37 181 c 0
153 183 m 0
 153 171 157 157 164 142 c 0
 167 134 172 128 176 124 c 0
 180 120 186 116 193 113 c 0
 200 110 209 108 220 108 c 0
 229 108 235 108 237 108 c 0
 239 108 243 111 249 114 c 0
 265 122 276 137 282 160 c 0
 283 165 285 171 285 181 c 0
 285 184 285 187 285 190 c 0
 285 195 284 200 284 203 c 0
 282 213 280 222 278 230 c 0
 275 239 270 248 262 259 c 0
 256 268 253 272 252 273 c 0
 251 275 245 281 236 290 c 0
 227 299 222 304 221 304 c 0
 220 304 216 300 209 293 c 0
 202 286 196 281 192 276 c 0
 185 268 182 264 182 263 c 0
 179 260 174 252 168 239 c 0
 162 226 158 218 157 213 c 0
 157 212 157 208 156 202 c 0
 155 196 155 193 154 191 c 1
 154 188 153 186 153 183 c 0
163 549 m 0
 163 541 163 536 164 533 c 0
 164 532 165 528 168 521 c 0
 172 508 181 494 194 480 c 0
 205 468 216 460 225 456 c 0
 226 456 226 455 227 455 c 0
 229 455 233 456 236 459 c 0
 241 463 248 471 258 484 c 0
 262 490 266 497 271 506 c 0
 276 515 278 520 278 522 c 0
 278 523 279 525 280 526 c 0
 281 527 282 534 282 546 c 0
 282 558 281 566 280 569 c 0
 272 586 260 599 244 607 c 0
 238 609 230 611 221 611 c 0
 220 611 219 610 218 610 c 0
 207 610 199 608 194 605 c 0
 193 604 192 603 190 603 c 0
 187 603 182 598 176 590 c 0
 170 582 166 574 165 567 c 0
 164 563 163 557 163 549 c 0
EndSplineSet
Validated: 1
EndChar

StartChar: nine
Encoding: 57 57 26
Width: 436
Flags: HW
LayerCount: 2
Fore
SplineSet
38 461 m 0
 38 469 38 479 38 491 c 0
 39 518 41 535 42 541 c 0
 43 546 43 548 44 549 c 1
 44 552 45 556 46 559 c 0
 48 566 49 571 50 574 c 0
 53 585 58 598 65 613 c 0
 72 628 79 640 84 648 c 0
 91 657 98 666 108 675 c 0
 118 684 127 690 134 694 c 0
 151 703 168 710 187 713 c 0
 193 714 203 715 217 715 c 0
 231 715 241 714 246 713 c 0
 273 707 293 699 305 690 c 0
 308 688 310 687 311 687 c 0
 312 687 319 680 332 667 c 0
 345 654 353 644 356 639 c 0
 365 626 373 610 379 591 c 0
 380 589 381 586 382 583 c 2
 384 578 l 2
 387 573 389 563 392 549 c 0
 392 547 393 541 395 532 c 0
 396 525 397 507 397 477 c 0
 397 471 398 465 398 460 c 0
 398 439 397 425 396 417 c 0
 392 382 389 360 386 351 c 0
 385 349 384 345 383 338 c 0
 382 331 381 327 380 326 c 0
 380 325 379 324 378 321 c 0
 377 318 377 315 377 313 c 0
 376 307 371 294 365 275 c 0
 359 256 355 245 354 244 c 0
 353 243 353 243 353 241 c 0
 353 239 351 235 348 228 c 0
 345 221 343 216 343 215 c 0
 343 214 338 202 328 180 c 0
 327 178 326 175 325 172 c 2
 319 161 l 1
 314 151 l 2
 309 140 305 132 302 127 c 0
 301 126 300 125 298 122 c 0
 296 119 295 117 294 114 c 0
 293 111 291 108 290 106 c 0
 287 99 281 90 274 78 c 0
 268 67 265 62 264 61 c 2
 263 59 l 2
 262 57 260 55 259 53 c 0
 258 51 257 48 256 47 c 0
 251 40 249 36 249 35 c 0
 249 34 243 24 231 4 c 0
 230 3 206 2 157 1 c 0
 141 1 128 1 117 1 c 0
 95 1 83 1 81 2 c 0
 79 3 78 4 78 5 c 0
 78 9 84 19 97 34 c 0
 106 45 113 55 118 63 c 2
 129 79 l 2
 136 88 141 96 146 103 c 0
 147 105 149 108 150 110 c 0
 151 112 152 114 154 116 c 0
 156 118 157 119 157 120 c 0
 162 127 165 132 167 136 c 0
 168 138 170 142 173 147 c 0
 176 152 178 155 179 156 c 0
 184 165 194 182 207 209 c 0
 220 236 227 250 227 251 c 0
 227 254 223 255 214 254 c 0
 207 253 200 252 192 252 c 0
 182 252 171 253 158 255 c 0
 151 256 143 259 135 262 c 0
 127 265 122 268 120 271 c 0
 119 272 115 275 109 279 c 0
 97 287 85 301 73 320 c 0
 69 326 63 338 56 357 c 0
 55 358 54 363 51 372 c 0
 48 382 46 387 45 388 c 0
 44 392 43 394 44 395 c 0
 45 396 44 397 43 400 c 0
 42 402 41 408 40 417 c 0
 39 427 38 433 39 436 c 1
 38 441 38 450 38 461 c 0
154 462 m 0
 155 447 157 433 160 420 c 0
 163 406 170 393 180 382 c 0
 188 373 198 368 209 366 c 0
 213 365 216 365 220 365 c 0
 227 365 234 366 242 370 c 0
 253 375 261 382 264 391 c 0
 264 392 265 394 266 396 c 0
 267 398 268 399 269 400 c 0
 273 407 276 418 278 434 c 2
 280 450 l 2
 281 457 281 466 281 475 c 0
 281 482 280 489 280 498 c 0
 279 518 278 533 275 543 c 0
 273 552 269 561 264 570 c 0
 259 579 255 584 253 584 c 0
 252 584 250 585 247 588 c 1
 241 591 236 593 231 594 c 0
 224 596 220 596 218 596 c 0
 217 596 216 596 216 596 c 1
 214 595 l 2
 213 594 211 594 209 594 c 0
 207 594 205 593 204 592 c 0
 197 590 190 586 184 580 c 0
 175 571 169 561 166 552 c 0
 164 547 163 544 163 543 c 0
 162 542 162 541 161 538 c 0
 161 535 161 531 160 528 c 0
 159 524 159 519 158 512 c 0
 158 509 157 506 156 501 c 0
 155 496 155 494 155 493 c 0
 154 490 154 484 154 478 c 0
 154 473 154 468 154 462 c 0
EndSplineSet
Validated: 1
EndChar

StartChar: colon
Encoding: 58 58 27
Width: 223
Flags: HW
LayerCount: 2
Fore
SplineSet
51 97 m 0
 51 113 51 126 51 137 c 0
 51 159 51 170 52 171 c 0
 53 172 62 172 79 172 c 0
 88 172 98 172 111 172 c 0
 149 172 169 172 170 171 c 0
 171 170 172 145 172 95 c 0
 172 45 171 20 169 20 c 1
 168 19 149 19 111 19 c 0
 74 19 54 20 53 21 c 0
 52 23 51 48 51 97 c 0
51 430 m 0
 51 478 52 503 53 504 c 0
 54 505 73 506 111 506 c 0
 150 505 170 505 170 504 c 0
 171 503 172 478 172 429 c 2
 171 356 l 1
 167 355 l 2
 164 354 155 354 139 354 c 0
 131 354 121 354 109 354 c 0
 74 355 56 356 54 357 c 0
 52 358 51 382 51 430 c 0
EndSplineSet
Validated: 1
EndChar

StartChar: semicolon
Encoding: 59 59 28
Width: 220
Flags: HW
LayerCount: 2
Fore
SplineSet
44 -38 m 0
 45 -13 46 0 46 1 c 0
 47 2 49 51 50 148 c 0
 50 160 51 167 52 169 c 0
 53 170 57 171 62 171 c 0
 83 170 102 170 121 170 c 0
 154 170 172 170 174 169 c 0
 176 168 177 164 177 157 c 0
 177 155 177 154 177 152 c 0
 176 141 175 135 174 132 c 0
 174 131 174 130 174 129 c 0
 174 128 173 127 172 125 c 0
 171 123 171 123 171 122 c 0
 168 109 165 96 161 82 c 0
 155 64 152 51 151 44 c 0
 151 43 150 41 150 40 c 0
 150 39 150 36 149 33 c 0
 148 30 148 28 148 27 c 0
 143 12 141 3 140 -0 c 2
 139 -4 l 1
 136 -13 l 1
 133 -22 l 1
 126 -49 122 -65 122 -70 c 0
 122 -72 121 -74 119 -76 c 0
 117 -78 115 -79 112 -79 c 2
 82 -79 l 2
 59 -79 47 -78 46 -77 c 0
 45 -76 44 -63 44 -38 c 0
50 427 m 0
 50 476 50 501 51 502 c 0
 52 503 71 504 109 504 c 0
 147 504 167 503 169 502 c 0
 170 501 171 487 171 459 c 0
 171 450 171 439 171 427 c 0
 171 382 170 358 169 354 c 0
 168 352 167 351 163 351 c 0
 162 351 161 351 160 351 c 2
 157 351 l 2
 153 351 134 351 101 352 c 0
 70 353 53 353 52 354 c 0
 51 355 50 379 50 427 c 0
EndSplineSet
Validated: 1
EndChar

StartChar: less
Encoding: 60 60 29
Width: 600
Flags: HW
LayerCount: 2
Fore
SplineSet
16 242 m 0
 16 247 16 252 16 259 c 0
 16 279 17 290 18 292 c 1
 18 295 26 299 42 304 c 0
 53 308 66 312 81 317 c 0
 84 318 90 320 98 323 c 0
 106 326 111 329 114 330 c 0
 140 341 157 347 165 350 c 0
 167 351 170 352 174 353 c 0
 178 354 184 356 189 358 c 0
 194 360 198 361 200 362 c 0
 213 367 224 371 232 374 c 2
 242 377 l 1
 253 381 l 2
 259 383 265 385 272 388 c 0
 273 389 276 390 281 392 c 0
 286 394 290 394 291 395 c 0
 297 397 306 400 318 405 c 0
 333 410 342 413 345 414 c 0
 355 417 368 422 383 427 c 0
 395 432 409 437 425 443 c 0
 445 450 462 456 475 461 c 0
 476 462 481 463 489 466 c 0
 490 466 492 468 498 470 c 0
 504 472 509 474 512 475 c 0
 526 480 533 483 534 483 c 0
 536 484 538 485 541 486 c 2
 551 490 l 2
 556 492 562 494 568 497 c 0
 573 499 577 500 579 500 c 2
 580 500 l 1
 584 500 l 1
 584 461 l 1
 584 422 l 1
 580 418 l 2
 577 415 572 413 566 412 c 0
 556 410 547 407 540 404 c 0
 527 399 520 397 519 396 c 0
 516 395 512 394 507 392 c 0
 502 390 497 388 493 387 c 0
 485 384 479 383 476 382 c 0
 472 381 466 378 458 375 c 0
 457 375 455 374 449 372 c 0
 443 370 439 368 436 367 c 0
 435 366 432 365 426 363 c 0
 420 361 416 360 414 359 c 0
 392 352 378 348 371 345 c 0
 370 345 362 342 346 335 c 1
 330 330 314 324 297 317 c 0
 284 311 276 308 273 309 c 0
 271 309 268 308 265 306 c 2
 246 299 l 2
 239 297 235 295 232 294 c 1
 230 292 207 284 162 271 c 0
 159 270 157 270 156 269 c 0
 154 268 151 267 148 266 c 0
 143 265 140 263 139 262 c 0
 137 261 137 259 140 258 c 0
 151 253 169 248 192 241 c 0
 201 238 207 236 211 233 c 0
 212 232 217 230 228 226 c 0
 256 217 272 211 277 208 c 0
 280 207 282 206 283 206 c 0
 287 206 297 203 312 196 c 2
 316 194 l 2
 319 193 322 192 325 191 c 0
 328 190 330 189 333 188 c 0
 352 181 362 177 365 176 c 0
 386 168 404 161 419 156 c 0
 431 152 442 148 453 144 c 0
 454 143 460 141 469 138 c 0
 471 138 475 137 481 134 c 0
 484 133 502 126 535 115 c 2
 583 99 l 1
 583 58 l 2
 583 30 583 16 582 16 c 2
 581 16 l 2
 579 16 575 17 568 20 c 0
 559 24 552 26 549 27 c 0
 546 28 541 30 532 33 c 0
 526 36 521 37 516 39 c 0
 511 41 508 42 507 42 c 0
 506 43 502 44 495 47 c 0
 493 48 490 49 485 51 c 0
 480 53 477 55 476 55 c 0
 471 57 463 60 450 64 c 0
 447 65 441 67 434 70 c 0
 427 73 422 75 420 76 c 0
 403 83 388 88 373 93 c 0
 359 98 347 102 338 106 c 0
 329 110 322 113 317 114 c 0
 310 116 304 118 297 121 c 0
 294 122 291 122 287 124 c 0
 283 126 280 127 279 127 c 0
 270 130 263 132 257 135 c 0
 251 138 246 139 243 140 c 0
 240 141 239 141 239 141 c 1
 239 141 233 143 223 146 c 0
 216 149 212 151 211 152 c 0
 210 153 205 155 195 159 c 0
 185 163 175 166 166 168 c 0
 165 168 162 169 159 170 c 2
 152 174 l 2
 149 176 143 178 134 181 c 0
 125 184 120 186 119 187 c 0
 118 188 115 189 108 191 c 0
 101 193 96 195 93 197 c 0
 92 197 90 197 87 198 c 2
 80 201 l 2
 76 202 70 204 62 208 c 0
 60 209 57 209 52 211 c 0
 47 213 44 214 43 215 c 0
 26 221 18 225 17 227 c 0
 17 228 16 233 16 242 c 0
EndSplineSet
Validated: 1
EndChar

StartChar: equal
Encoding: 61 61 30
Width: 594
Flags: HW
LayerCount: 2
Fore
SplineSet
56 166 m 1
 57 189 58 202 59 205 c 0
 60 206 67 207 79 207 c 0
 83 207 88 207 93 207 c 0
 120 206 199 206 331 205 c 1
 468 205 536 205 537 204 c 0
 538 203 538 190 538 165 c 0
 538 140 537 128 536 127 c 0
 535 126 487 126 392 126 c 0
 344 126 284 126 213 126 c 0
 111 127 59 128 58 129 c 0
 57 130 56 142 56 166 c 1
56 353 m 0
 56 371 56 382 57 385 c 0
 58 388 59 390 60 391 c 0
 61 391 64 392 67 392 c 0
 70 392 74 391 80 391 c 0
 87 391 166 391 317 390 c 0
 463 389 536 389 537 388 c 0
 538 387 538 374 538 349 c 0
 538 324 538 312 537 312 c 2
 403 312 l 1
 281 312 l 1
 165 312 l 2
 94 312 59 313 58 314 c 0
 57 315 56 328 56 353 c 0
EndSplineSet
Validated: 1
EndChar

StartChar: greater
Encoding: 62 62 31
Width: 600
Flags: HW
LayerCount: 2
Fore
SplineSet
16 74 m 0
 16 96 16 109 17 114 c 0
 18 117 19 120 22 121 c 0
 25 122 35 126 51 131 c 0
 67 136 77 140 82 142 c 2
 103 148 l 2
 110 151 119 154 128 157 c 0
 129 157 133 158 138 160 c 0
 143 162 147 164 150 165 c 0
 159 168 164 169 165 169 c 0
 166 169 169 170 176 173 c 0
 187 178 206 185 233 194 c 0
 236 195 247 199 265 205 c 1
 276 210 288 214 302 218 c 1
 315 223 322 226 323 227 c 0
 324 228 325 228 327 228 c 0
 329 228 331 228 332 229 c 0
 333 230 334 231 338 232 c 0
 342 233 345 234 346 234 c 0
 347 234 349 235 354 237 c 0
 360 240 364 241 367 242 c 0
 368 242 371 243 375 245 c 0
 379 247 383 248 384 248 c 2
 429 263 l 2
 452 270 464 274 465 275 c 1
 465 278 l 2
 465 279 464 280 461 281 c 0
 458 282 454 284 450 285 c 0
 446 286 440 288 433 291 c 0
 429 292 424 294 420 295 c 0
 416 296 412 298 408 299 c 2
 403 301 l 2
 400 303 395 305 387 307 c 0
 384 308 381 308 380 309 c 0
 375 311 374 313 377 315 c 0
 378 316 377 317 375 317 c 0
 373 317 371 317 369 316 c 0
 368 315 363 316 353 319 c 0
 343 322 337 324 334 326 c 0
 331 328 327 330 321 331 c 0
 318 332 311 335 302 338 c 0
 299 340 291 343 280 347 c 0
 263 353 253 356 250 357 c 0
 239 362 233 364 231 364 c 0
 230 364 229 364 228 365 c 2
 223 367 l 2
 221 368 219 368 218 369 c 0
 207 374 193 379 178 384 c 0
 169 387 163 390 159 391 c 0
 154 393 148 395 141 397 c 0
 140 398 138 398 135 399 c 0
 132 400 130 402 126 403 c 0
 122 404 119 405 117 406 c 0
 105 411 98 413 96 413 c 0
 93 414 88 415 82 418 c 0
 81 419 76 421 68 424 c 0
 67 425 60 427 49 431 c 0
 40 434 33 436 29 437 c 0
 23 438 20 440 19 444 c 0
 18 448 17 461 17 483 c 2
 17 523 l 2
 17 524 18 524 20 524 c 0
 23 524 27 523 32 521 c 0
 38 518 42 517 43 517 c 0
 45 517 49 516 54 513 c 0
 59 510 64 508 69 507 c 0
 73 506 77 504 82 501 c 0
 85 499 89 497 94 496 c 0
 109 492 124 486 139 479 c 0
 140 478 145 476 153 473 c 2
 170 467 l 2
 185 461 197 457 205 454 c 0
 208 453 211 452 216 450 c 0
 221 448 224 447 225 447 c 0
 227 446 238 442 257 435 c 0
 284 425 298 420 299 419 c 0
 308 415 314 413 316 413 c 0
 326 410 344 403 369 394 c 0
 394 385 409 379 414 377 c 0
 419 375 423 374 425 373 c 0
 428 372 435 370 446 365 c 0
 451 363 456 361 459 360 c 0
 465 358 494 347 547 328 c 0
 552 326 560 323 573 318 c 2
 584 314 l 1
 584 277 l 1
 583 258 583 247 582 244 c 0
 581 241 578 239 573 237 c 2
 562 233 l 2
 560 232 555 230 547 228 c 0
 539 225 532 223 527 221 c 0
 525 220 515 217 497 210 c 0
 484 206 477 203 476 202 c 0
 473 201 468 199 460 196 c 2
 444 190 l 1
 436 187 l 2
 434 186 430 185 423 183 c 0
 416 180 404 176 386 169 c 0
 375 164 368 162 365 162 c 0
 364 162 362 161 357 159 c 0
 354 157 349 155 344 154 c 0
 343 153 340 152 337 151 c 0
 334 150 332 149 331 149 c 0
 326 147 320 145 312 142 c 0
 307 140 303 138 299 137 c 0
 295 136 291 134 286 133 c 0
 281 132 276 130 272 128 c 0
 254 121 239 115 227 112 c 0
 219 110 214 108 212 107 c 0
 209 106 205 104 198 102 c 0
 179 95 165 90 156 86 c 0
 135 79 114 72 95 65 c 0
 87 63 82 61 79 60 c 0
 78 59 75 57 70 56 c 0
 69 55 68 55 65 54 c 0
 62 53 61 52 60 52 c 0
 53 49 49 48 47 47 c 0
 44 46 40 45 34 42 c 0
 28 39 23 38 20 38 c 0
 19 38 18 38 17 39 c 0
 16 40 16 52 16 74 c 0
EndSplineSet
Validated: 1
EndChar

StartChar: question
Encoding: 63 63 32
Width: 275
Flags: HW
LayerCount: 2
Fore
SplineSet
50 360 m 0
 50 361 51 362 52 364 c 0
 53 367 55 372 56 377 c 2
 59 392 l 2
 60 395 62 403 65 418 c 0
 66 424 67 431 70 438 c 0
 71 442 73 449 76 459 c 0
 78 468 80 475 81 478 c 0
 83 483 86 491 89 502 c 0
 90 506 91 511 93 516 c 0
 95 523 96 530 97 535 c 0
 97 538 98 541 98 544 c 0
 98 553 96 560 93 567 c 0
 90 574 81 579 67 583 c 0
 59 585 54 587 52 588 c 0
 51 588 51 589 51 592 c 0
 51 596 52 605 54 616 c 0
 54 617 55 620 56 623 c 0
 57 626 57 629 57 630 c 0
 58 638 61 648 64 660 c 0
 67 673 69 684 69 692 c 0
 69 694 69 695 69 697 c 0
 69 700 70 702 71 704 c 0
 72 705 73 705 75 705 c 0
 79 705 84 704 92 703 c 0
 105 701 119 698 132 694 c 0
 138 692 147 689 158 683 c 0
 169 677 176 672 181 668 c 0
 190 660 194 656 195 657 c 0
 196 657 200 652 206 643 c 0
 212 634 216 626 219 621 c 1
 224 607 l 1
 225 576 l 2
 225 548 223 526 218 511 c 0
 216 504 212 491 206 472 c 0
 200 453 197 442 196 439 c 0
 195 437 194 433 192 428 c 0
 191 423 188 414 183 402 c 0
 178 388 175 379 174 376 c 0
 173 369 172 365 171 363 c 0
 168 355 169 347 173 338 c 0
 177 329 182 323 189 321 c 0
 194 320 197 318 199 316 c 0
 200 315 202 312 202 307 c 0
 202 302 202 285 202 258 c 2
 203 203 l 1
 199 201 l 2
 196 200 190 200 181 201 c 0
 169 202 162 203 161 204 c 0
 158 205 154 206 149 208 c 0
 144 210 141 211 139 210 c 1
 134 210 124 214 109 223 c 0
 104 226 97 231 90 238 c 0
 83 245 79 250 77 254 c 0
 76 257 73 260 70 265 c 0
 65 272 61 283 58 298 c 0
 55 313 53 327 53 342 c 0
 53 353 52 359 51 359 c 0
 50 359 50 359 50 360 c 0
81 77 m 0
 82 126 83 150 83 151 c 0
 84 152 85 152 88 153 c 1
 146 153 l 2
 182 153 200 152 201 151 c 0
 202 150 202 125 202 76 c 0
 202 27 202 2 201 2 c 2
 199 2 l 1
 195 2 l 1
 188 2 l 1
 179 2 l 2
 176 2 172 2 168 2 c 0
 164 2 161 1 156 1 c 2
 143 1 l 2
 104 1 84 2 83 3 c 0
 82 4 81 29 81 77 c 0
EndSplineSet
Validated: 1
EndChar

StartChar: at
Encoding: 64 64 33
Width: 699
Flags: HW
LayerCount: 2
Fore
SplineSet
26 369 m 0
 26 391 27 410 29 426 c 0
 32 453 36 471 38 481 c 0
 40 491 45 507 54 530 c 0
 62 552 80 583 107 622 c 1
 112 631 130 649 160 676 c 0
 172 687 188 697 208 708 c 0
 228 719 248 728 267 734 c 0
 284 739 295 742 301 744 c 0
 307 746 317 748 331 749 c 0
 341 749 346 749 347 750 c 0
 348 751 356 751 374 751 c 0
 392 751 404 751 411 750 c 0
 434 747 448 745 454 743 c 0
 455 743 456 743 458 742 c 2
 464 740 l 2
 466 739 468 739 469 739 c 0
 496 731 521 720 542 705 c 0
 550 700 555 698 556 697 c 0
 558 696 560 695 561 694 c 2
 568 688 l 1
 583 677 598 662 614 642 c 0
 630 622 641 603 648 586 c 0
 648 585 650 581 653 574 c 0
 660 555 666 532 670 504 c 0
 671 495 671 478 671 453 c 0
 671 448 672 444 672 440 c 0
 672 424 671 415 670 414 c 0
 669 413 668 410 667 403 c 0
 667 402 666 400 666 398 c 0
 666 396 666 394 666 393 c 2
 666 391 l 2
 666 390 665 386 663 380 c 0
 662 375 660 368 657 357 c 1
 652 344 648 333 643 323 c 0
 638 313 636 307 635 306 c 0
 634 303 632 302 631 302 c 0
 630 302 630 302 630 301 c 0
 630 300 628 296 624 290 c 0
 595 247 562 219 524 208 c 0
 516 206 505 205 492 205 c 0
 478 205 467 206 460 209 c 0
 453 212 444 218 435 227 c 0
 424 238 417 251 416 267 c 0
 415 276 414 280 413 280 c 0
 412 281 409 279 406 273 c 0
 385 240 360 218 333 209 c 0
 322 206 310 204 297 204 c 0
 284 204 272 206 263 209 c 2
 254 211 l 2
 253 211 249 214 242 219 c 0
 235 224 229 228 224 232 c 0
 218 238 211 248 203 260 c 0
 195 272 190 282 188 289 c 0
 187 291 186 295 185 302 c 0
 182 324 180 343 180 358 c 0
 180 378 183 396 188 422 c 0
 192 439 199 457 208 477 c 2
 216 494 l 1
 225 508 l 2
 231 517 235 522 238 525 c 0
 242 530 248 537 258 547 c 0
 268 557 275 562 279 564 c 0
 303 580 327 589 352 589 c 0
 358 589 365 588 372 587 c 0
 386 585 397 582 406 576 c 0
 415 570 423 562 430 552 c 0
 435 545 439 537 441 530 c 0
 443 523 445 520 446 520 c 0
 447 519 448 520 450 523 c 1
 452 530 l 2
 453 533 454 539 456 548 c 0
 458 557 459 562 459 563 c 0
 459 564 460 566 461 569 c 0
 462 570 476 571 502 572 c 0
 527 572 540 571 540 570 c 0
 541 569 540 565 538 558 c 0
 536 551 535 547 535 546 c 0
 535 541 532 533 527 521 c 2
 526 519 l 2
 526 517 526 516 525 514 c 0
 524 512 524 510 524 509 c 0
 523 503 521 496 518 487 c 0
 517 484 517 481 516 477 c 0
 515 473 514 470 514 469 c 0
 514 468 512 463 509 452 c 0
 508 445 506 436 503 427 c 0
 500 418 499 412 498 410 c 0
 497 406 496 401 494 395 c 0
 492 387 491 383 491 382 c 0
 491 380 491 378 490 376 c 0
 489 374 487 367 484 356 c 1
 482 344 480 336 479 332 c 0
 478 327 477 323 477 318 c 0
 477 312 478 305 480 299 c 0
 483 292 486 287 491 284 c 0
 496 281 502 279 511 279 c 0
 516 279 523 282 532 288 c 0
 541 294 548 300 554 308 c 0
 565 322 571 330 571 333 c 0
 571 334 573 338 578 346 c 1
 585 361 591 375 595 389 c 0
 598 402 600 411 601 418 c 2
 602 424 l 2
 603 428 603 431 603 433 c 0
 604 439 604 448 605 461 c 0
 606 474 605 483 604 488 c 0
 601 509 597 528 593 543 c 0
 589 558 577 579 559 604 c 0
 555 609 548 617 536 628 c 0
 524 639 516 645 512 647 c 2
 509 649 l 2
 507 650 506 652 504 653 c 0
 502 654 500 654 499 655 c 0
 490 660 478 666 464 671 c 0
 450 676 439 679 430 680 c 0
 425 681 419 682 412 683 c 0
 406 684 392 684 371 684 c 0
 341 684 322 682 315 679 c 2
 312 678 l 2
 310 677 308 677 306 676 c 0
 304 675 301 675 299 674 c 0
 284 671 270 665 255 658 c 0
 244 653 231 645 215 632 c 1
 206 626 196 617 184 605 c 0
 172 593 166 586 166 584 c 0
 166 583 164 581 161 577 c 0
 158 574 155 569 150 562 c 0
 145 555 143 552 143 551 c 0
 143 550 142 547 139 544 c 0
 133 535 127 522 121 507 c 0
 115 492 111 479 109 468 c 0
 108 463 107 459 106 454 c 0
 103 443 101 429 100 412 c 0
 100 411 100 408 99 403 c 0
 98 398 98 396 98 395 c 0
 97 389 97 383 97 376 c 0
 97 371 98 361 99 346 c 0
 100 331 101 321 102 317 c 0
 108 288 113 268 118 257 c 0
 127 236 139 216 154 195 c 0
 161 186 164 181 164 180 c 0
 164 179 170 173 180 164 c 0
 190 155 197 148 202 145 c 0
 223 131 235 123 240 121 c 2
 248 117 l 2
 250 116 252 115 254 115 c 0
 256 115 258 113 263 110 c 1
 269 108 274 107 279 106 c 0
 283 105 286 105 287 104 c 0
 294 101 301 100 306 99 c 0
 307 99 308 99 310 98 c 0
 312 97 312 97 313 97 c 0
 320 95 335 94 359 94 c 0
 362 94 365 94 368 94 c 0
 392 94 413 96 429 101 c 0
 430 101 434 102 439 103 c 0
 444 104 447 105 448 105 c 0
 455 107 462 109 468 112 c 0
 475 115 478 116 479 116 c 0
 482 116 492 121 511 131 c 0
 530 141 542 148 548 153 c 0
 552 156 556 159 561 162 c 0
 567 166 571 169 572 171 c 0
 583 182 589 187 592 187 c 0
 593 187 595 186 597 183 c 0
 604 174 612 163 619 152 c 0
 626 141 630 134 630 133 c 0
 630 131 628 129 625 126 c 0
 621 122 617 118 611 114 c 0
 605 110 602 108 601 108 c 0
 600 108 598 107 596 106 c 1
 594 103 580 94 554 77 c 0
 553 76 540 70 515 57 c 0
 509 54 506 53 505 52 c 1
 503 52 501 51 498 50 c 0
 491 47 479 42 463 37 c 0
 462 37 459 36 452 34 c 0
 446 33 435 31 418 28 c 0
 409 27 402 26 398 25 c 0
 391 24 383 24 372 24 c 0
 361 24 349 24 335 25 c 0
 306 27 288 30 283 33 c 0
 281 34 279 34 276 34 c 0
 273 34 263 37 246 44 c 0
 237 47 232 49 229 50 c 0
 224 52 221 54 219 55 c 0
 218 55 217 56 215 57 c 0
 213 58 211 59 210 59 c 0
 204 62 196 67 184 74 c 0
 172 81 165 86 163 89 c 0
 162 90 159 93 154 97 c 0
 151 99 144 105 133 115 c 0
 124 124 119 129 116 130 c 0
 114 131 111 135 107 142 c 0
 106 143 104 147 100 152 c 0
 96 157 94 160 93 161 c 0
 88 167 84 172 81 177 c 0
 79 181 77 185 74 189 c 0
 65 202 59 215 55 228 c 1
 53 233 l 2
 52 235 51 237 51 238 c 2
 50 239 l 2
 50 240 48 246 43 257 c 1
 34 284 30 307 29 324 c 0
 28 331 28 335 28 335 c 1
 28 335 27 347 26 369 c 0
278 346 m 0
 278 338 278 331 279 326 c 0
 280 320 281 314 284 307 c 0
 287 300 289 296 291 295 c 0
 300 288 309 285 320 285 c 0
 321 285 321 284 322 284 c 0
 332 284 342 287 351 293 c 0
 359 298 367 309 376 325 c 1
 387 348 397 372 404 398 c 0
 411 422 414 441 414 457 c 0
 414 468 413 476 409 484 c 0
 404 496 398 504 390 507 c 0
 383 510 375 512 368 512 c 0
 356 512 344 507 333 498 c 0
 323 489 313 475 303 455 c 0
 293 435 286 415 281 394 c 0
 280 386 279 375 278 360 c 0
 278 355 278 350 278 346 c 0
EndSplineSet
Validated: 1
EndChar

StartChar: A
Encoding: 65 65 34
Width: 397
Flags: HW
LayerCount: 2
Fore
SplineSet
-8 2 m 0
 -8 3 -7 5 -6 7 c 0
 -5 12 -4 17 -3 21 c 0
 -2 28 0 33 1 37 c 0
 2 39 3 44 5 53 c 0
 8 69 12 86 17 104 c 0
 17 105 17 106 18 109 c 0
 19 112 19 115 19 116 c 0
 20 120 20 122 21 122 c 1
 21 123 22 127 24 135 c 0
 25 141 26 147 28 154 c 0
 29 159 31 166 33 175 c 0
 36 189 38 199 39 206 c 0
 40 210 43 219 46 232 c 0
 47 240 49 246 50 249 c 0
 51 254 52 259 53 263 c 0
 56 282 59 293 60 298 c 0
 62 308 63 313 64 314 c 0
 65 315 65 317 65 320 c 0
 65 323 66 325 67 328 c 0
 68 329 69 335 72 346 c 0
 75 360 77 371 79 380 c 0
 81 387 83 393 84 399 c 0
 86 413 88 423 90 430 c 0
 90 433 91 438 93 443 c 0
 93 444 93 447 94 450 c 0
 95 453 95 456 96 457 c 0
 96 458 96 460 97 463 c 0
 98 466 98 469 99 470 c 0
 104 492 107 505 108 510 c 0
 112 530 115 545 117 554 c 0
 117 557 118 562 120 567 c 1
 120 570 121 575 123 582 c 0
 124 589 125 594 126 597 c 0
 129 614 132 626 134 632 c 0
 134 635 135 638 136 644 c 0
 137 650 138 654 138 655 c 0
 138 656 139 657 140 661 c 0
 141 665 141 667 141 668 c 0
 141 669 142 672 143 679 c 0
 144 686 145 691 146 696 c 0
 147 699 148 700 149 701 c 0
 150 702 166 703 198 703 c 2
 221 703 l 1
 241 703 l 1
 248 703 l 1
 249 703 l 2
 253 703 255 698 256 688 c 0
 256 687 256 685 257 682 c 0
 258 679 258 677 258 675 c 0
 258 673 259 672 259 671 c 0
 259 670 260 664 263 653 c 0
 263 650 264 644 267 637 c 0
 268 636 269 631 270 621 c 0
 270 619 270 616 271 613 c 0
 272 610 273 608 273 606 c 0
 273 604 274 602 274 601 c 0
 275 596 276 593 276 591 c 0
 277 582 279 570 284 554 c 0
 285 553 287 542 290 520 c 0
 291 516 291 514 292 513 c 0
 293 512 293 510 294 507 c 1
 294 503 294 500 295 498 c 0
 300 483 303 472 303 465 c 0
 303 462 304 460 305 457 c 0
 310 440 313 425 315 412 c 0
 318 392 322 377 325 366 c 0
 325 365 325 363 325 361 c 0
 325 359 326 358 327 357 c 2
 328 354 l 1
 328 353 l 2
 328 351 328 349 329 346 c 0
 336 321 342 290 348 255 c 0
 349 251 349 249 350 248 c 0
 350 247 351 245 352 242 c 0
 352 239 356 223 363 194 c 0
 364 189 367 175 372 152 c 0
 372 150 374 141 378 125 c 0
 381 114 383 106 383 102 c 0
 384 98 385 92 388 83 c 0
 389 80 389 76 390 71 c 0
 391 66 392 63 392 62 c 0
 393 55 395 44 400 28 c 0
 401 23 403 16 404 8 c 0
 404 7 404 7 404 6 c 0
 404 4 403 2 400 1 c 1
 337 1 l 1
 279 1 l 1
 277 4 l 2
 276 7 276 8 276 9 c 0
 276 10 276 11 275 14 c 0
 275 15 275 17 274 20 c 0
 273 23 273 26 273 28 c 0
 268 55 265 70 263 71 c 0
 262 72 241 73 199 73 c 0
 158 73 136 72 135 71 c 0
 134 70 133 65 131 55 c 0
 127 24 124 7 121 4 c 1
 120 -0 l 1
 63 -0 l 2
 44 0 29 -1 19 -1 c 0
 9 -1 3 0 1 -0 c 0
 -5 0 -8 0 -8 2 c 0
151 164 m 0
 151 162 151 161 152 161 c 0
 154 160 170 159 200 159 c 0
 231 159 247 160 248 162 c 0
 249 163 249 164 249 166 c 2
 247 175 l 2
 247 177 246 181 245 186 c 0
 244 191 244 194 244 195 c 0
 243 197 242 202 240 211 c 0
 238 220 237 226 236 230 c 0
 235 233 233 243 230 260 c 0
 229 263 228 271 226 285 c 0
 225 298 223 306 222 308 c 0
 221 309 221 312 220 317 c 0
 220 318 219 324 217 334 c 0
 216 341 215 345 215 347 c 2
 213 357 l 2
 212 366 211 374 210 379 c 0
 209 390 207 398 205 402 c 0
 204 405 204 409 203 413 c 0
 202 415 201 417 200 417 c 0
 199 417 199 416 198 416 c 0
 195 411 192 397 189 375 c 0
 188 367 187 359 185 351 c 0
 185 350 184 344 182 335 c 0
 182 333 181 329 180 323 c 0
 179 317 179 313 178 312 c 0
 177 309 176 305 175 300 c 0
 174 295 174 293 174 292 c 0
 173 285 172 277 170 267 c 0
 169 264 169 261 168 257 c 0
 167 253 167 251 166 248 c 0
 165 245 165 243 165 242 c 0
 165 241 165 238 164 234 c 0
 163 230 163 229 163 228 c 0
 160 210 157 199 156 194 c 0
 155 187 154 182 153 179 c 0
 152 172 151 167 151 164 c 0
EndSplineSet
Validated: 1
EndChar

StartChar: B
Encoding: 66 66 35
Width: 434
Flags: HW
LayerCount: 2
Fore
SplineSet
43 2 m 1
 43 352 l 1
 44 585 46 702 46 702 c 2
 47 702 69 703 114 703 c 0
 159 703 186 703 196 702 c 0
 222 700 238 698 245 697 c 0
 246 697 249 696 252 695 c 0
 255 694 258 693 260 693 c 0
 276 690 292 683 309 674 c 0
 326 665 338 656 347 646 c 0
 358 634 368 620 375 605 c 0
 379 597 384 582 389 561 c 0
 390 556 392 545 392 531 c 0
 392 517 392 507 391 501 c 0
 386 474 379 453 370 437 c 1
 365 426 358 414 350 404 c 0
 342 394 334 387 328 383 c 0
 323 380 320 377 319 375 c 0
 319 374 324 369 335 362 c 0
 345 356 355 348 364 339 c 0
 373 330 381 321 386 312 c 1
 395 299 400 288 402 280 c 2
 406 266 l 2
 406 265 407 263 408 260 c 0
 409 257 410 256 410 254 c 0
 410 252 410 251 410 250 c 0
 411 244 411 229 412 206 c 1
 412 181 411 163 408 154 c 0
 403 132 393 109 379 85 c 0
 374 76 365 65 352 54 c 0
 339 43 328 35 318 30 c 0
 314 28 306 25 292 20 c 0
 278 15 268 12 263 11 c 0
 245 7 228 5 211 4 c 0
 194 3 166 2 125 1 c 1
 46 1 l 1
 43 2 l 1
162 213 m 2
 162 144 162 109 163 107 c 1
 163 107 164 107 165 107 c 0
 168 107 174 107 183 108 c 0
 195 110 204 112 209 113 c 0
 230 119 245 127 254 137 c 0
 265 149 273 160 276 171 c 0
 277 173 277 175 278 178 c 0
 279 181 279 183 280 185 c 2
 281 188 l 2
 282 191 284 197 284 208 c 0
 284 212 284 215 284 218 c 0
 284 224 283 228 283 230 c 0
 283 231 283 234 282 239 c 0
 281 244 280 247 279 249 c 0
 274 271 261 289 239 304 c 0
 232 308 226 311 219 313 c 0
 212 315 201 318 185 320 c 0
 177 321 172 322 171 322 c 0
 170 323 168 322 165 320 c 2
 162 317 l 1
 162 213 l 2
162 462 m 0
 162 439 162 427 163 426 c 0
 164 424 168 423 175 423 c 0
 179 423 184 424 189 424 c 0
 200 425 210 428 218 431 c 0
 241 440 255 456 262 479 c 0
 265 489 266 500 266 511 c 0
 266 520 266 529 264 538 c 0
 260 559 251 573 240 581 c 1
 231 586 224 590 219 591 c 0
 218 591 217 591 214 592 c 0
 211 593 210 593 209 594 c 0
 208 595 202 596 191 598 c 0
 183 600 177 600 172 600 c 0
 169 600 166 600 165 599 c 0
 164 598 163 587 163 565 c 0
 162 519 162 485 162 462 c 0
EndSplineSet
Validated: 1
EndChar

StartChar: C
Encoding: 67 67 36
Width: 354
Flags: HW
LayerCount: 2
Fore
SplineSet
30 296 m 0
 30 298 30 303 30 310 c 0
 30 317 30 326 30 337 c 0
 30 343 30 349 30 356 c 0
 31 390 32 414 33 425 c 0
 34 437 35 459 38 490 c 0
 39 503 40 510 40 511 c 0
 40 512 41 517 43 525 c 2
 48 542 l 2
 49 546 50 550 51 554 c 0
 56 569 58 578 59 581 c 2
 60 584 l 2
 61 587 62 589 64 593 c 0
 66 597 68 601 69 604 c 0
 74 615 77 624 80 629 c 0
 89 642 96 651 102 658 c 0
 107 664 110 667 110 668 c 0
 111 669 115 672 122 678 c 0
 129 684 132 686 133 686 c 2
 134 687 l 1
 135 688 l 2
 136 688 137 688 138 689 c 0
 146 695 156 700 167 703 c 0
 178 707 193 710 212 711 c 0
 214 711 216 711 218 711 c 0
 229 711 241 710 254 707 c 0
 269 703 282 698 291 691 c 0
 292 690 293 690 295 689 c 0
 297 688 299 687 302 685 c 0
 305 683 307 682 308 681 c 0
 314 677 319 674 323 670 c 0
 327 666 332 663 335 661 c 0
 338 659 340 655 340 652 c 0
 340 649 339 646 336 643 c 0
 333 640 331 636 328 632 c 1
 326 627 325 625 324 624 c 0
 321 622 316 615 308 602 c 0
 303 593 299 587 297 584 c 0
 293 578 290 573 288 570 c 0
 285 565 283 563 281 563 c 0
 279 563 277 563 274 566 c 0
 271 569 266 573 259 577 c 0
 252 581 247 584 243 585 c 0
 238 587 233 588 227 588 c 0
 221 588 216 587 210 585 c 0
 205 584 199 580 194 574 c 0
 188 567 184 560 181 555 c 0
 177 546 172 527 167 496 c 0
 163 473 161 447 161 417 c 0
 161 402 160 391 159 384 c 0
 158 378 158 367 158 350 c 0
 158 333 158 322 159 316 c 0
 160 310 161 296 162 274 c 0
 162 255 163 235 165 216 c 0
 167 197 169 186 170 185 c 0
 171 184 171 182 171 179 c 0
 171 176 172 170 174 161 c 0
 176 152 179 146 180 143 c 0
 180 142 181 141 182 138 c 2
 185 132 l 2
 186 129 189 125 194 121 c 0
 199 117 203 114 206 112 c 0
 209 111 215 110 225 109 c 1
 239 109 252 114 264 125 c 0
 273 133 279 136 282 133 c 1
 285 132 288 127 292 119 c 0
 301 105 308 93 315 84 c 0
 316 83 319 78 324 71 c 0
 325 70 326 68 328 64 c 0
 330 60 333 57 334 55 c 0
 337 50 338 46 338 44 c 0
 338 41 331 35 318 24 c 0
 305 13 294 5 284 0 c 0
 267 -9 246 -13 222 -14 c 0
 218 -14 215 -14 211 -14 c 0
 177 -14 146 -4 120 18 c 0
 115 22 111 26 108 30 c 0
 107 31 105 33 102 36 c 0
 99 39 98 40 98 41 c 0
 81 60 67 89 55 126 c 0
 52 136 49 142 48 145 c 0
 47 153 46 158 46 161 c 0
 46 162 45 168 42 179 c 0
 37 199 33 229 32 268 c 0
 32 271 32 277 31 284 c 0
 30 291 30 295 30 296 c 0
EndSplineSet
Validated: 1
EndChar

StartChar: D
Encoding: 68 68 37
Width: 447
Flags: HW
LayerCount: 2
Fore
SplineSet
43 54 m 0
 43 63 43 72 43 83 c 0
 43 102 44 203 44 387 c 0
 44 571 44 671 44 687 c 0
 44 696 45 701 46 702 c 0
 47 703 54 704 65 704 c 0
 79 704 100 703 130 701 c 1
 165 700 189 699 201 697 c 0
 213 695 226 692 243 687 c 0
 255 683 263 681 267 680 c 0
 276 677 288 671 302 661 c 0
 314 653 328 641 342 626 c 0
 356 611 364 600 365 594 c 1
 367 589 369 586 370 583 c 0
 375 576 381 562 389 541 c 0
 399 512 405 495 405 487 c 2
 405 486 l 2
 405 483 406 481 407 479 c 0
 407 478 407 476 408 473 c 0
 409 470 409 467 410 465 c 1
 410 462 411 455 414 444 c 0
 416 433 417 405 417 362 c 0
 417 303 415 266 412 251 c 0
 411 247 410 240 408 231 c 1
 406 210 399 186 388 161 c 0
 387 157 385 153 382 148 c 0
 379 141 376 133 371 124 c 0
 366 113 363 107 363 106 c 0
 363 103 356 94 342 79 c 0
 328 64 317 52 308 45 c 0
 302 40 294 36 282 30 c 0
 270 24 262 20 257 19 c 0
 254 18 246 16 234 13 c 0
 233 13 227 12 214 9 c 0
 212 9 208 9 202 8 c 0
 196 7 192 6 190 6 c 0
 183 5 176 4 170 4 c 0
 163 4 159 3 156 2 c 0
 153 1 134 1 100 1 c 0
 66 1 48 1 46 2 c 0
 44 3 43 20 43 54 c 0
169 221 m 0
 169 151 170 116 170 116 c 1
 170 116 171 115 174 115 c 0
 175 115 177 116 179 116 c 0
 185 116 190 117 194 118 c 2
 206 121 l 2
 215 123 224 128 234 136 c 0
 248 147 261 168 272 199 c 0
 276 212 279 224 281 235 c 0
 284 256 287 272 288 285 c 0
 288 292 289 300 290 310 c 0
 291 317 292 331 292 352 c 0
 292 356 292 360 292 364 c 0
 292 379 291 390 290 397 c 0
 286 437 284 458 283 460 c 0
 282 461 281 466 280 474 c 0
 279 482 276 491 272 503 c 0
 264 529 254 548 241 560 c 1
 236 566 230 571 224 575 c 0
 218 579 212 581 209 581 c 0
 208 581 206 581 205 582 c 0
 202 583 200 584 197 585 c 0
 196 585 194 585 191 586 c 0
 188 587 186 588 185 588 c 0
 180 589 177 590 174 590 c 0
 172 590 170 589 170 588 c 2
 170 588 170 509 170 352 c 0
 170 300 169 256 169 221 c 0
EndSplineSet
Validated: 1
EndChar

StartChar: E
Encoding: 69 69 38
Width: 334
Flags: HW
LayerCount: 2
Fore
SplineSet
43 14 m 0
 43 469 45 701 45 701 c 1
 45 701 65 702 103 702 c 0
 122 702 147 701 176 701 c 0
 262 701 306 701 307 700 c 0
 308 700 308 691 308 675 c 0
 308 667 308 656 308 644 c 0
 308 618 307 602 307 597 c 0
 307 592 306 589 305 588 c 0
 304 587 294 587 276 587 c 0
 267 587 256 587 242 587 c 0
 226 587 214 587 203 587 c 0
 182 587 171 587 170 586 c 0
 169 585 169 561 168 512 c 0
 168 464 168 439 169 438 c 0
 170 437 179 437 198 437 c 0
 207 437 219 437 233 437 c 0
 247 437 259 437 268 437 c 0
 287 437 296 437 297 436 c 0
 298 435 299 416 299 379 c 0
 299 342 298 323 297 322 c 0
 296 321 287 321 268 321 c 0
 259 321 247 321 233 321 c 0
 192 321 170 321 169 320 c 0
 168 319 168 285 168 218 c 0
 168 151 168 117 169 116 c 0
 170 115 182 114 208 114 c 0
 225 114 248 114 276 115 c 0
 281 115 286 116 291 116 c 0
 296 116 299 116 302 116 c 2
 308 116 l 2
 309 116 309 97 309 58 c 2
 309 0 l 1
 177 0 l 2
 90 0 45 0 44 1 c 0
 43 2 43 6 43 14 c 0
EndSplineSet
Validated: 1
EndChar

StartChar: F
Encoding: 70 70 39
Width: 336
Flags: HW
LayerCount: 2
Fore
SplineSet
46 14 m 0
 46 16 46 20 46 26 c 0
 46 37 47 55 47 79 c 0
 47 105 47 221 48 427 c 0
 49 609 49 701 50 703 c 0
 51 704 66 705 95 705 c 1
 108 704 152 704 226 703 c 0
 284 702 313 702 314 701 c 0
 315 700 315 682 316 645 c 0
 316 618 315 601 315 596 c 0
 315 591 314 588 313 587 c 0
 310 586 307 585 304 586 c 0
 299 587 276 587 237 588 c 0
 217 588 201 588 191 588 c 0
 181 588 175 588 175 588 c 1
 174 587 173 562 173 513 c 0
 173 497 173 483 173 472 c 0
 173 450 173 439 174 439 c 0
 175 438 196 438 237 438 c 0
 251 438 263 438 272 438 c 0
 291 438 301 438 302 437 c 0
 303 436 303 427 303 410 c 0
 303 402 303 391 303 379 c 0
 303 352 302 336 302 331 c 0
 302 326 301 323 300 322 c 0
 298 321 295 320 290 320 c 0
 285 321 265 321 231 322 c 1
 205 322 l 1
 184 322 l 1
 177 323 l 2
 176 323 175 322 174 320 c 0
 173 318 172 316 172 314 c 0
 172 312 172 309 172 306 c 0
 173 301 173 249 173 151 c 0
 173 53 173 3 172 2 c 0
 171 1 151 1 111 1 c 0
 71 1 51 2 49 3 c 0
 48 4 46 7 46 14 c 0
EndSplineSet
Validated: 1
EndChar

StartChar: G
Encoding: 71 71 40
Width: 449
Flags: HW
LayerCount: 2
Fore
SplineSet
30 348 m 0
 30 355 30 362 30 368 c 0
 30 391 31 406 32 412 c 0
 33 419 33 428 34 440 c 0
 35 460 38 479 41 496 c 0
 41 497 41 500 42 504 c 0
 43 508 43 511 44 512 c 0
 49 541 56 565 63 582 c 0
 64 584 65 588 68 593 c 0
 73 605 80 620 91 637 c 0
 95 644 102 652 112 663 c 0
 122 674 131 682 138 687 c 0
 157 700 179 709 206 713 c 0
 210 713 215 714 222 714 c 0
 226 714 230 714 234 714 c 0
 247 714 255 713 257 712 c 0
 259 711 263 710 270 708 c 0
 279 706 291 701 305 693 c 0
 319 685 331 677 340 668 c 0
 353 656 363 644 370 632 c 0
 386 607 394 592 394 587 c 0
 394 583 384 577 364 570 c 0
 351 565 336 559 319 551 c 2
 307 546 l 2
 306 546 303 545 298 542 c 0
 289 537 282 535 279 537 c 0
 278 538 276 542 273 549 c 0
 266 567 258 579 247 585 c 0
 238 589 231 591 224 591 c 0
 221 591 218 591 216 590 c 0
 201 585 191 577 185 565 c 0
 178 551 173 536 171 521 c 0
 170 514 169 508 168 503 c 0
 164 482 162 443 161 386 c 0
 161 375 161 364 161 353 c 0
 161 311 162 275 164 246 c 0
 165 230 166 221 167 218 c 1
 167 216 l 1
 168 215 169 213 169 211 c 0
 169 209 169 207 169 206 c 0
 170 199 171 195 171 194 c 0
 171 193 172 189 173 182 c 0
 176 159 182 141 192 128 c 0
 198 120 206 115 216 113 c 0
 226 111 235 112 245 116 c 0
 250 119 257 125 263 135 c 0
 269 145 273 154 275 165 c 0
 275 166 276 168 277 171 c 0
 278 174 278 176 279 177 c 0
 280 180 281 186 282 194 c 0
 283 202 284 206 285 207 c 0
 285 208 286 215 287 229 c 0
 288 241 288 249 288 252 c 1
 289 254 290 266 290 288 c 0
 290 295 290 302 290 307 c 0
 290 318 289 324 289 326 c 2
 289 330 l 1
 258 331 l 1
 228 331 l 1
 227 386 l 2
 227 398 227 409 227 417 c 0
 227 434 227 442 228 443 c 0
 229 444 260 444 321 444 c 0
 382 444 414 443 415 442 c 0
 416 442 416 429 416 404 c 0
 416 392 416 377 416 359 c 0
 415 304 414 273 413 268 c 0
 413 267 413 260 412 248 c 0
 412 239 411 230 410 222 c 0
 410 221 409 219 409 217 c 0
 409 215 409 213 409 212 c 2
 409 209 l 2
 409 202 407 190 404 174 c 0
 403 168 402 164 402 162 c 0
 401 155 397 142 390 123 c 0
 383 104 377 91 372 82 c 0
 363 66 351 51 337 36 c 0
 322 21 307 11 293 5 c 0
 292 4 289 4 287 3 c 0
 285 2 283 1 281 0 c 0
 279 -1 279 -1 278 -2 c 0
 275 -3 271 -4 267 -5 c 0
 262 -6 258 -7 253 -8 c 0
 249 -9 242 -10 231 -10 c 0
 228 -10 225 -9 222 -9 c 0
 206 -9 195 -8 188 -7 c 0
 176 -4 168 -2 163 0 c 0
 160 1 156 4 150 8 c 0
 144 12 140 13 139 14 c 0
 135 16 127 23 115 35 c 0
 103 47 96 56 92 62 c 0
 86 72 79 86 71 103 c 0
 63 120 59 131 59 135 c 0
 59 136 59 138 58 139 c 0
 56 142 53 151 50 165 c 0
 50 168 49 172 47 177 c 0
 41 202 36 234 33 274 c 0
 32 289 30 314 30 348 c 0
EndSplineSet
Validated: 1
EndChar

StartChar: H
Encoding: 72 72 41
Width: 454
Flags: HW
LayerCount: 2
Fore
SplineSet
43 692 m 0
 43 696 44 699 46 701 c 0
 47 702 57 702 75 702 c 0
 84 702 96 702 109 702 c 0
 150 701 170 701 171 700 c 0
 173 699 174 691 173 677 c 0
 172 663 172 624 171 559 c 0
 170 494 170 458 170 451 c 0
 171 444 171 441 172 440 c 0
 173 439 191 439 228 439 c 0
 240 439 252 438 260 438 c 0
 277 438 285 439 286 439 c 0
 287 439 287 450 287 472 c 0
 287 505 286 562 285 644 c 0
 285 678 286 696 287 698 c 0
 288 699 309 700 349 701 c 1
 390 700 410 700 410 699 c 2
 410 699 411 583 412 350 c 0
 412 118 410 0 410 0 c 2
 409 -1 388 -1 348 -1 c 0
 308 -1 288 -1 286 0 c 0
 285 0 285 13 285 37 c 0
 285 49 285 64 285 82 c 0
 286 162 287 222 287 262 c 0
 287 302 286 322 285 323 c 0
 284 324 264 324 227 324 c 2
 170 324 l 1
 170 258 l 2
 170 244 170 216 171 173 c 0
 172 130 172 105 172 98 c 0
 172 36 172 4 171 2 c 0
 170 0 149 0 110 0 c 0
 70 0 49 1 47 2 c 2
 44 4 l 1
 45 99 l 2
 45 148 46 224 46 328 c 0
 46 432 46 484 46 485 c 0
 46 487 46 516 45 572 c 0
 45 625 45 660 44 676 c 0
 44 683 43 689 43 692 c 0
EndSplineSet
Validated: 1
EndChar

StartChar: I
Encoding: 73 73 42
Width: 225
Flags: HW
LayerCount: 2
Fore
SplineSet
49 74 m 0
 49 109 50 213 50 386 c 0
 50 444 50 493 50 533 c 0
 50 614 49 660 49 672 c 0
 49 689 50 699 51 701 c 0
 52 702 73 703 112 703 c 0
 151 703 172 703 174 702 c 1
 174 702 176 586 176 353 c 0
 176 121 175 3 175 3 c 2
 174 2 154 1 114 1 c 0
 74 1 52 2 51 4 c 0
 50 5 49 29 49 74 c 0
EndSplineSet
Validated: 1
EndChar

StartChar: J
Encoding: 74 74 43
Width: 285
Flags: HW
LayerCount: 2
Fore
SplineSet
9 61 m 0
 9 98 10 118 12 121 c 0
 13 123 17 123 23 121 c 0
 24 121 25 121 26 120 c 0
 41 114 54 112 66 112 c 0
 81 112 92 116 101 125 c 0
 106 129 109 133 110 138 c 0
 111 143 113 153 116 168 c 0
 117 173 117 262 117 437 c 0
 117 612 118 701 119 702 c 0
 120 703 141 704 180 704 c 0
 219 704 240 704 242 703 c 0
 243 703 243 665 243 591 c 0
 243 554 243 508 243 452 c 0
 243 245 242 136 240 126 c 0
 237 97 230 74 221 57 c 0
 216 48 212 41 207 36 c 0
 202 31 195 25 186 19 c 0
 171 10 158 3 146 -1 c 0
 129 -7 110 -10 88 -10 c 0
 72 -10 55 -8 37 -5 c 0
 32 -4 27 -3 21 -2 c 0
 17 -2 14 -1 11 0 c 0
 10 1 9 22 9 61 c 0
EndSplineSet
Validated: 1
EndChar

StartChar: K
Encoding: 75 75 44
Width: 369
Flags: HW
LayerCount: 2
Fore
SplineSet
43 20 m 0
 44 30 44 145 44 366 c 2
 44 471 l 1
 44 564 l 2
 44 590 44 614 44 635 c 0
 44 656 45 673 45 684 c 2
 45 701 l 2
 45 702 48 702 54 703 c 1
 112 703 l 2
 145 703 162 702 163 700 c 0
 164 699 165 688 165 666 c 0
 165 659 164 650 164 639 c 0
 164 628 164 621 164 620 c 0
 163 603 162 573 162 533 c 0
 162 493 162 472 162 469 c 2
 163 466 l 2
 164 465 164 465 165 465 c 0
 166 466 167 469 171 477 c 0
 175 485 177 490 177 491 c 0
 177 492 178 493 179 496 c 1
 182 499 187 515 196 542 c 0
 196 543 198 549 203 560 c 0
 206 566 208 570 209 571 c 0
 209 572 211 578 215 590 c 0
 219 603 224 614 229 625 c 0
 235 639 240 653 245 667 c 0
 251 682 254 692 256 695 c 0
 258 698 260 700 262 701 c 0
 265 702 283 702 317 702 c 0
 351 702 370 703 373 703 c 0
 377 702 378 700 378 697 c 0
 378 694 376 688 373 680 c 0
 372 678 371 676 370 673 c 2
 367 667 l 1
 366 665 l 2
 366 664 364 659 359 650 c 0
 354 641 351 634 349 629 c 0
 349 628 346 623 341 612 c 0
 338 606 336 601 334 596 c 0
 332 591 329 584 325 576 c 2
 319 562 l 2
 319 561 317 556 312 547 c 0
 311 545 310 542 309 539 c 0
 308 536 306 534 305 532 c 0
 304 530 304 530 304 529 c 0
 303 525 301 520 298 515 c 1
 293 502 290 494 289 493 c 0
 284 482 280 473 276 466 c 0
 271 457 269 451 269 449 c 0
 269 448 270 445 272 438 c 0
 274 430 275 425 276 424 c 0
 277 415 278 408 281 405 c 1
 284 400 286 390 288 375 c 0
 289 372 289 370 290 369 c 0
 291 369 291 367 292 364 c 1
 292 358 295 344 302 322 c 0
 305 311 307 306 306 305 c 0
 305 304 306 303 307 300 c 0
 308 298 309 296 309 294 c 0
 309 292 310 290 311 289 c 0
 312 286 313 283 313 282 c 0
 313 279 314 274 315 269 c 0
 316 264 318 257 320 250 c 0
 321 246 325 231 332 204 c 0
 333 202 334 195 337 182 c 0
 342 164 347 145 353 126 c 0
 357 112 359 102 360 95 c 2
 362 87 l 2
 363 82 366 71 371 54 c 1
 373 43 375 35 376 32 c 0
 379 27 381 19 382 10 c 0
 382 6 381 3 380 2 c 0
 379 2 370 1 353 1 c 0
 344 1 334 2 321 2 c 0
 283 2 265 2 264 3 c 0
 263 4 260 13 257 30 c 0
 256 33 255 37 254 42 c 0
 251 53 247 70 242 92 c 0
 242 93 239 108 233 136 c 0
 233 137 232 139 231 142 c 0
 230 145 230 147 230 148 c 0
 228 157 226 165 225 171 c 0
 224 174 223 177 222 180 c 0
 221 183 221 186 220 189 c 0
 219 192 219 193 219 194 c 0
 217 204 214 217 210 234 c 0
 207 246 206 254 205 258 c 0
 204 265 203 271 201 278 c 1
 200 286 198 293 196 300 c 0
 194 307 193 311 192 313 c 0
 191 315 189 315 188 314 c 0
 185 311 182 306 178 299 c 0
 177 297 174 294 172 289 c 0
 170 284 169 282 168 281 c 0
 165 274 162 267 162 259 c 0
 162 251 162 231 162 200 c 0
 163 149 163 107 163 76 c 0
 163 29 162 5 161 4 c 0
 160 3 140 2 103 1 c 0
 66 1 46 2 44 4 c 0
 43 5 43 11 43 20 c 0
EndSplineSet
Validated: 1
EndChar

StartChar: L
Encoding: 76 76 45
Width: 315
Flags: HW
LayerCount: 2
Fore
SplineSet
46 134 m 0
 46 153 46 205 46 289 c 0
 46 373 47 437 47 481 c 0
 48 627 49 700 49 700 c 2
 50 701 71 701 111 701 c 0
 152 701 172 700 172 699 c 0
 173 697 173 662 173 595 c 0
 173 579 172 482 171 305 c 2
 170 117 l 1
 174 115 l 2
 176 114 179 113 183 114 c 0
 188 115 211 115 250 116 c 2
 310 117 l 1
 311 113 l 1
 311 57 l 2
 311 22 311 4 310 3 c 0
 307 1 289 0 255 0 c 0
 238 0 196 0 129 1 c 0
 76 1 48 1 47 2 c 0
 46 3 46 47 46 134 c 0
EndSplineSet
Validated: 1
EndChar

StartChar: M
Encoding: 77 77 46
Width: 547
Flags: HW
LayerCount: 2
Fore
SplineSet
43 44 m 0
 44 71 44 187 44 391 c 0
 44 598 45 703 45 703 c 2
 46 704 63 704 97 704 c 0
 131 703 149 703 151 702 c 0
 153 701 155 700 156 697 c 0
 156 696 156 696 157 694 c 0
 158 692 159 690 160 688 c 0
 161 686 161 683 162 681 c 0
 165 674 167 668 168 664 c 0
 170 656 175 642 183 621 c 0
 186 613 189 604 194 593 c 1
 197 583 199 578 200 577 c 0
 201 576 203 571 206 561 c 0
 207 558 208 555 210 550 c 2
 213 542 l 2
 215 539 217 532 219 523 c 1
 221 518 l 2
 222 514 224 511 225 508 c 0
 226 505 230 495 236 478 c 0
 246 451 253 433 256 423 c 0
 259 414 261 407 262 403 c 0
 263 399 265 394 268 387 c 0
 271 380 273 377 274 377 c 0
 275 377 277 378 279 380 c 0
 281 382 282 384 282 385 c 0
 282 386 284 392 287 402 c 0
 290 410 295 422 301 439 c 0
 302 440 303 444 305 450 c 0
 307 456 308 459 309 461 c 0
 312 468 313 474 314 477 c 0
 317 488 322 502 330 519 c 0
 331 520 333 527 336 538 c 2
 342 556 l 2
 343 558 344 562 347 568 c 0
 347 569 348 570 349 572 c 0
 350 574 350 576 351 578 c 0
 352 580 352 582 353 583 c 0
 362 602 369 623 376 647 c 0
 378 654 381 663 385 673 c 0
 390 685 392 692 393 695 c 0
 394 698 395 700 396 701 c 0
 397 702 415 702 449 702 c 0
 460 702 469 703 477 703 c 0
 493 703 501 702 502 702 c 0
 503 702 505 686 505 653 c 0
 505 620 505 520 505 352 c 0
 505 184 505 84 505 51 c 0
 505 18 503 2 502 1 c 0
 500 0 481 0 446 -0 c 0
 410 0 391 1 390 3 c 0
 389 4 389 20 389 52 c 0
 389 94 389 164 391 261 c 0
 391 292 392 317 392 334 c 0
 392 343 392 350 392 357 c 0
 392 364 392 371 392 376 c 0
 392 387 391 393 391 396 c 0
 391 399 389 401 388 401 c 0
 386 401 374 372 351 314 c 0
 349 308 346 301 343 295 c 0
 340 289 338 285 338 283 c 0
 338 282 337 280 336 279 c 0
 331 268 328 260 327 255 c 2
 326 252 l 2
 325 251 325 248 324 246 c 0
 323 244 322 242 321 240 c 0
 320 238 320 236 319 233 c 0
 318 230 316 227 315 224 c 0
 314 221 313 218 312 216 c 0
 308 205 305 198 304 195 c 2
 300 185 l 2
 300 184 298 179 295 171 c 0
 295 170 292 163 287 150 c 0
 285 144 283 140 281 138 c 0
 279 136 275 137 272 138 c 0
 267 139 263 146 260 157 c 0
 259 158 259 161 257 166 c 0
 255 171 254 174 253 176 c 0
 252 178 252 180 251 183 c 0
 250 186 250 187 249 189 c 0
 248 191 248 192 248 193 c 2
 247 196 l 2
 246 198 246 199 245 201 c 0
 244 203 244 205 243 206 c 0
 240 212 238 217 236 220 c 1
 235 225 234 228 233 230 c 0
 232 231 230 237 226 248 c 0
 222 258 219 264 218 267 c 0
 216 270 214 274 213 279 c 0
 210 287 208 293 206 298 c 0
 203 307 201 312 201 313 c 0
 200 315 199 318 196 322 c 0
 193 327 191 332 190 337 c 0
 187 346 185 352 182 357 c 0
 181 358 180 362 178 369 c 0
 177 375 174 382 169 389 c 1
 165 398 162 402 161 402 c 0
 158 402 157 386 157 353 c 2
 157 351 l 2
 157 299 158 206 160 72 c 0
 160 57 160 44 160 34 c 0
 160 14 160 3 159 2 c 0
 158 1 139 1 102 1 c 0
 65 1 46 2 45 4 c 0
 44 6 43 19 43 44 c 0
EndSplineSet
Validated: 1
EndChar

StartChar: N
Encoding: 78 78 47
Width: 437
Flags: HW
LayerCount: 2
Fore
SplineSet
43 60 m 0
 43 78 43 101 43 128 c 0
 43 188 43 255 43 328 c 0
 43 401 43 480 43 565 c 0
 43 654 44 700 45 701 c 0
 46 702 53 702 68 702 c 0
 75 702 84 702 95 702 c 0
 119 702 133 702 137 702 c 0
 141 702 145 700 146 698 c 0
 148 696 149 693 149 690 c 0
 152 675 156 663 160 654 c 2
 163 648 l 1
 164 644 l 2
 165 641 167 633 172 620 c 0
 179 602 182 592 183 590 c 0
 184 586 186 581 189 574 c 0
 192 568 194 561 196 554 c 0
 199 545 201 540 203 538 c 1
 204 535 205 531 206 526 c 0
 208 513 212 500 218 487 c 0
 219 486 222 477 227 462 c 0
 230 453 233 445 236 437 c 0
 238 433 248 406 265 355 c 0
 268 346 269 341 270 340 c 0
 271 340 272 338 273 333 c 0
 274 328 276 325 279 326 c 1
 280 327 l 2
 281 328 281 342 281 370 c 0
 281 398 281 440 280 496 c 0
 279 585 279 645 279 675 c 0
 279 690 279 698 279 698 c 1
 280 700 282 701 285 702 c 0
 286 702 305 702 342 703 c 1
 395 702 l 1
 395 353 l 2
 395 119 393 1 393 1 c 1
 393 1 385 0 371 0 c 0
 364 0 355 1 345 1 c 0
 314 1 298 1 297 2 c 0
 296 3 295 7 292 14 c 0
 291 17 289 21 287 28 c 0
 285 35 284 39 283 40 c 0
 279 51 276 60 274 65 c 0
 271 75 268 82 267 85 c 0
 266 88 263 97 257 113 c 0
 256 116 254 121 252 127 c 0
 250 133 250 135 249 136 c 0
 248 140 246 144 245 147 c 0
 244 151 243 156 240 162 c 0
 238 168 237 172 236 173 c 0
 236 174 235 178 232 185 c 0
 232 186 230 190 227 199 c 0
 226 202 224 209 219 221 c 0
 217 226 215 233 212 240 c 0
 212 241 212 243 211 245 c 0
 210 247 210 248 209 249 c 0
 208 252 207 255 206 260 c 0
 204 272 200 283 195 292 c 0
 194 293 192 299 189 308 c 0
 187 316 185 322 183 325 c 0
 180 332 179 337 178 339 c 0
 175 348 171 359 166 373 c 0
 163 380 160 382 157 377 c 1
 157 375 l 2
 157 372 156 359 156 335 c 0
 156 288 157 200 159 70 c 0
 159 55 159 43 159 33 c 0
 159 13 159 2 158 1 c 0
 157 0 138 0 102 0 c 0
 65 0 46 1 44 3 c 0
 43 4 43 23 43 60 c 0
EndSplineSet
Validated: 1
EndChar

StartChar: O
Encoding: 79 79 48
Width: 438
Flags: HW
LayerCount: 2
Fore
SplineSet
30 354 m 0
 30 387 31 411 32 425 c 0
 36 474 42 511 50 537 c 0
 50 538 50 538 50 539 c 0
 50 540 51 541 51 542 c 0
 51 543 52 543 52 544 c 0
 52 545 53 552 57 564 c 0
 61 576 64 584 65 587 c 0
 66 592 70 601 77 615 c 0
 78 618 83 626 92 640 c 0
 101 653 109 664 118 673 c 0
 139 692 161 704 185 708 c 0
 186 708 188 708 192 708 c 0
 196 708 199 709 200 709 c 0
 207 710 213 710 220 710 c 0
 229 710 240 710 250 708 c 0
 265 705 276 702 283 698 c 0
 285 697 287 696 289 695 c 0
 292 694 295 693 300 690 c 1
 303 687 306 686 307 686 c 0
 308 686 310 684 313 680 c 0
 318 675 321 672 323 671 c 0
 326 669 328 667 330 664 c 0
 331 661 334 658 337 655 c 0
 340 652 343 647 347 641 c 0
 351 635 353 631 353 630 c 0
 353 628 357 620 366 606 c 1
 368 601 369 598 370 596 c 2
 372 591 l 2
 373 587 374 584 375 581 c 0
 384 555 389 541 389 538 c 0
 389 537 389 537 389 537 c 1
 390 535 l 1
 390 530 l 1
 393 521 398 496 404 455 c 0
 406 442 407 411 408 360 c 0
 408 321 408 295 407 281 c 0
 406 267 404 244 399 209 c 1
 398 194 396 184 393 178 c 1
 392 171 391 167 390 166 c 0
 389 159 388 154 387 153 c 0
 386 148 384 141 381 134 c 0
 374 113 367 94 360 79 c 0
 353 66 348 56 344 51 c 0
 340 46 334 39 326 31 c 0
 321 25 314 19 306 13 c 0
 298 7 293 4 291 4 c 0
 290 4 289 3 286 1 c 0
 281 -3 270 -6 253 -9 c 0
 242 -11 230 -12 217 -12 c 0
 214 -12 211 -12 208 -12 c 0
 191 -11 178 -9 169 -5 c 0
 164 -3 162 -2 161 -2 c 0
 160 -2 153 1 140 8 c 0
 131 13 122 20 112 31 c 0
 102 42 93 53 87 64 c 0
 85 67 82 74 77 85 c 0
 72 96 69 103 69 104 c 2
 66 111 l 1
 57 129 52 148 49 168 c 0
 48 175 47 179 46 182 c 0
 44 189 41 206 37 233 c 0
 35 247 34 260 33 272 c 0
 32 284 32 292 31 296 c 0
 30 301 30 321 30 354 c 0
153 339 m 0
 153 333 153 329 154 326 c 0
 154 323 155 309 157 282 c 0
 159 231 163 191 170 162 c 0
 175 145 182 131 191 120 c 0
 197 113 207 110 220 110 c 0
 231 110 239 113 245 120 c 0
 256 132 265 153 272 182 c 0
 273 189 275 202 277 220 c 0
 279 238 280 249 280 252 c 0
 279 257 280 264 281 274 c 0
 282 284 283 309 283 350 c 0
 283 358 283 365 283 372 c 0
 283 399 282 416 281 422 c 0
 280 426 280 432 280 439 c 0
 280 445 280 451 279 458 c 0
 278 467 277 473 277 474 c 0
 277 475 276 483 274 499 c 0
 272 515 270 524 269 527 c 0
 268 532 266 536 265 540 c 0
 262 553 258 563 251 570 c 0
 246 576 240 580 233 583 c 0
 228 585 223 586 218 586 c 0
 215 586 211 586 208 585 c 0
 204 584 199 581 192 574 c 0
 185 567 180 559 177 552 c 0
 174 545 170 530 165 508 c 0
 165 507 164 500 162 489 c 1
 161 476 160 468 160 465 c 0
 159 455 158 439 157 417 c 0
 156 406 155 387 154 359 c 0
 153 351 153 345 153 339 c 0
EndSplineSet
Validated: 1
EndChar

StartChar: P
Encoding: 80 80 49
Width: 406
Flags: HW
LayerCount: 2
Fore
SplineSet
43 346 m 1
 43 424 l 1
 43 497 l 1
 43 561 l 1
 43 616 l 1
 43 656 l 1
 43 684 l 1
 43 694 l 2
 43 698 44 700 45 701 c 0
 46 702 58 703 80 703 c 0
 86 703 92 702 99 702 c 0
 134 702 156 701 166 700 c 0
 175 699 183 697 191 697 c 0
 199 697 210 695 227 692 c 0
 235 690 246 686 260 681 c 0
 274 676 282 672 285 669 c 0
 287 667 291 664 297 661 c 0
 302 658 310 651 319 641 c 0
 328 631 335 624 339 618 c 0
 354 597 364 579 367 565 c 0
 368 561 370 555 372 548 c 0
 374 541 375 534 376 528 c 0
 376 527 376 525 376 524 c 0
 376 523 377 521 378 520 c 1
 378 519 l 1
 381 495 l 2
 383 475 384 456 384 440 c 0
 384 427 383 416 382 406 c 0
 379 377 376 361 375 358 c 2
 372 346 l 2
 369 332 363 315 353 296 c 0
 343 277 334 262 325 253 c 2
 313 241 l 2
 302 229 290 220 278 213 c 0
 266 206 257 201 248 197 c 0
 239 193 224 189 205 185 c 1
 193 184 186 183 184 183 c 0
 173 182 168 181 167 180 c 0
 166 179 166 173 166 161 c 0
 166 142 167 110 168 65 c 0
 168 52 168 41 168 32 c 0
 168 14 168 5 167 4 c 2
 165 0 l 1
 105 1 l 2
 65 2 44 2 44 2 c 1
 44 2 44 117 43 346 c 1
166 437 m 0
 166 341 167 292 168 291 c 0
 169 290 171 289 173 289 c 0
 175 289 177 290 179 291 c 0
 182 292 186 293 190 294 c 0
 194 295 200 297 207 300 c 0
 230 311 244 330 251 357 c 0
 253 365 254 371 255 374 c 0
 259 389 262 411 262 440 c 0
 262 442 262 444 262 446 c 0
 262 472 259 492 255 506 c 0
 251 521 248 532 244 540 c 0
 240 548 235 555 228 562 c 0
 223 567 217 571 210 575 c 0
 203 579 197 582 194 582 c 0
 193 582 190 583 186 584 c 0
 181 586 177 586 174 586 c 0
 171 586 169 586 168 584 c 0
 167 583 166 533 166 437 c 0
EndSplineSet
Validated: 1
EndChar

StartChar: Q
Encoding: 81 81 50
Width: 441
Flags: HW
LayerCount: 2
Fore
SplineSet
30 355 m 0
 30 402 32 441 37 470 c 0
 37 472 37 475 38 480 c 0
 39 485 39 488 40 490 c 0
 41 495 42 500 43 506 c 0
 43 508 43 510 44 512 c 0
 45 514 45 518 46 522 c 0
 47 526 48 530 49 533 c 0
 50 536 51 542 53 549 c 0
 54 556 56 562 58 568 c 0
 61 583 66 594 71 603 c 0
 72 606 76 613 83 625 c 1
 94 648 106 666 119 678 c 0
 124 682 128 686 134 690 c 0
 140 694 144 697 145 697 c 0
 147 697 151 699 157 702 c 0
 163 705 172 707 185 710 c 0
 197 712 208 714 220 714 c 0
 235 714 250 712 266 708 c 0
 271 707 278 704 288 700 c 0
 298 696 304 692 308 689 c 0
 313 686 320 680 329 671 c 0
 338 662 344 654 348 647 c 0
 356 636 365 619 374 597 c 0
 383 575 389 558 392 543 c 0
 393 535 394 531 395 530 c 0
 398 519 400 509 402 500 c 0
 404 486 407 465 410 438 c 0
 411 429 412 402 412 360 c 0
 412 318 412 293 411 284 c 0
 410 275 409 266 409 259 c 0
 408 250 407 238 405 225 c 0
 404 220 403 214 402 208 c 0
 401 202 400 199 400 198 c 0
 399 192 398 188 397 186 c 0
 396 183 395 178 393 171 c 0
 391 165 390 161 390 160 c 0
 389 157 389 155 389 154 c 0
 389 149 385 136 376 115 c 0
 374 110 374 107 375 106 c 0
 376 106 376 106 377 107 c 0
 403 112 420 115 428 115 c 2
 438 115 l 1
 439 106 l 2
 439 99 438 89 436 75 c 0
 433 51 431 33 430 20 c 0
 429 9 426 3 422 2 c 0
 419 2 393 2 343 3 c 0
 318 3 304 4 301 7 c 1
 295 10 l 1
 286 5 l 2
 271 -3 252 -8 230 -9 c 0
 227 -9 225 -9 222 -9 c 0
 212 -9 201 -8 189 -6 c 0
 174 -3 163 0 155 4 c 0
 149 7 146 8 146 9 c 1
 145 9 141 11 134 16 c 0
 127 21 121 25 117 30 c 0
 100 47 87 64 79 83 c 0
 76 90 74 94 73 97 c 0
 72 98 71 101 69 105 c 0
 67 109 67 111 66 112 c 0
 65 117 63 121 62 124 c 2
 59 132 l 1
 52 157 48 173 47 178 c 0
 47 179 47 182 46 186 c 0
 45 190 45 191 44 192 c 0
 43 197 41 206 40 219 c 0
 38 233 37 241 36 243 c 0
 32 270 30 308 30 355 c 0
155 350 m 0
 155 339 156 329 157 319 c 0
 158 314 158 302 158 284 c 0
 158 267 159 255 160 250 c 0
 161 245 161 239 161 232 c 0
 161 221 163 206 167 189 c 0
 171 172 174 159 178 150 c 0
 183 139 187 132 190 128 c 0
 193 124 198 121 203 118 c 0
 208 115 215 114 222 113 c 0
 229 113 235 115 240 118 c 0
 249 123 256 132 261 144 c 0
 274 170 282 213 285 273 c 0
 286 288 286 308 286 334 c 0
 286 347 286 362 286 378 c 0
 285 426 284 453 282 458 c 1
 281 464 281 469 281 473 c 0
 281 486 279 501 275 519 c 0
 274 525 273 529 272 532 c 0
 272 533 271 535 270 538 c 2
 269 542 l 2
 268 544 267 546 266 549 c 0
 259 568 249 581 236 587 c 0
 231 589 226 590 221 590 c 0
 216 590 212 589 207 587 c 0
 197 582 188 573 181 560 c 0
 168 535 160 490 159 427 c 0
 159 420 158 406 157 384 c 0
 156 372 155 361 155 350 c 0
EndSplineSet
Validated: 1
EndChar

StartChar: R
Encoding: 82 82 51
Width: 424
Flags: HW
LayerCount: 2
Fore
SplineSet
43 48 m 2
 43 330 l 1
 43 632 l 2
 43 676 43 698 44 699 c 0
 45 700 60 701 89 701 c 0
 126 701 162 700 197 697 c 0
 215 696 233 693 250 688 c 0
 269 683 286 676 299 669 c 0
 312 662 326 651 341 637 c 0
 347 631 352 625 356 619 c 0
 357 618 358 617 360 614 c 0
 362 611 363 610 364 608 c 0
 365 606 367 604 368 603 c 0
 372 598 374 593 375 590 c 0
 377 585 379 581 381 578 c 0
 383 575 385 568 389 558 c 0
 393 548 396 540 397 534 c 0
 399 527 401 515 402 496 c 0
 403 488 403 473 403 450 c 0
 403 427 402 412 401 407 c 0
 401 406 401 403 400 399 c 0
 399 395 398 391 397 389 c 0
 395 378 393 372 392 369 c 0
 385 346 379 332 376 327 c 0
 375 326 372 322 368 315 c 0
 361 302 349 289 333 275 c 0
 318 261 306 251 295 246 c 0
 292 244 291 243 290 242 c 0
 290 241 293 236 297 226 c 0
 301 216 304 210 306 208 c 0
 308 207 309 205 309 203 c 1
 315 193 l 2
 319 186 322 181 324 177 c 0
 327 172 330 167 333 162 c 0
 337 157 339 154 339 152 c 0
 339 150 342 145 347 137 c 0
 352 128 355 123 355 122 c 0
 355 121 357 119 360 114 c 1
 363 111 366 105 369 98 c 0
 372 91 375 86 376 85 c 0
 376 84 378 82 380 79 c 0
 382 76 384 73 385 71 c 0
 391 59 399 45 409 29 c 0
 416 18 419 12 419 11 c 0
 419 10 420 9 421 8 c 0
 422 7 422 6 422 4 c 0
 422 2 421 1 420 0 c 1
 377 0 l 1
 314 0 l 2
 300 0 291 1 287 3 c 0
 283 4 279 9 276 16 c 0
 275 17 274 21 271 28 c 0
 268 35 265 41 263 45 c 2
 251 69 l 2
 245 81 241 90 239 95 c 0
 228 118 215 146 198 179 c 0
 181 212 172 230 170 232 c 0
 168 235 166 235 165 233 c 0
 164 232 164 223 164 206 c 0
 164 197 164 187 164 174 c 0
 165 133 165 111 165 107 c 0
 166 95 167 74 167 46 c 0
 167 37 167 29 167 23 c 0
 167 10 166 3 166 3 c 2
 165 2 145 1 105 0 c 0
 65 0 45 1 44 2 c 0
 43 3 43 18 43 48 c 2
164 332 m 0
 164 328 165 325 166 324 c 0
 167 323 169 323 174 323 c 0
 176 323 179 323 181 323 c 0
 190 324 196 324 199 325 c 0
 200 325 202 326 205 327 c 0
 208 328 210 329 211 329 c 0
 216 330 222 333 230 338 c 0
 238 343 244 348 247 352 c 0
 259 367 267 383 272 401 c 0
 276 418 278 436 278 455 c 0
 278 463 278 472 277 481 c 0
 274 510 269 530 260 543 c 0
 257 548 255 550 254 551 c 0
 254 552 252 556 247 561 c 0
 236 572 219 580 196 585 c 0
 185 587 178 589 173 589 c 0
 170 589 168 588 167 587 c 0
 166 586 165 546 165 467 c 0
 165 389 165 346 164 338 c 0
 164 336 164 334 164 332 c 0
EndSplineSet
Validated: 1
EndChar

StartChar: S
Encoding: 83 83 52
Width: 331
Flags: HW
LayerCount: 2
Fore
SplineSet
25 69 m 0
 25 108 25 127 26 128 c 0
 27 131 35 130 48 125 c 0
 63 120 76 116 88 115 c 0
 99 114 105 113 106 112 c 0
 109 111 115 112 125 113 c 0
 135 114 142 115 148 117 c 0
 156 119 164 124 171 131 c 0
 178 138 183 145 186 152 c 0
 187 156 189 163 189 172 c 0
 189 181 188 188 187 192 c 0
 182 210 178 223 174 232 c 0
 170 241 164 251 156 264 c 0
 152 271 150 275 150 276 c 2
 144 285 l 2
 139 292 137 296 136 297 c 0
 135 298 130 307 121 323 c 0
 114 337 108 348 104 355 c 0
 101 362 98 367 95 370 c 0
 93 372 92 374 92 375 c 0
 92 376 90 380 85 387 c 0
 81 393 77 400 74 407 c 0
 73 408 72 412 70 416 c 0
 68 420 66 423 65 425 c 0
 50 452 40 483 33 516 c 0
 32 523 31 528 30 530 c 0
 28 541 26 553 26 567 c 0
 26 576 27 586 28 596 c 0
 29 603 31 612 34 622 c 0
 37 632 40 639 43 642 c 0
 45 645 47 648 49 652 c 0
 52 659 60 668 72 678 c 0
 84 688 95 695 104 699 c 0
 123 706 137 710 148 711 c 0
 160 713 171 713 183 713 c 0
 192 713 200 713 209 712 c 0
 236 709 251 707 253 707 c 0
 264 704 270 703 273 702 c 0
 276 701 277 699 278 697 c 0
 279 695 280 676 280 640 c 0
 280 604 280 585 279 583 c 0
 278 581 276 581 274 581 c 0
 272 581 266 583 255 586 c 1
 239 593 222 596 203 596 c 0
 190 596 180 595 174 593 c 0
 165 590 158 584 153 575 c 0
 150 570 149 562 149 552 c 0
 149 539 152 525 159 510 c 0
 168 491 175 477 180 470 c 0
 183 465 185 462 185 462 c 1
 185 462 192 448 207 422 c 0
 210 417 211 415 212 414 c 0
 212 413 215 408 220 400 c 0
 225 393 228 388 228 386 c 0
 228 385 231 381 236 372 c 0
 245 355 251 344 252 341 c 0
 257 330 262 322 265 317 c 0
 272 307 275 300 275 297 c 1
 284 279 l 1
 293 258 299 244 301 235 c 0
 303 227 304 218 305 208 c 0
 306 203 307 199 308 197 c 0
 308 195 309 188 309 179 c 0
 309 174 308 170 308 163 c 0
 308 143 307 130 306 125 c 2
 304 111 l 2
 303 106 302 103 301 101 c 0
 298 87 288 70 271 50 c 0
 268 46 261 40 252 32 c 0
 243 24 236 19 232 17 c 0
 229 16 227 15 226 14 c 0
 225 13 222 12 215 9 c 0
 208 6 203 4 202 4 c 0
 200 4 198 3 197 2 c 0
 179 -6 158 -9 135 -9 c 0
 131 -9 128 -9 124 -9 c 0
 115 -9 102 -8 87 -7 c 0
 72 -6 63 -4 60 -3 c 0
 53 -1 46 1 39 2 c 0
 33 3 29 5 28 8 c 0
 26 11 25 32 25 69 c 0
EndSplineSet
Validated: 1
EndChar

StartChar: T
Encoding: 84 84 53
Width: 289
Flags: HW
LayerCount: 2
Fore
SplineSet
7 645 m 0
 7 681 7 700 8 701 c 0
 9 702 54 702 145 702 c 2
 281 701 l 2
 282 701 283 682 283 644 c 0
 283 610 282 591 281 587 c 0
 280 584 276 582 269 583 c 1
 262 583 l 1
 235 585 218 585 211 585 c 0
 209 585 207 585 207 585 c 1
 206 584 206 547 206 472 c 0
 206 435 206 388 206 332 c 0
 206 160 206 64 207 43 c 1
 207 18 207 4 206 3 c 0
 205 2 185 1 146 1 c 0
 107 2 87 2 86 2 c 0
 85 3 84 5 84 8 c 0
 83 11 83 29 83 62 c 0
 84 235 84 366 84 453 c 0
 84 540 84 584 83 585 c 0
 82 585 79 586 73 586 c 0
 67 586 57 585 45 585 c 0
 28 584 19 585 15 585 c 0
 11 585 9 586 8 587 c 0
 7 589 7 609 7 645 c 0
EndSplineSet
Validated: 1
EndChar

StartChar: U
Encoding: 85 85 54
Width: 439
Flags: HW
LayerCount: 2
Fore
SplineSet
43 663 m 0
 43 686 44 698 45 701 c 2
 47 704 l 1
 105 704 l 2
 144 704 164 703 165 702 c 0
 166 701 166 612 166 436 c 0
 166 261 167 169 169 161 c 0
 172 147 177 136 185 128 c 0
 190 123 196 119 200 117 c 0
 204 115 211 115 221 115 c 0
 230 115 237 116 241 117 c 0
 245 118 251 121 257 126 c 0
 265 133 269 140 269 147 c 0
 269 149 269 150 270 151 c 0
 271 152 273 159 274 171 c 0
 275 182 276 260 276 405 c 2
 276 512 l 1
 276 601 l 1
 276 635 l 1
 275 663 275 682 275 692 c 0
 275 697 275 700 275 701 c 0
 276 702 295 702 334 702 c 0
 373 702 393 702 395 701 c 0
 396 701 397 688 397 663 c 2
 397 431 l 2
 397 250 397 154 396 143 c 0
 395 130 392 116 387 101 c 0
 382 86 376 71 368 58 c 0
 360 45 351 35 342 28 c 0
 328 17 316 9 306 5 c 0
 296 1 283 -2 268 -5 c 0
 263 -6 257 -6 250 -7 c 0
 241 -9 231 -10 220 -10 c 0
 209 -10 197 -9 185 -7 c 0
 151 -2 125 8 107 23 c 0
 104 26 102 27 101 28 c 0
 100 28 96 31 90 37 c 0
 84 43 81 48 80 51 c 0
 79 52 76 57 71 66 c 0
 67 72 63 80 59 91 c 0
 55 102 52 111 51 118 c 0
 51 119 51 120 50 122 c 0
 49 124 48 127 48 131 c 0
 48 135 48 138 47 141 c 0
 46 150 44 166 44 188 c 0
 44 210 44 279 44 394 c 0
 44 548 44 638 43 663 c 0
EndSplineSet
Validated: 1
EndChar

StartChar: V
Encoding: 86 86 55
Width: 382
Flags: HW
LayerCount: 2
Fore
SplineSet
-7 699 m 0
 -7 703 -4 703 2 703 c 0
 7 703 14 704 25 704 c 0
 36 704 50 703 66 703 c 0
 98 702 114 702 115 701 c 0
 118 698 120 687 122 668 c 0
 123 655 126 637 131 614 c 0
 132 609 133 599 136 584 c 0
 137 580 139 564 144 537 c 2
 150 501 l 2
 150 500 151 498 151 495 c 0
 151 492 152 490 152 488 c 0
 152 486 153 483 153 482 c 0
 153 481 153 479 154 478 c 2
 155 473 l 1
 155 470 l 2
 155 467 156 463 157 456 c 0
 158 449 159 443 160 438 c 0
 161 431 162 425 163 421 c 0
 167 399 171 374 176 345 c 0
 178 332 181 313 185 287 c 0
 186 279 188 275 191 275 c 1
 192 276 194 278 196 283 c 0
 196 284 197 285 197 287 c 0
 197 289 198 292 198 294 c 0
 198 296 199 298 199 299 c 0
 199 300 199 303 200 305 c 0
 201 307 202 309 202 311 c 0
 202 313 202 314 202 315 c 0
 203 322 204 331 205 342 c 0
 205 345 206 353 209 365 c 0
 211 377 212 385 213 390 c 0
 216 405 218 418 221 430 c 0
 222 433 223 441 225 456 c 0
 225 461 226 466 228 473 c 0
 228 476 229 482 231 490 c 1
 231 495 232 500 234 507 c 0
 234 508 235 512 236 516 c 0
 237 520 237 523 237 524 c 0
 237 527 238 532 240 540 c 0
 241 547 243 554 244 562 c 0
 245 565 245 570 246 577 c 2
 247 586 l 1
 250 601 l 2
 251 603 251 605 252 608 c 2
 255 630 l 1
 258 644 259 656 260 665 c 0
 263 688 266 700 268 701 c 0
 269 702 290 702 329 702 c 2
 389 702 l 1
 389 694 l 2
 389 689 388 682 386 675 c 0
 385 670 383 664 381 657 c 0
 381 656 375 629 363 574 c 0
 362 571 362 568 361 563 c 0
 360 558 359 554 358 553 c 1
 358 550 356 538 351 518 c 0
 349 507 347 495 344 480 c 0
 344 479 344 477 343 475 c 0
 342 473 342 471 342 469 c 0
 342 467 341 466 341 465 c 0
 338 450 335 439 332 433 c 1
 331 428 330 424 330 422 c 0
 330 419 329 414 328 409 c 0
 327 404 326 399 325 394 c 0
 325 393 324 390 323 385 c 0
 322 380 321 376 321 374 c 0
 319 363 318 358 317 357 c 0
 313 342 310 327 309 313 c 0
 308 306 307 299 305 292 c 0
 302 275 299 263 298 257 c 0
 298 254 297 250 295 245 c 0
 295 244 294 239 291 229 c 0
 290 224 289 219 287 212 c 2
 285 200 l 2
 284 194 284 191 283 190 c 0
 282 187 282 183 281 177 c 0
 280 172 279 168 278 164 c 0
 277 160 276 155 275 149 c 0
 274 142 273 138 272 135 c 2
 271 130 l 2
 270 127 270 124 270 123 c 0
 267 109 265 96 262 85 c 0
 258 66 254 43 249 14 c 0
 248 9 247 6 246 3 c 0
 245 2 227 1 193 1 c 0
 159 1 141 2 139 3 c 0
 138 4 136 8 135 15 c 0
 134 24 132 35 129 50 c 0
 128 52 127 60 124 75 c 0
 123 82 122 91 119 102 c 0
 119 103 119 106 118 109 c 0
 117 112 117 115 116 117 c 0
 115 119 115 122 115 123 c 0
 114 129 112 134 110 139 c 0
 108 146 106 154 105 163 c 0
 101 185 99 197 98 200 c 0
 98 201 97 207 94 219 c 0
 94 220 93 226 91 236 c 0
 90 241 89 247 86 256 c 1
 84 266 82 273 81 278 c 0
 80 283 79 286 79 287 c 0
 79 290 79 293 78 297 c 0
 73 318 70 332 69 339 c 0
 68 344 65 360 58 387 c 0
 58 389 58 392 57 395 c 0
 56 398 56 401 55 404 c 0
 54 407 54 409 54 410 c 0
 54 411 54 412 53 416 c 0
 52 420 51 423 51 424 c 0
 50 431 49 435 48 438 c 0
 45 450 43 459 42 464 c 0
 41 469 40 474 39 479 c 0
 38 482 37 487 36 494 c 0
 35 501 33 508 32 515 c 0
 30 526 28 533 27 537 c 0
 26 543 25 546 24 547 c 0
 23 550 23 553 22 557 c 0
 21 562 19 572 16 587 c 0
 11 607 9 621 7 630 c 0
 5 639 4 643 3 644 c 1
 3 648 l 1
 2 650 2 653 1 656 c 0
 0 659 0 661 -1 663 c 0
 -2 670 -3 679 -5 688 c 0
 -6 693 -7 697 -7 699 c 0
EndSplineSet
Validated: 1
EndChar

StartChar: W
Encoding: 87 87 56
Width: 569
Flags: HW
LayerCount: 2
Fore
SplineSet
-7 701 m 0
 -7 702 3 702 21 702 c 0
 30 702 41 702 55 702 c 0
 96 702 117 701 118 700 c 0
 122 696 122 666 123 658 c 0
 126 644 136 570 136 570 c 2
 137 568 139 553 142 526 c 0
 144 504 148 480 152 453 c 2
 157 416 l 1
 160 381 161 384 167 341 c 0
 171 310 174 295 176 294 c 1
 180 294 181 308 183 317 c 0
 193 372 203 456 209 503 c 0
 212 524 213 536 214 541 c 0
 214 544 218 565 218 568 c 0
 219 574 225 614 225 620 c 0
 225 623 226 628 227 635 c 0
 227 637 230 657 231 659 c 0
 234 685 237 698 238 699 c 0
 239 700 252 700 278 701 c 0
 291 701 301 702 309 702 c 0
 317 702 322 701 324 701 c 0
 332 698 333 699 334 690 c 0
 338 667 339 649 340 638 c 0
 340 629 349 590 349 575 c 0
 349 571 353 546 353 542 c 1
 354 538 357 521 357 515 c 0
 358 507 359 501 360 497 c 2
 363 476 l 2
 363 473 366 458 366 454 c 0
 368 441 370 418 372 409 c 0
 372 407 373 400 375 389 c 0
 375 388 376 386 376 383 c 0
 376 380 377 378 377 376 c 0
 377 374 377 372 378 371 c 1
 378 368 380 353 381 351 c 0
 381 350 386 299 392 299 c 0
 396 299 402 342 406 364 c 0
 406 365 409 381 409 384 c 0
 410 391 411 398 412 403 c 0
 412 406 415 423 415 428 c 0
 417 443 421 461 423 482 c 0
 428 536 435 561 441 611 c 0
 444 639 445 647 449 674 c 0
 451 688 453 697 454 698 c 0
 455 699 475 700 513 700 c 2
 574 700 l 2
 576 700 576 697 576 691 c 0
 576 689 576 687 576 684 c 0
 575 674 575 668 574 666 c 0
 569 655 566 623 563 611 c 0
 563 609 558 592 558 588 c 0
 558 587 558 585 558 582 c 0
 558 577 554 567 554 562 c 0
 553 550 551 542 549 538 c 1
 547 527 545 516 543 505 c 0
 543 502 542 495 540 486 c 0
 540 483 538 471 538 468 c 0
 536 455 534 443 531 434 c 0
 530 429 529 424 529 420 c 0
 529 417 527 409 524 397 c 2
 521 382 l 2
 521 379 519 371 519 369 c 0
 516 354 512 329 509 315 c 0
 503 287 501 270 500 265 c 0
 500 261 499 256 497 249 c 0
 497 248 495 235 495 234 c 0
 495 233 494 225 491 210 c 2
 488 192 l 2
 488 191 487 188 486 182 c 0
 482 155 478 139 477 132 c 0
 475 123 474 114 473 106 c 0
 473 102 470 86 470 84 c 0
 470 82 467 66 467 65 c 0
 466 60 458 16 458 13 c 0
 457 7 456 3 455 2 c 0
 452 1 434 0 402 0 c 0
 367 0 350 1 349 2 c 0
 347 3 344 13 342 32 c 0
 339 53 337 77 332 104 c 0
 332 108 329 125 328 128 c 0
 326 142 319 194 317 207 c 0
 316 217 315 223 314 226 c 0
 314 227 314 229 314 232 c 0
 314 236 312 247 310 250 c 0
 309 255 308 263 307 272 c 0
 307 276 304 289 303 291 c 0
 301 303 297 327 292 362 c 0
 289 382 287 393 284 393 c 0
 278 393 266 294 262 269 c 0
 262 267 260 252 260 250 c 0
 256 221 244 155 240 117 c 0
 240 110 234 76 233 70 c 0
 228 38 225 33 225 12 c 0
 225 1 222 1 207 1 c 0
 204 1 199 0 192 0 c 0
 178 0 157 1 128 1 c 0
 116 1 116 2 114 12 c 0
 114 15 113 18 112 19 c 0
 111 20 109 34 106 61 c 0
 106 62 104 72 104 73 c 0
 101 79 89 162 88 163 c 1
 86 174 85 180 85 181 c 0
 83 189 75 227 75 242 c 0
 75 245 74 248 73 251 c 2
 70 268 l 2
 70 272 67 285 66 287 c 0
 62 315 57 337 53 365 c 0
 53 368 49 383 49 387 c 0
 48 391 38 446 38 450 c 0
 38 459 31 481 31 486 c 0
 31 489 26 519 26 519 c 2
 26 521 25 526 23 533 c 0
 21 541 12 597 8 614 c 0
 5 628 4 636 3 638 c 0
 2 645 1 652 -0 659 c 0
 -1 660 -4 677 -4 678 c 0
 -4 680 -6 690 -6 692 c 0
 -7 695 -7 698 -7 701 c 0
EndSplineSet
Validated: 1
EndChar

StartChar: X
Encoding: 88 88 57
Width: 329
Flags: HW
LayerCount: 2
Fore
SplineSet
-13 6 m 0
 -13 14 -7 26 2 54 c 0
 16 95 30 134 43 173 c 0
 44 178 47 185 50 195 c 0
 53 205 56 212 57 215 c 0
 62 229 66 241 69 250 c 0
 77 275 82 291 85 298 c 2
 89 310 l 2
 90 315 92 320 94 327 c 0
 99 344 102 356 102 364 c 1
 101 371 100 377 98 380 c 0
 85 417 78 437 78 440 c 0
 78 441 77 443 76 447 c 0
 74 452 72 457 71 462 c 0
 69 471 65 483 60 498 c 0
 55 514 49 530 43 546 c 0
 40 553 38 560 37 565 c 0
 36 568 36 569 35 570 c 0
 34 571 33 575 32 580 c 0
 32 581 32 581 31 583 c 0
 30 585 30 586 29 587 c 0
 28 588 28 589 28 590 c 2
 26 596 l 1
 25 600 l 2
 24 603 23 606 22 610 c 0
 21 614 19 617 18 620 c 0
 13 634 6 656 -5 686 c 1
 -6 692 -7 696 -8 698 c 0
 -9 699 -9 700 -6 701 c 0
 -4 701 5 702 22 702 c 0
 31 702 42 701 54 701 c 0
 91 701 110 701 113 700 c 0
 115 699 117 693 120 682 c 0
 123 669 125 660 126 655 c 0
 128 647 129 642 129 639 c 0
 130 634 131 630 132 627 c 0
 135 618 137 609 139 600 c 0
 140 597 141 592 142 587 c 0
 143 586 145 575 150 554 c 0
 155 536 159 521 162 509 c 0
 163 506 165 508 168 515 c 0
 171 523 174 534 177 547 c 0
 180 559 181 565 181 566 c 0
 187 590 191 605 192 612 c 0
 193 619 194 625 195 628 c 0
 196 633 198 641 201 651 c 0
 201 652 202 655 203 659 c 0
 204 663 204 665 204 666 c 2
 209 686 l 2
 211 694 213 698 214 699 c 0
 215 700 236 701 275 701 c 0
 283 701 290 702 296 702 c 0
 321 702 335 701 336 700 c 2
 336 700 337 699 337 698 c 0
 337 694 333 684 326 668 c 0
 323 663 322 659 323 658 c 0
 323 657 322 654 320 649 c 0
 316 638 308 614 297 579 c 0
 297 578 296 574 294 567 c 0
 292 560 289 554 288 550 c 2
 269 493 l 1
 255 451 l 2
 254 448 254 447 253 446 c 0
 252 445 250 441 249 434 c 1
 245 422 l 2
 243 416 242 412 241 409 c 0
 229 378 223 361 223 359 c 0
 223 358 224 353 227 346 c 0
 230 339 235 325 243 303 c 1
 248 286 254 270 259 256 c 0
 260 253 262 248 264 242 c 0
 266 236 267 233 267 232 c 0
 268 227 272 217 277 202 c 0
 278 198 280 192 283 183 c 0
 286 174 288 169 289 167 c 0
 292 156 294 150 295 149 c 0
 296 145 299 139 302 130 c 0
 304 123 307 114 311 102 c 0
 316 89 320 77 323 67 c 0
 329 49 334 37 337 30 c 0
 341 19 343 11 343 6 c 0
 343 4 343 2 342 1 c 0
 341 0 328 -1 303 -1 c 0
 297 -1 290 -1 282 -1 c 0
 243 -1 223 1 222 2 c 0
 221 3 220 7 217 17 c 0
 214 27 213 35 212 40 c 0
 211 43 211 45 210 45 c 0
 209 46 208 49 207 56 c 0
 206 61 204 68 201 79 c 2
 196 98 l 1
 194 111 190 129 183 150 c 0
 180 159 178 168 177 177 c 0
 177 178 177 179 176 182 c 0
 176 183 176 184 175 185 c 0
 173 198 171 207 168 213 c 0
 167 215 167 216 166 217 c 0
 165 218 164 217 163 216 c 0
 162 214 161 211 160 208 c 0
 160 207 160 205 159 201 c 0
 158 197 157 195 157 194 c 2
 153 180 l 2
 153 179 152 174 150 167 c 0
 149 163 148 157 146 149 c 0
 145 142 140 124 132 94 c 0
 127 72 123 57 122 50 c 0
 122 48 121 45 120 42 c 0
 119 39 118 37 118 35 c 0
 115 13 111 2 107 1 c 1
 46 1 l 2
 10 1 -9 1 -10 2 c 1
 -12 2 -13 4 -13 6 c 0
EndSplineSet
Validated: 1
EndChar

StartChar: Y
Encoding: 89 89 58
Width: 326
Flags: HW
LayerCount: 2
Fore
SplineSet
-16 698 m 0
 -16 701 7 701 45 701 c 0
 82 701 102 700 105 698 c 0
 107 697 109 693 110 687 c 0
 111 679 113 673 114 670 c 0
 115 663 116 659 116 657 c 0
 116 654 117 650 118 645 c 2
 122 625 l 2
 127 600 130 584 133 577 c 0
 134 574 135 567 137 556 c 0
 138 553 138 549 139 543 c 0
 140 537 141 533 142 531 c 1
 142 528 143 521 145 510 c 0
 147 499 150 489 151 480 c 0
 152 477 153 473 154 468 c 0
 157 459 158 452 159 448 c 0
 159 447 159 445 160 444 c 0
 161 443 162 442 163 442 c 0
 164 442 164 443 165 444 c 0
 166 447 168 454 170 465 c 0
 173 481 176 497 181 512 c 1
 184 529 186 541 187 546 c 0
 187 547 188 553 190 562 c 0
 191 564 191 568 192 573 c 0
 193 578 194 582 194 583 c 0
 194 584 194 586 195 590 c 0
 196 594 197 598 198 600 c 2
 200 615 l 2
 201 624 203 632 204 637 c 0
 207 649 211 664 214 682 c 0
 215 691 217 697 219 698 c 0
 220 699 241 700 280 700 c 2
 340 700 l 2
 341 700 341 698 342 694 c 0
 342 693 342 692 342 690 c 0
 342 687 342 684 341 681 c 0
 340 676 339 672 338 668 c 0
 335 661 333 653 331 646 c 0
 325 621 321 606 318 603 c 0
 317 603 317 601 317 598 c 0
 317 595 316 590 314 585 c 0
 312 578 311 572 310 569 c 0
 309 564 309 561 308 560 c 2
 304 551 l 2
 301 543 299 533 296 520 c 1
 291 505 289 496 289 493 c 0
 289 491 288 489 287 487 c 0
 281 472 279 463 280 460 c 0
 281 459 279 455 276 447 c 0
 270 428 265 411 262 396 c 0
 260 389 259 385 258 383 c 2
 255 373 l 2
 255 372 254 371 254 369 c 0
 254 367 254 367 253 366 c 0
 252 364 250 355 246 340 c 1
 243 324 240 315 239 312 c 0
 239 311 239 310 238 309 c 0
 237 308 237 306 236 304 c 0
 235 302 235 300 235 299 c 0
 234 294 232 288 230 281 c 0
 227 272 225 260 225 247 c 0
 225 243 225 236 225 226 c 0
 225 207 226 177 226 136 c 0
 226 107 226 82 226 62 c 0
 226 22 226 2 225 1 c 0
 224 0 203 0 164 -0 c 0
 125 0 104 1 103 2 c 0
 102 2 102 26 102 71 c 0
 102 94 102 122 102 156 c 0
 102 229 101 268 100 272 c 0
 96 281 91 297 86 322 c 1
 82 338 l 2
 80 345 78 351 77 354 c 0
 73 369 71 377 71 378 c 0
 71 379 70 381 69 385 c 0
 68 389 67 391 67 392 c 0
 66 395 65 401 62 408 c 0
 60 415 59 418 60 419 c 0
 61 420 61 421 60 422 c 0
 59 423 58 427 56 434 c 0
 54 441 52 447 51 451 c 0
 51 453 50 455 49 457 c 2
 46 466 l 2
 46 467 46 470 45 473 c 2
 43 478 l 2
 42 481 42 483 41 484 c 0
 39 492 37 499 35 505 c 0
 32 517 30 524 30 527 c 2
 29 530 l 2
 28 533 27 535 26 538 c 0
 25 541 25 543 24 544 c 0
 21 553 20 558 20 561 c 0
 19 568 18 571 17 572 c 0
 16 575 14 579 13 584 c 0
 8 601 5 613 2 621 c 0
 0 628 -2 638 -5 651 c 0
 -6 655 -8 665 -12 681 c 0
 -15 690 -16 696 -16 698 c 0
EndSplineSet
Validated: 1
EndChar

StartChar: Z
Encoding: 90 90 59
Width: 290
Flags: HW
LayerCount: 2
Fore
SplineSet
-16 6 m 0
 -16 7 -16 8 -15 10 c 0
 -14 11 -13 16 -10 25 c 0
 -8 32 -7 37 -6 40 c 0
 -5 43 -4 45 -4 47 c 0
 -4 48 -3 51 -1 55 c 0
 0 58 2 66 5 77 c 0
 7 87 10 96 13 105 c 2
 17 121 l 2
 17 122 17 123 18 126 c 0
 19 129 20 130 20 131 c 0
 21 132 21 134 21 137 c 0
 21 140 22 142 23 143 c 2
 24 146 l 2
 25 148 25 150 26 151 c 0
 27 152 27 155 28 159 c 0
 29 163 30 166 31 168 c 0
 34 178 36 188 38 197 c 0
 39 200 41 207 44 218 c 0
 47 229 49 236 50 238 c 0
 51 241 51 243 51 246 c 0
 51 248 52 249 53 250 c 0
 54 251 54 252 54 254 c 0
 54 257 55 262 57 268 c 1
 58 275 60 281 63 286 c 1
 64 291 65 297 68 306 c 0
 75 328 79 345 82 356 c 0
 87 375 91 389 95 399 c 0
 96 401 96 404 97 407 c 0
 98 410 98 412 99 413 c 0
 100 416 103 428 109 451 c 0
 111 460 113 467 115 470 c 1
 120 494 124 509 127 515 c 2
 128 518 l 2
 128 520 128 521 129 522 c 0
 130 526 132 537 137 554 c 0
 141 568 144 578 144 582 c 0
 144 583 143 585 143 585 c 2
 142 586 140 586 137 586 c 0
 136 586 114 585 73 584 c 1
 54 584 l 2
 47 584 42 583 37 583 c 0
 32 583 28 583 24 583 c 2
 14 583 l 1
 11 583 l 1
 10 582 9 583 7 585 c 2
 4 587 l 1
 8 605 l 2
 9 607 11 613 13 622 c 0
 15 631 17 638 18 642 c 0
 19 646 20 651 22 658 c 0
 24 665 26 670 26 671 c 0
 31 690 34 699 35 700 c 1
 165 700 l 1
 252 701 296 701 298 701 c 0
 301 701 302 698 302 694 c 0
 302 690 299 684 296 676 c 0
 293 669 291 661 288 652 c 0
 287 648 286 642 283 633 c 2
 277 611 l 2
 274 600 272 593 271 590 c 0
 267 572 263 559 260 551 c 0
 259 548 259 546 259 544 c 0
 259 542 257 536 253 525 c 0
 246 504 243 493 243 491 c 0
 243 489 242 484 240 477 c 0
 237 470 235 462 233 453 c 0
 231 442 229 436 228 434 c 0
 228 433 227 430 226 425 c 0
 225 420 224 417 223 416 c 0
 221 407 220 403 220 402 c 0
 217 393 215 387 214 385 c 1
 214 382 212 376 209 366 c 0
 208 364 208 361 207 357 c 0
 206 353 206 350 205 348 c 0
 204 346 204 344 203 343 c 0
 202 338 201 335 200 334 c 2
 199 330 l 2
 199 328 198 324 197 318 c 0
 196 315 195 310 192 303 c 0
 192 301 190 296 187 288 c 0
 186 285 185 280 183 273 c 0
 182 268 177 249 168 218 c 0
 163 200 160 188 159 182 c 0
 158 175 156 170 154 167 c 0
 152 161 151 157 151 154 c 0
 149 141 146 132 141 125 c 0
 140 124 140 122 140 119 c 2
 140 116 l 1
 222 116 l 1
 304 117 l 1
 304 107 l 2
 304 101 301 89 295 72 c 0
 286 48 282 34 282 29 c 0
 282 27 281 22 278 14 c 0
 275 6 274 3 273 3 c 0
 272 2 227 2 137 1 c 1
 -6 1 l 2
 -11 1 -14 2 -15 3 c 0
 -16 4 -16 5 -16 6 c 0
EndSplineSet
Validated: 1
EndChar

StartChar: bracketleft
Encoding: 91 91 60
Width: 276
Flags: HW
LayerCount: 2
Fore
SplineSet
58 575 m 0
 58 609 58 637 58 659 c 0
 58 704 58 727 59 727 c 0
 60 728 92 728 155 728 c 0
 218 728 250 727 252 725 c 0
 254 723 255 717 254 705 c 0
 254 693 253 686 251 684 c 0
 250 683 242 683 227 683 c 0
 219 683 209 683 198 683 c 0
 165 683 148 683 147 682 c 0
 146 681 146 639 146 558 c 0
 146 477 146 356 147 195 c 0
 147 125 148 71 148 35 c 0
 148 -1 147 -20 147 -23 c 2
 147 -39 l 1
 200 -39 l 2
 226 -39 241 -40 246 -40 c 0
 251 -40 254 -41 255 -42 c 0
 256 -43 256 -51 256 -64 c 0
 256 -68 257 -71 257 -74 c 0
 257 -80 256 -84 256 -84 c 2
 255 -85 222 -85 159 -85 c 0
 96 -85 63 -84 62 -83 c 0
 61 -82 60 3 59 171 c 0
 58 428 58 563 58 575 c 0
EndSplineSet
Validated: 1
EndChar

StartChar: backslash
Encoding: 92 92 61
Width: 252
Flags: HW
LayerCount: 2
Fore
SplineSet
-28 719 m 0
 -28 721 -27 722 -25 723 c 0
 -24 724 -14 724 5 724 c 0
 11 724 17 725 21 725 c 0
 30 725 34 724 35 724 c 0
 38 723 43 706 52 674 c 2
 56 658 l 2
 59 647 62 640 63 636 c 0
 68 622 70 613 71 609 c 0
 72 608 73 604 74 599 c 2
 78 589 l 2
 81 582 84 575 85 566 c 0
 86 555 89 542 95 527 c 0
 98 520 101 513 102 506 c 0
 104 498 108 486 113 470 c 0
 116 462 119 452 122 441 c 0
 126 428 128 421 129 419 c 0
 131 415 136 401 143 376 c 0
 144 373 144 368 146 364 c 0
 148 360 149 357 150 354 c 0
 151 351 152 350 152 349 c 0
 152 348 152 347 152 345 c 0
 152 343 153 341 154 340 c 0
 155 339 155 338 155 337 c 0
 159 324 164 308 170 290 c 0
 174 279 178 267 182 253 c 0
 187 238 191 226 194 217 c 0
 195 214 198 202 205 179 c 0
 207 174 210 167 213 156 c 2
 218 139 l 2
 219 138 220 135 221 132 c 0
 222 129 223 124 225 119 c 0
 227 114 227 110 228 107 c 0
 233 93 237 81 240 70 c 0
 243 60 245 53 246 50 c 0
 254 29 258 14 258 6 c 0
 258 3 257 1 256 -0 c 0
 255 0 250 -1 242 -1 c 0
 238 -1 233 -1 227 -1 c 0
 209 -1 199 0 198 1 c 0
 197 3 194 11 189 26 c 0
 188 28 187 33 184 42 c 0
 182 46 180 53 177 62 c 0
 170 90 163 110 158 122 c 0
 158 123 157 124 156 127 c 2
 152 139 l 2
 151 144 149 149 148 154 c 0
 142 174 138 185 137 186 c 0
 136 189 136 191 136 193 c 0
 136 195 136 197 135 200 c 0
 132 207 127 221 121 244 c 1
 114 265 l 2
 106 286 101 302 98 313 c 0
 96 320 94 327 91 335 c 0
 87 344 85 353 84 361 c 0
 81 376 75 395 66 420 c 0
 64 425 61 435 56 450 c 0
 51 465 49 474 48 476 c 0
 46 485 43 494 40 504 c 0
 39 507 35 519 28 540 c 0
 27 546 23 556 18 571 c 0
 13 587 9 601 6 613 c 2
 0 631 l 1
 -5 646 l 2
 -8 652 -9 656 -9 658 c 0
 -9 659 -10 661 -11 665 c 0
 -12 667 -13 672 -15 680 c 0
 -17 687 -20 695 -23 704 c 0
 -26 712 -28 716 -28 719 c 0
EndSplineSet
Validated: 1
EndChar

StartChar: bracketright
Encoding: 93 93 62
Width: 279
Flags: HW
LayerCount: 2
Fore
SplineSet
19 709 m 0
 19 717 20 721 21 723 c 2
 22 726 l 1
 118 726 l 1
 183 725 216 725 216 724 c 2
 216 724 216 651 217 507 c 0
 218 226 219 50 220 -21 c 2
 221 -85 l 1
 217 -86 l 2
 215 -87 213 -87 211 -87 c 0
 210 -87 209 -87 208 -87 c 0
 203 -86 180 -86 140 -86 c 0
 120 -86 96 -86 68 -86 c 0
 40 -86 25 -85 24 -83 c 0
 23 -82 22 -75 22 -62 c 0
 22 -50 23 -43 25 -41 c 0
 27 -40 29 -40 31 -40 c 0
 33 -40 40 -41 55 -41 c 0
 62 -41 72 -41 82 -41 c 0
 113 -41 129 -40 130 -40 c 0
 131 -39 131 -23 131 7 c 0
 131 14 130 33 130 63 c 0
 130 93 130 136 130 191 c 0
 130 246 129 294 129 335 c 0
 128 564 127 680 127 680 c 2
 126 681 114 681 90 681 c 1
 73 680 59 680 48 680 c 0
 32 680 24 681 22 682 c 0
 21 683 20 690 20 702 c 0
 20 704 19 707 19 709 c 0
EndSplineSet
Validated: 1
EndChar

StartChar: asciicircum
Encoding: 94 94 63
Width: 425
Flags: HW
LayerCount: 2
Fore
SplineSet
41 320 m 0
 41 324 42 330 43 333 c 0
 44 334 46 340 51 352 c 0
 52 355 53 357 54 360 c 0
 55 363 55 365 56 367 c 2
 57 370 l 2
 61 379 64 388 66 398 c 0
 67 405 70 413 73 421 c 0
 79 436 82 445 82 446 c 0
 85 453 87 460 90 468 c 0
 107 513 117 544 122 559 c 0
 123 563 126 570 130 581 c 1
 133 586 137 598 143 617 c 0
 144 618 145 622 147 627 c 2
 150 637 l 2
 153 644 156 653 159 662 c 0
 162 673 165 679 166 681 c 0
 168 685 170 691 171 700 c 1
 174 710 177 716 178 717 c 0
 179 718 190 719 213 719 c 2
 247 718 l 1
 252 704 l 2
 253 702 254 698 256 691 c 0
 258 684 262 677 265 667 c 0
 268 657 271 648 274 641 c 0
 285 610 291 593 292 590 c 2
 298 573 l 2
 301 565 303 559 304 554 c 0
 305 552 307 548 309 542 c 0
 316 523 320 511 322 505 c 0
 324 500 325 496 326 494 c 0
 327 491 328 490 328 489 c 2
 333 473 l 2
 334 470 338 459 344 441 c 0
 345 438 346 436 347 433 c 0
 348 430 349 427 350 425 c 0
 351 423 351 422 351 421 c 0
 351 420 352 419 353 416 c 0
 354 413 356 407 359 400 c 0
 362 393 364 386 366 379 c 0
 366 378 367 376 368 373 c 0
 369 370 370 367 371 364 c 0
 372 361 373 359 374 357 c 0
 375 351 378 344 381 335 c 0
 384 329 385 324 384 320 c 1
 384 313 l 1
 353 313 l 2
 334 313 322 314 317 314 c 0
 312 314 308 315 307 318 c 0
 305 322 302 333 298 350 c 0
 297 356 295 362 292 369 c 0
 289 376 286 387 281 402 c 0
 280 405 279 408 278 412 c 0
 277 413 275 419 272 429 c 0
 269 440 266 446 266 447 c 0
 266 448 265 452 263 457 c 0
 263 458 262 460 261 462 c 0
 260 464 259 467 258 471 c 0
 257 475 256 478 255 481 c 0
 250 496 247 507 244 516 c 0
 241 525 237 537 231 554 c 0
 226 568 223 578 222 584 c 0
 221 589 219 592 218 593 c 0
 217 595 216 597 215 600 c 0
 214 603 213 604 212 604 c 0
 211 604 207 594 201 575 c 0
 197 563 193 553 190 544 c 0
 184 526 180 513 178 506 c 0
 165 465 150 418 132 363 c 0
 131 359 130 355 129 351 c 0
 129 350 128 350 128 349 c 0
 128 348 128 347 127 346 c 1
 127 344 l 1
 126 343 123 336 120 323 c 0
 119 318 116 316 112 315 c 0
 110 314 106 314 98 314 c 0
 93 314 86 314 79 314 c 0
 57 315 45 315 42 316 c 0
 41 317 41 318 41 320 c 0
EndSplineSet
Validated: 1
EndChar

StartChar: underscore
Encoding: 95 95 64
Width: 478
Flags: HW
LayerCount: 2
Fore
SplineSet
-0 -58 m 0
 0 -51 0 -47 1 -45 c 0
 2 -42 6 -41 13 -41 c 0
 18 -41 95 -41 246 -40 c 0
 397 -40 473 -40 475 -41 c 0
 476 -41 477 -50 478 -67 c 0
 478 -84 477 -93 475 -94 c 2
 475 -94 398 -94 249 -95 c 1
 209 -95 l 1
 171 -95 l 1
 136 -95 l 2
 125 -95 114 -96 104 -96 c 0
 94 -96 86 -96 77 -96 c 2
 55 -96 l 1
 38 -96 l 1
 27 -96 l 1
 23 -96 l 2
 22 -96 21 -97 19 -97 c 0
 17 -97 16 -96 13 -96 c 0
 8 -95 4 -95 3 -94 c 0
 2 -93 1 -85 0 -70 c 0
 0 -65 0 -61 -0 -58 c 0
EndSplineSet
Validated: 1
EndChar

StartChar: a
Encoding: 97 97 65
Width: 378
Flags: HW
LayerCount: 2
Fore
SplineSet
24 142 m 0
 24 145 24 150 24 153 c 0
 24 173 26 191 29 208 c 0
 32 226 38 241 46 253 c 0
 49 257 52 261 53 264 c 0
 56 269 61 274 70 282 c 0
 79 290 87 296 95 300 c 0
 108 307 126 310 149 310 c 0
 164 310 176 309 183 306 c 0
 194 302 206 296 218 288 c 0
 222 285 224 283 225 283 c 0
 227 283 228 290 229 305 c 1
 229 327 226 344 219 356 c 0
 216 361 214 363 212 365 c 0
 210 367 207 369 202 371 c 0
 192 376 178 378 160 379 c 0
 158 379 155 379 153 379 c 0
 124 379 100 375 83 367 c 0
 78 364 75 363 74 364 c 0
 73 365 72 383 72 416 c 0
 72 449 73 466 74 467 c 0
 78 471 88 474 105 477 c 0
 106 477 111 477 119 478 c 0
 127 479 133 480 137 481 c 0
 153 483 168 484 180 484 c 0
 190 484 199 484 207 482 c 0
 209 482 213 482 217 481 c 0
 221 480 224 480 225 480 c 0
 244 477 261 472 274 465 c 0
 303 450 321 428 330 400 c 0
 334 386 337 374 338 365 c 0
 339 356 339 330 339 287 c 0
 339 243 339 183 340 107 c 0
 340 73 341 48 341 33 c 0
 341 25 341 20 341 17 c 0
 341 8 339 4 338 3 c 0
 336 2 325 1 306 1 c 0
 302 1 299 1 295 1 c 0
 281 1 269 2 259 3 c 1
 245 3 l 1
 246 18 l 2
 247 36 245 45 242 45 c 0
 240 45 235 39 226 26 c 0
 224 23 217 16 204 8 c 0
 191 0 183 -4 180 -4 c 0
 179 -4 177 -5 174 -7 c 0
 171 -8 164 -9 150 -9 c 0
 136 -9 128 -8 125 -7 c 0
 123 -6 121 -6 118 -6 c 0
 115 -6 111 -4 103 -1 c 0
 95 2 90 5 87 8 c 0
 84 11 82 12 81 12 c 0
 80 12 75 15 68 23 c 0
 61 31 56 37 54 41 c 0
 53 44 50 48 47 52 c 0
 45 54 43 58 41 64 c 0
 40 69 37 75 33 84 c 0
 28 99 25 118 24 142 c 0
136 158 m 0
 136 123 150 104 177 101 c 0
 179 101 181 101 183 101 c 0
 194 101 204 104 211 110 c 0
 218 117 223 123 225 130 c 0
 227 137 228 148 228 162 c 0
 228 174 227 184 224 191 c 1
 222 199 218 206 213 211 c 0
 208 216 203 220 198 221 c 0
 192 223 187 224 182 224 c 0
 179 224 176 223 174 223 c 0
 163 221 155 217 150 210 c 1
 145 205 141 196 138 183 c 1
 137 174 136 166 136 158 c 0
EndSplineSet
Validated: 1
EndChar

StartChar: b
Encoding: 98 98 66
Width: 381
Flags: HW
LayerCount: 2
Fore
SplineSet
42 657 m 0
 42 661 42 665 42 668 c 0
 42 674 42 678 43 679 c 0
 45 680 64 681 100 682 c 1
 137 682 155 681 156 680 c 0
 157 679 157 667 157 646 c 0
 157 614 156 559 155 481 c 0
 155 470 155 461 155 454 c 0
 155 439 155 431 156 430 c 0
 157 429 158 429 159 430 c 0
 160 431 162 433 165 438 c 0
 168 443 173 449 178 455 c 0
 183 462 187 465 189 466 c 2
 192 469 l 2
 197 474 207 478 220 481 c 0
 228 483 238 483 251 481 c 0
 264 479 274 475 282 470 c 0
 291 464 301 454 311 441 c 0
 318 432 324 422 329 410 c 0
 332 402 335 396 338 391 c 0
 340 386 341 382 341 380 c 1
 342 379 343 376 344 372 c 0
 347 362 350 342 354 313 c 0
 356 296 357 269 357 232 c 0
 357 195 356 168 354 150 c 0
 346 88 329 44 302 17 c 0
 290 6 277 -2 264 -6 c 0
 259 -8 253 -9 244 -9 c 0
 243 -9 241 -8 239 -8 c 0
 228 -8 219 -7 214 -6 c 0
 196 -1 181 10 169 26 c 0
 166 31 165 33 164 33 c 2
 162 35 l 2
 162 36 160 39 157 44 c 0
 153 49 151 53 151 54 c 0
 151 55 150 56 149 57 c 0
 148 58 147 58 146 57 c 1
 146 30 l 2
 146 13 145 4 144 3 c 0
 143 2 126 2 95 1 c 0
 85 1 76 1 69 1 c 0
 55 1 47 1 46 2 c 2
 46 2 44 110 43 321 c 0
 43 524 43 636 42 657 c 0
156 243 m 0
 156 190 158 155 160 139 c 0
 162 123 168 112 178 107 c 0
 182 105 187 104 194 104 c 0
 201 104 206 104 209 106 c 0
 212 108 216 112 221 117 c 0
 226 122 229 127 230 130 c 0
 236 143 240 160 241 179 c 0
 241 182 242 187 243 196 c 0
 244 202 244 209 244 218 c 0
 244 229 243 242 242 257 c 0
 240 285 239 305 236 316 c 0
 232 332 228 343 225 348 c 0
 221 357 215 363 206 366 c 0
 202 368 199 368 195 368 c 0
 190 368 186 367 181 365 c 0
 174 362 169 357 166 352 c 0
 163 347 160 338 158 325 c 0
 157 318 156 291 156 243 c 0
EndSplineSet
Validated: 1
EndChar

StartChar: c
Encoding: 99 99 67
Width: 305
Flags: HW
LayerCount: 2
Fore
SplineSet
24 214 m 0
 24 223 24 234 24 248 c 0
 25 280 27 301 30 310 c 0
 31 315 31 319 31 322 c 0
 31 324 31 328 32 333 c 0
 32 334 32 334 33 336 c 0
 34 338 34 340 35 343 c 0
 36 346 36 348 37 350 c 0
 48 393 65 427 90 452 c 0
 105 466 123 476 144 482 c 0
 153 484 163 485 172 485 c 0
 180 485 188 485 196 483 c 0
 211 480 224 474 235 467 c 0
 240 464 245 459 250 454 c 0
 255 449 258 446 258 445 c 0
 258 444 259 443 261 442 c 0
 262 442 264 439 269 433 c 0
 274 427 276 423 277 421 c 0
 277 420 279 417 283 413 c 0
 286 410 289 404 292 397 c 0
 295 390 297 385 297 382 c 0
 298 379 297 376 296 375 c 0
 295 374 289 370 277 363 c 1
 266 358 259 354 258 353 c 0
 257 352 254 350 247 347 c 0
 241 344 234 339 226 334 c 0
 218 329 213 326 211 325 c 0
 209 324 207 325 205 328 c 0
 203 331 202 336 201 343 c 0
 198 358 194 368 188 372 c 0
 179 377 170 376 161 367 c 0
 155 362 151 353 150 341 c 0
 150 340 149 336 148 331 c 0
 147 326 146 322 146 320 c 0
 142 298 140 274 140 248 c 0
 140 238 140 228 141 218 c 0
 141 215 141 212 141 208 c 0
 141 204 142 199 142 195 c 0
 142 191 143 188 143 187 c 0
 144 174 146 159 149 143 c 0
 152 127 155 117 158 112 c 0
 160 109 162 107 166 104 c 0
 170 101 173 100 176 100 c 0
 189 100 197 107 201 121 c 2
 205 133 l 2
 206 136 206 140 207 146 c 2
 208 156 l 1
 210 159 217 157 228 151 c 0
 237 146 243 142 247 141 c 0
 253 138 256 137 257 136 c 0
 258 135 272 128 299 115 c 1
 304 112 l 1
 304 103 l 2
 304 96 302 88 298 79 c 0
 292 67 288 60 286 58 c 0
 283 54 281 50 280 47 c 0
 280 46 275 42 266 33 c 0
 265 32 263 29 261 27 c 0
 259 25 258 23 257 22 c 2
 255 21 l 1
 254 18 244 12 226 2 c 0
 225 1 223 1 221 -0 c 0
 219 -1 217 -1 216 -2 c 0
 215 -3 214 -3 213 -3 c 0
 212 -4 209 -5 206 -5 c 0
 203 -5 200 -5 199 -6 c 0
 197 -7 190 -7 179 -8 c 0
 177 -8 176 -8 174 -8 c 0
 149 -8 129 -3 113 7 c 0
 108 10 105 12 102 13 c 0
 100 14 95 18 87 27 c 0
 79 36 73 43 69 50 c 0
 58 65 50 82 43 101 c 0
 40 112 37 123 34 134 c 0
 30 149 28 163 27 178 c 0
 27 183 26 188 25 193 c 0
 24 196 24 202 24 214 c 0
EndSplineSet
Validated: 1
EndChar

StartChar: d
Encoding: 100 100 68
Width: 376
Flags: HW
LayerCount: 2
Fore
SplineSet
24 237 m 0
 24 264 25 284 26 298 c 0
 27 320 30 338 33 351 c 0
 34 353 34 356 35 361 c 0
 39 377 45 395 54 413 c 0
 63 431 71 445 80 454 c 0
 85 459 92 465 100 470 c 0
 108 475 115 478 122 479 c 1
 131 482 139 483 147 483 c 0
 167 483 184 475 198 460 c 0
 207 451 212 444 215 439 c 0
 217 436 219 434 220 433 c 2
 222 431 l 2
 223 431 224 440 224 458 c 0
 224 556 223 625 221 664 c 0
 220 675 221 680 226 681 c 0
 229 681 246 680 279 680 c 0
 312 680 329 680 331 680 c 2
 334 679 l 1
 334 340 l 1
 334 1 l 1
 286 1 l 1
 254 2 237 3 236 4 c 0
 235 5 235 13 235 28 c 0
 235 39 235 47 234 51 c 0
 233 56 229 53 223 42 c 0
 219 33 211 24 199 13 c 0
 187 2 178 -4 171 -5 c 0
 170 -5 168 -6 164 -7 c 0
 160 -8 159 -8 158 -8 c 0
 153 -9 148 -10 143 -10 c 0
 137 -10 131 -9 124 -7 c 0
 121 -6 116 -5 110 -3 c 0
 107 -2 103 -1 100 2 c 0
 97 5 94 7 91 9 c 0
 86 11 80 16 73 25 c 0
 66 34 60 44 56 53 c 2
 49 69 l 2
 46 75 42 87 37 104 c 0
 37 105 36 106 36 108 c 0
 36 110 36 111 35 112 c 0
 34 113 34 113 34 114 c 0
 33 117 32 127 30 145 c 0
 28 163 27 172 27 173 c 0
 27 175 26 180 25 187 c 0
 24 194 24 210 24 237 c 0
138 240 m 0
 138 225 139 210 140 194 c 0
 143 152 150 126 161 115 c 0
 168 108 176 104 185 104 c 0
 189 104 193 105 197 106 c 0
 204 109 209 112 212 115 c 0
 215 118 218 126 220 136 c 0
 222 146 224 158 224 173 c 0
 224 188 224 210 224 241 c 0
 224 289 223 318 221 328 c 0
 218 343 214 354 208 359 c 0
 206 361 202 363 195 366 c 0
 194 366 193 367 191 368 c 0
 189 369 188 369 187 369 c 2
 185 369 l 2
 184 369 181 368 175 365 c 0
 169 362 165 359 164 358 c 0
 154 349 147 329 142 298 c 0
 139 280 138 261 138 240 c 0
EndSplineSet
Validated: 1
EndChar

StartChar: e
Encoding: 101 101 69
Width: 367
Flags: HW
LayerCount: 2
Fore
SplineSet
24 239 m 0
 24 261 24 274 25 279 c 0
 25 280 25 281 25 284 c 0
 25 287 26 289 27 290 c 0
 28 301 29 314 32 328 c 0
 35 343 36 351 37 354 c 2
 39 359 l 2
 40 362 41 365 42 367 c 2
 46 378 l 1
 46 383 53 397 68 420 c 0
 74 429 82 439 91 448 c 0
 100 457 109 464 116 468 c 0
 132 476 149 481 166 483 c 0
 171 483 175 484 180 484 c 0
 188 484 197 483 206 482 c 0
 220 480 233 475 244 470 c 0
 255 465 263 458 270 451 c 0
 274 448 276 446 277 446 c 0
 278 446 280 443 285 436 c 0
 290 429 294 424 297 420 c 0
 300 414 303 410 305 408 c 0
 308 404 310 400 313 395 c 0
 316 388 321 377 327 360 c 0
 330 351 333 339 336 324 c 0
 336 323 336 322 337 319 c 0
 337 317 337 316 338 315 c 0
 339 314 339 311 340 304 c 0
 340 303 340 300 341 295 c 0
 342 290 342 287 342 286 c 0
 343 281 343 269 343 251 c 0
 343 233 343 223 342 223 c 0
 341 222 338 222 334 222 c 0
 329 222 302 223 253 223 c 0
 204 223 174 223 162 224 c 1
 148 224 140 224 139 223 c 0
 138 222 137 217 137 211 c 0
 137 205 138 196 139 184 c 0
 139 181 140 177 141 170 c 0
 142 163 142 158 143 155 c 0
 145 140 149 127 154 117 c 0
 162 101 172 93 184 93 c 0
 197 93 207 97 214 104 c 0
 217 108 220 112 222 116 c 0
 224 120 226 128 229 140 c 0
 231 145 233 148 234 149 c 0
 235 149 252 149 287 150 c 0
 322 150 340 149 341 148 c 0
 342 147 343 142 342 133 c 0
 336 92 321 58 297 33 c 0
 281 16 262 5 241 -2 c 0
 226 -7 211 -9 197 -9 c 0
 173 -9 156 -7 147 -3 c 0
 143 -1 140 0 138 0 c 0
 137 0 132 3 124 7 c 0
 116 11 110 15 105 18 c 0
 92 27 80 41 67 60 c 0
 56 76 49 89 46 99 c 0
 44 106 42 111 40 114 c 0
 39 115 38 120 36 130 c 0
 34 140 32 147 31 151 c 0
 31 154 30 157 29 162 c 0
 28 165 28 172 27 181 c 0
 27 188 26 195 25 201 c 0
 24 204 24 217 24 239 c 0
140 297 m 0
 140 294 141 293 141 293 c 2
 142 292 156 292 184 292 c 0
 212 292 227 293 228 295 c 0
 229 297 229 299 229 303 c 0
 229 307 229 312 228 318 c 0
 227 327 226 332 226 333 c 0
 226 336 225 341 222 349 c 0
 219 357 217 363 215 366 c 0
 212 372 205 376 196 379 c 0
 192 380 188 381 184 381 c 0
 181 381 176 380 170 378 c 0
 164 376 161 373 158 370 c 0
 151 363 147 352 144 335 c 0
 143 327 142 319 141 309 c 0
 141 304 140 300 140 297 c 0
EndSplineSet
Validated: 1
EndChar

StartChar: f
Encoding: 102 102 70
Width: 199
Flags: HW
LayerCount: 2
Fore
SplineSet
14 425 m 2
 14 451 15 465 16 468 c 0
 17 469 21 470 28 469 c 0
 35 469 38 470 39 471 c 0
 40 473 40 480 40 494 c 0
 40 501 40 509 40 519 c 0
 40 527 40 535 40 542 c 0
 40 559 41 572 42 581 c 0
 44 593 47 607 52 624 c 0
 57 639 68 651 84 661 c 0
 100 671 123 677 152 679 c 0
 163 680 172 680 178 680 c 0
 184 680 188 680 189 679 c 0
 190 678 191 676 191 672 c 0
 191 668 192 653 192 628 c 0
 192 597 191 581 190 578 c 0
 189 576 185 575 178 574 c 1
 177 574 l 1
 166 573 158 569 156 562 c 0
 154 555 153 537 153 508 c 2
 153 472 l 2
 153 471 157 471 166 471 c 0
 173 471 177 470 178 469 c 0
 179 468 179 460 180 446 c 1
 180 424 l 1
 180 407 l 2
 180 397 179 391 178 389 c 0
 177 387 173 386 167 386 c 2
 155 386 l 1
 152 385 l 1
 153 194 l 2
 153 130 154 84 154 56 c 0
 154 42 153 32 153 27 c 0
 153 11 153 2 152 1 c 0
 150 0 131 0 96 0 c 2
 50 0 l 2
 45 0 42 1 41 2 c 0
 40 3 39 11 40 25 c 0
 41 43 41 108 41 218 c 0
 41 328 41 383 40 384 c 0
 39 385 34 385 27 385 c 0
 19 384 15 384 15 385 c 2
 14 425 l 2
EndSplineSet
Validated: 1
EndChar

StartChar: g
Encoding: 103 103 71
Width: 375
Flags: HW
LayerCount: 2
Fore
SplineSet
24 223 m 0
 24 249 24 267 25 277 c 0
 29 318 31 339 32 342 c 0
 33 343 34 347 35 355 c 1
 40 372 44 386 48 397 c 0
 56 417 63 431 70 439 c 0
 73 443 75 446 77 449 c 0
 78 452 83 456 90 461 c 0
 97 466 102 470 106 471 c 0
 115 475 123 478 130 479 c 0
 133 479 136 480 139 480 c 0
 145 480 152 479 160 477 c 0
 172 474 181 470 188 465 c 0
 194 460 200 454 206 446 c 0
 212 438 218 431 222 424 c 0
 228 415 231 411 232 411 c 0
 233 410 234 414 234 422 c 0
 234 427 234 434 233 443 c 1
 233 454 233 461 234 464 c 2
 235 467 l 1
 284 467 l 1
 333 466 l 1
 333 204 l 2
 333 146 333 97 333 57 c 0
 333 -23 333 -67 332 -75 c 0
 329 -103 321 -125 310 -142 c 0
 305 -149 298 -158 287 -168 c 0
 276 -178 270 -182 267 -182 c 0
 266 -182 264 -183 260 -185 c 0
 256 -187 250 -190 242 -192 c 0
 234 -194 229 -195 228 -195 c 0
 227 -195 222 -196 212 -197 c 0
 199 -199 186 -200 174 -200 c 0
 164 -200 154 -200 144 -198 c 0
 131 -196 119 -194 108 -192 c 0
 107 -192 104 -192 101 -191 c 0
 98 -190 95 -189 94 -189 c 0
 89 -189 86 -189 84 -188 c 0
 75 -184 69 -181 68 -179 c 0
 67 -178 67 -161 67 -128 c 0
 67 -112 66 -99 66 -92 c 0
 66 -88 67 -86 67 -85 c 0
 67 -81 68 -78 69 -77 c 0
 72 -76 76 -76 81 -78 c 0
 88 -81 93 -82 96 -83 c 0
 97 -84 99 -85 102 -86 c 0
 105 -87 107 -87 108 -87 c 0
 119 -91 133 -93 150 -94 c 0
 154 -94 158 -94 162 -94 c 0
 173 -94 182 -93 187 -92 c 0
 201 -87 211 -78 216 -63 c 0
 219 -56 221 -45 222 -29 c 0
 223 -13 224 3 224 17 c 2
 224 25 l 1
 223 31 l 2
 223 34 222 35 220 35 c 0
 218 35 216 31 211 24 c 0
 206 17 203 12 201 10 c 0
 199 8 195 5 189 -0 c 0
 178 -9 164 -13 147 -13 c 0
 126 -13 111 -9 102 -1 c 1
 97 2 93 4 92 5 c 0
 83 10 73 21 62 40 c 0
 51 59 43 79 38 98 c 2
 35 110 l 2
 32 120 29 139 26 167 c 0
 25 178 24 197 24 223 c 0
137 219 m 0
 138 179 141 154 145 145 c 0
 146 142 147 140 147 139 c 0
 147 138 149 133 152 126 c 0
 155 119 157 114 160 111 c 0
 163 108 167 106 172 103 c 0
 178 100 183 99 187 99 c 0
 203 100 213 109 218 125 c 0
 219 131 220 135 221 136 c 0
 222 139 222 166 222 220 c 0
 222 238 223 253 223 266 c 0
 223 291 222 306 222 310 c 0
 220 325 218 335 215 342 c 0
 214 346 211 350 208 353 c 0
 205 356 202 358 200 358 c 0
 198 358 196 359 195 360 c 0
 194 361 191 361 187 362 c 0
 186 362 186 362 185 362 c 0
 178 362 171 360 164 354 c 0
 156 348 150 339 147 328 c 0
 144 317 141 300 139 276 c 0
 138 258 137 244 137 231 c 0
 137 227 137 223 137 219 c 0
EndSplineSet
Validated: 1
EndChar

StartChar: h
Encoding: 104 104 72
Width: 382
Flags: HW
LayerCount: 2
Fore
SplineSet
42 29 m 2
 42 296 l 1
 42 601 l 1
 42 669 l 2
 42 676 43 679 44 680 c 0
 48 681 66 681 99 681 c 0
 127 681 143 681 148 680 c 0
 153 679 155 676 155 671 c 2
 155 670 l 2
 155 669 155 664 155 656 c 0
 155 640 155 610 154 566 c 0
 154 524 154 491 154 469 c 0
 154 447 154 435 154 433 c 0
 154 432 155 431 156 431 c 0
 158 432 160 433 161 436 c 1
 164 439 168 444 175 451 c 0
 182 458 187 463 192 466 c 0
 200 471 208 475 215 478 c 0
 224 481 234 482 247 482 c 0
 259 482 269 480 278 477 c 0
 287 474 294 471 298 469 c 0
 302 467 306 463 311 458 c 0
 317 452 323 443 328 432 c 0
 335 419 339 406 340 395 c 0
 342 379 343 310 343 188 c 2
 344 2 l 1
 339 1 l 2
 338 1 332 1 323 1 c 0
 314 1 301 1 284 1 c 0
 250 2 233 3 232 3 c 0
 231 3 231 58 231 168 c 2
 231 333 l 1
 227 343 l 2
 222 355 216 361 208 362 c 0
 198 363 190 363 184 361 c 0
 175 358 169 353 165 347 c 0
 161 341 158 330 156 315 c 0
 155 307 154 274 154 219 c 0
 154 201 154 180 154 156 c 0
 155 56 155 5 155 4 c 2
 154 3 l 2
 153 2 136 2 101 2 c 0
 66 2 48 2 46 3 c 0
 43 4 42 13 42 29 c 2
EndSplineSet
Validated: 1
EndChar

StartChar: i
Encoding: 105 105 73
Width: 204
Flags: HW
LayerCount: 2
Fore
SplineSet
45 68 m 0
 46 111 46 179 46 274 c 0
 46 369 46 424 45 439 c 0
 45 445 45 449 45 453 c 0
 45 461 45 466 46 467 c 0
 47 468 49 469 54 470 c 0
 59 471 74 471 101 471 c 0
 137 471 156 471 157 470 c 0
 158 469 159 391 159 236 c 0
 159 81 159 2 158 1 c 0
 157 0 138 0 103 0 c 0
 67 0 48 1 47 3 c 0
 46 5 45 27 45 68 c 0
47 536 m 2
 47 593 l 1
 47 645 l 1
 50 647 l 2
 53 648 70 648 103 648 c 0
 136 648 153 647 155 646 c 0
 156 645 157 625 157 586 c 0
 157 548 156 528 154 527 c 0
 153 526 142 525 120 525 c 0
 115 525 109 526 102 526 c 0
 69 526 51 527 49 528 c 0
 48 529 47 532 47 536 c 2
EndSplineSet
Validated: 1
EndChar

StartChar: j
Encoding: 106 106 74
Width: 201
Flags: HW
LayerCount: 2
Fore
SplineSet
-7 -129 m 0
 -7 -97 -6 -80 -5 -79 c 0
 -4 -78 1 -78 10 -77 c 0
 24 -76 32 -74 35 -71 c 0
 37 -69 39 -65 40 -58 c 0
 41 -53 42 -40 42 -20 c 2
 42 160 l 1
 42 423 l 2
 42 460 42 479 43 481 c 0
 44 484 58 486 84 486 c 0
 88 486 93 486 98 486 c 0
 134 485 153 484 154 481 c 0
 155 479 155 445 155 379 c 2
 155 2 l 2
 155 -24 156 -44 156 -59 c 0
 156 -74 155 -84 155 -88 c 0
 152 -111 146 -129 137 -142 c 0
 127 -155 114 -165 98 -171 c 0
 82 -177 59 -181 26 -183 c 0
 18 -183 12 -184 7 -184 c 0
 5 -184 2 -184 1 -184 c 0
 -3 -184 -5 -182 -6 -180 c 0
 -7 -178 -7 -161 -7 -129 c 0
43 593 m 0
 43 622 43 639 44 644 c 0
 45 649 47 652 50 652 c 0
 51 652 56 652 64 652 c 0
 72 652 85 652 101 652 c 0
 135 651 152 650 152 649 c 0
 153 648 153 628 153 590 c 0
 153 552 153 533 152 532 c 0
 151 531 133 530 99 530 c 0
 74 530 59 530 54 530 c 0
 49 530 47 532 46 533 c 0
 44 536 43 556 43 593 c 0
EndSplineSet
Validated: 1
EndChar

StartChar: k
Encoding: 107 107 75
Width: 343
Flags: HW
LayerCount: 2
Fore
SplineSet
42 525 m 1
 42 659 l 2
 42 670 43 676 44 677 c 0
 45 678 57 679 79 679 c 0
 85 679 91 678 98 678 c 0
 133 678 151 677 153 676 c 0
 154 675 154 644 154 583 c 0
 154 534 154 465 153 377 c 0
 153 347 153 325 153 309 c 0
 153 293 153 285 153 284 c 0
 154 282 155 281 156 281 c 0
 157 281 158 283 160 285 c 0
 162 287 162 289 162 290 c 0
 162 291 164 295 168 303 c 0
 174 314 179 325 182 335 c 0
 183 340 185 343 186 345 c 0
 189 349 194 358 199 372 c 1
 206 387 210 397 212 402 c 0
 219 417 223 427 225 432 c 0
 227 437 229 443 232 450 c 0
 235 457 237 461 237 462 c 0
 238 465 239 467 241 468 c 0
 243 469 262 470 298 470 c 0
 310 470 321 470 329 470 c 0
 346 470 354 470 355 469 c 0
 356 468 353 460 346 445 c 0
 344 440 341 434 337 426 c 0
 333 418 330 412 329 410 c 0
 328 408 322 395 310 370 c 0
 301 352 296 342 295 339 c 0
 292 332 289 327 288 325 c 0
 285 320 282 314 280 308 c 0
 278 301 274 292 267 279 c 0
 260 264 256 256 256 254 c 0
 256 252 258 247 262 238 c 0
 266 230 268 226 268 225 c 0
 268 224 269 221 271 216 c 2
 275 208 l 2
 276 207 278 202 282 193 c 0
 283 191 284 189 285 186 c 2
 288 179 l 1
 290 176 l 1
 291 175 l 2
 292 174 292 173 292 172 c 2
 292 170 l 1
 293 169 295 166 297 160 c 0
 299 154 305 139 316 116 c 0
 316 115 317 112 320 107 c 0
 323 102 325 97 326 94 c 0
 329 88 332 81 335 74 c 0
 336 72 337 70 337 69 c 0
 337 68 338 65 341 60 c 0
 342 59 346 52 351 39 c 0
 354 32 357 25 360 19 c 0
 362 14 363 10 363 6 c 2
 363 0 l 1
 308 0 l 2
 299 0 290 0 283 -0 c 0
 262 0 251 1 250 2 c 0
 247 5 244 12 241 24 c 0
 238 35 233 49 226 64 c 0
 225 65 224 70 221 77 c 0
 218 83 215 91 211 101 c 0
 208 109 204 119 199 132 c 0
 194 148 191 157 190 158 c 0
 189 159 189 161 188 163 c 0
 187 165 186 167 185 170 c 0
 184 173 183 174 183 175 c 2
 167 215 l 2
 159 234 154 238 153 229 c 0
 153 228 152 220 152 207 c 0
 152 194 153 174 153 149 c 0
 154 98 155 58 156 27 c 0
 157 13 156 5 154 3 c 0
 153 2 149 1 144 1 c 0
 139 1 124 0 99 0 c 0
 64 0 45 1 44 2 c 0
 43 3 43 25 43 66 c 0
 43 90 44 131 44 187 c 0
 44 215 44 247 44 283 c 0
 44 391 43 471 42 525 c 1
EndSplineSet
Validated: 1
EndChar

StartChar: l
Encoding: 108 108 76
Width: 207
Flags: HW
LayerCount: 2
Fore
SplineSet
45 705 m 1
 48 707 l 2
 50 708 53 708 56 708 c 0
 58 708 59 708 61 708 c 0
 64 707 82 707 113 707 c 0
 142 707 157 706 158 705 c 0
 160 704 161 587 161 354 c 1
 162 185 162 84 162 52 c 0
 162 20 161 3 160 3 c 0
 158 2 139 1 105 1 c 0
 71 1 53 1 51 2 c 0
 50 3 48 16 48 43 c 0
 48 70 48 155 47 299 c 1
 47 472 47 589 46 650 c 2
 45 705 l 1
EndSplineSet
Validated: 1
EndChar

StartChar: m
Encoding: 109 109 77
Width: 549
Flags: HW
LayerCount: 2
Fore
SplineSet
42 453 m 2
 42 481 l 2
 42 484 43 486 44 487 c 0
 45 487 50 487 59 487 c 0
 68 487 80 487 96 487 c 0
 128 486 144 486 145 485 c 0
 146 482 146 473 145 456 c 1
 145 438 145 429 146 428 c 0
 147 427 151 432 157 443 c 0
 162 452 169 460 176 468 c 0
 183 476 189 482 192 484 c 0
 205 492 217 497 227 498 c 0
 231 499 236 499 240 499 c 2
 271 494 l 2
 279 492 288 487 296 479 c 0
 304 471 310 462 315 451 c 0
 316 450 318 447 319 445 c 0
 320 443 320 441 321 440 c 2
 323 438 l 2
 324 437 324 436 324 435 c 0
 326 434 331 438 338 449 c 0
 351 469 365 483 379 490 c 0
 391 496 398 499 401 500 c 0
 403 500 405 501 408 501 c 0
 414 501 422 500 432 498 c 0
 446 495 456 493 461 490 c 0
 470 485 479 477 487 466 c 0
 495 455 500 444 502 433 c 0
 502 432 503 430 504 425 c 1
 507 420 508 410 509 397 c 0
 510 394 510 328 511 198 c 0
 511 155 511 119 511 90 c 0
 511 32 511 3 510 3 c 0
 509 3 500 2 484 2 c 0
 476 2 466 2 454 2 c 0
 418 2 400 3 399 4 c 0
 398 5 398 11 398 22 c 0
 398 27 398 34 398 42 c 2
 398 212 l 1
 398 329 l 2
 398 342 397 351 396 355 c 0
 392 366 386 374 377 377 c 2
 369 380 l 1
 359 376 l 2
 354 373 350 370 347 367 c 0
 344 364 341 359 339 352 c 0
 335 338 333 303 333 247 c 0
 334 126 334 53 335 27 c 0
 336 14 335 6 334 5 c 0
 333 2 314 1 277 1 c 2
 223 1 l 1
 221 4 l 2
 220 7 219 13 220 22 c 0
 221 32 221 87 221 187 c 0
 221 287 221 339 220 342 c 0
 217 359 212 370 203 375 c 0
 196 378 188 378 181 375 c 0
 169 369 161 354 158 330 c 0
 157 319 157 262 157 158 c 0
 157 107 158 69 158 43 c 0
 158 17 157 4 157 3 c 0
 156 2 136 1 99 1 c 2
 43 2 l 1
 43 211 l 1
 42 364 42 445 42 453 c 2
EndSplineSet
Validated: 1
EndChar

StartChar: n
Encoding: 110 110 78
Width: 390
Flags: HW
LayerCount: 2
Fore
SplineSet
42 476 m 0
 42 482 43 485 44 486 c 0
 46 487 63 487 95 487 c 0
 128 486 144 486 145 486 c 0
 146 485 147 478 146 464 c 0
 145 449 145 439 146 434 c 2
 147 427 l 1
 150 430 l 2
 153 433 157 438 163 447 c 0
 173 463 182 474 191 479 c 2
 198 483 l 2
 200 485 205 488 214 491 c 0
 223 494 229 496 233 497 c 0
 240 498 247 499 253 499 c 0
 259 499 265 498 270 497 c 0
 279 496 288 493 299 488 c 0
 308 483 315 478 320 472 c 0
 327 464 332 455 337 445 c 0
 341 436 344 428 346 421 c 0
 347 414 348 410 349 408 c 0
 350 405 351 336 352 203 c 1
 352 2 l 1
 348 1 l 2
 347 0 345 0 342 0 c 1
 340 1 323 1 290 1 c 0
 257 1 240 2 239 3 c 0
 238 4 238 28 238 75 c 0
 238 137 239 189 239 229 c 0
 239 269 238 298 238 316 c 1
 237 332 237 342 237 345 c 0
 237 348 235 352 233 355 c 0
 229 363 226 368 223 371 c 0
 220 374 214 376 205 377 c 0
 202 377 198 376 192 374 c 0
 186 372 181 371 178 369 c 0
 175 367 171 363 168 356 c 0
 165 349 163 344 163 340 c 0
 163 339 163 338 163 336 c 0
 163 334 162 333 162 330 c 0
 162 327 161 325 160 323 c 0
 159 314 158 288 158 245 c 0
 159 116 160 43 160 27 c 0
 160 11 159 3 158 2 c 0
 156 1 137 1 101 1 c 0
 65 1 46 1 45 2 c 0
 44 3 44 76 43 220 c 1
 43 329 l 1
 43 422 l 1
 43 460 l 1
 42 466 42 472 42 476 c 0
EndSplineSet
Validated: 1
EndChar

StartChar: o
Encoding: 111 111 79
Width: 375
Flags: HW
LayerCount: 2
Fore
SplineSet
24 240 m 0
 24 265 24 282 25 291 c 0
 28 320 32 343 37 361 c 1
 40 377 46 393 54 408 c 0
 61 421 67 431 71 436 c 0
 75 441 80 448 89 457 c 0
 112 480 140 494 172 498 c 0
 176 498 184 498 196 498 c 0
 208 498 216 497 219 496 c 0
 220 496 221 496 223 495 c 0
 225 494 227 494 229 493 c 0
 231 492 233 492 234 491 c 0
 251 486 269 475 287 460 c 0
 290 457 296 450 304 439 c 0
 312 428 317 419 320 412 c 0
 324 403 326 398 327 397 c 0
 330 388 332 382 333 379 c 0
 337 369 339 362 340 359 c 0
 340 358 340 357 341 354 c 2
 342 351 l 2
 342 350 343 346 345 340 c 0
 349 324 351 291 351 242 c 0
 351 197 349 168 346 153 c 0
 342 134 339 122 338 119 c 0
 337 116 337 114 337 112 c 0
 337 110 334 102 328 89 c 0
 322 76 317 67 314 62 c 0
 310 55 307 50 304 47 c 0
 303 47 300 43 293 34 c 0
 289 28 283 22 275 16 c 0
 266 10 262 7 261 7 c 0
 259 6 255 4 249 1 c 0
 234 -6 215 -11 194 -11 c 0
 193 -11 192 -11 191 -11 c 0
 171 -11 154 -8 139 -2 c 0
 129 1 122 4 118 6 c 0
 114 8 108 14 98 21 c 0
 94 24 89 30 82 38 c 0
 75 46 69 54 66 59 c 0
 61 66 56 74 51 85 c 0
 46 96 42 105 41 111 c 0
 40 116 39 119 38 120 c 0
 37 121 37 123 37 126 c 0
 37 129 35 142 30 163 c 0
 29 168 28 174 28 180 c 0
 28 186 27 192 26 195 c 0
 25 200 24 215 24 240 c 0
143 241 m 0
 143 226 143 212 144 197 c 0
 148 148 157 118 171 106 c 0
 176 102 182 101 189 101 c 0
 191 101 194 101 196 101 c 0
 206 102 213 106 216 113 c 0
 218 118 219 121 220 123 c 0
 223 127 224 130 224 133 c 0
 224 134 225 136 226 140 c 0
 227 144 228 147 228 149 c 0
 229 156 230 160 230 162 c 2
 234 197 l 2
 235 202 236 213 236 230 c 0
 236 234 236 239 236 244 c 0
 236 270 235 285 234 288 c 0
 233 291 232 297 232 305 c 0
 231 314 231 320 230 323 c 0
 230 324 230 324 230 326 c 0
 230 328 229 330 228 332 c 0
 227 334 227 336 227 337 c 0
 226 348 222 358 216 367 c 0
 210 376 205 381 198 383 c 0
 195 384 191 384 186 384 c 0
 184 384 182 384 179 384 c 0
 176 383 173 381 168 377 c 0
 162 372 157 363 153 352 c 0
 149 339 146 318 144 287 c 0
 143 272 143 256 143 241 c 0
EndSplineSet
Validated: 1
EndChar

StartChar: p
Encoding: 112 112 80
Width: 390
Flags: HW
LayerCount: 2
Fore
SplineSet
42 461 m 0
 42 465 42 468 42 471 c 0
 42 477 42 481 43 482 c 0
 44 483 53 483 68 483 c 0
 76 483 85 483 96 483 c 2
 147 482 l 1
 147 456 l 2
 147 435 148 424 149 424 c 0
 150 424 152 428 157 436 c 0
 164 447 169 453 171 456 c 0
 173 459 177 464 182 469 c 0
 195 482 211 490 228 494 c 0
 233 495 237 495 242 495 c 0
 249 495 257 495 264 493 c 0
 276 490 287 485 296 478 c 0
 313 464 328 441 342 409 c 0
 347 398 351 385 354 369 c 0
 355 365 356 360 357 355 c 0
 360 344 362 327 365 304 c 0
 366 296 366 273 366 235 c 0
 366 197 365 173 364 162 c 0
 363 156 364 152 365 149 c 0
 366 148 366 147 364 146 c 0
 363 145 362 143 361 140 c 2
 359 128 l 2
 358 126 357 121 356 114 c 0
 351 93 345 73 336 55 c 0
 327 37 317 23 306 14 c 0
 293 3 281 -4 268 -9 c 0
 259 -12 250 -13 241 -13 c 1
 214 -9 l 2
 209 -8 204 -6 202 -4 c 0
 200 -2 196 1 190 7 c 0
 183 14 177 20 173 25 c 0
 172 26 171 29 170 32 c 1
 167 36 l 2
 164 40 163 41 162 38 c 0
 161 35 161 22 161 -3 c 0
 161 -15 161 -30 161 -48 c 0
 161 -104 161 -144 162 -169 c 0
 162 -175 162 -180 162 -184 c 0
 162 -197 161 -204 160 -205 c 0
 158 -206 154 -207 149 -207 c 0
 143 -206 125 -206 94 -206 c 0
 63 -206 46 -206 45 -205 c 0
 44 -204 43 -199 43 -192 c 2
 43 -34 l 2
 43 55 43 133 43 199 c 0
 43 332 43 419 42 461 c 0
160 242 m 0
 160 201 161 173 162 157 c 0
 163 141 166 128 171 119 c 0
 174 112 180 108 189 106 c 0
 193 105 197 104 201 104 c 0
 207 104 213 106 218 109 c 0
 223 112 227 117 230 125 c 0
 233 132 235 139 238 146 c 0
 243 155 246 176 248 209 c 0
 249 222 249 235 249 246 c 0
 249 261 249 273 247 283 c 0
 246 289 245 295 245 301 c 0
 245 318 240 335 230 354 c 0
 226 363 222 368 217 371 c 0
 211 374 205 376 198 376 c 0
 195 376 192 376 189 375 c 0
 180 372 174 369 171 364 c 0
 166 356 163 344 162 328 c 0
 161 312 160 283 160 242 c 0
EndSplineSet
Validated: 1
EndChar

StartChar: q
Encoding: 113 113 81
Width: 389
Flags: HW
LayerCount: 2
Fore
SplineSet
24 243 m 0
 24 280 26 311 30 334 c 0
 34 357 40 380 49 404 c 0
 54 417 60 428 65 436 c 0
 72 446 79 455 87 463 c 0
 91 467 97 472 106 477 c 0
 115 482 121 486 124 487 c 0
 138 492 149 495 158 496 c 1
 167 496 l 2
 168 496 172 496 180 495 c 0
 199 494 216 488 230 477 c 2
 237 471 l 1
 238 471 l 1
 240 468 l 2
 241 467 242 467 243 467 c 0
 246 465 251 459 259 450 c 0
 267 441 271 437 272 437 c 0
 273 438 276 444 283 456 c 0
 290 468 295 477 298 483 c 0
 301 489 303 493 306 494 c 0
 309 495 315 496 325 496 c 0
 337 496 344 496 345 495 c 2
 345 495 347 378 347 145 c 2
 347 -206 l 1
 291 -206 l 2
 279 -206 268 -206 260 -206 c 0
 243 -206 234 -206 233 -205 c 0
 232 -204 231 -184 231 -143 c 0
 231 -128 231 -88 232 -23 c 0
 232 -13 232 -5 232 3 c 0
 232 26 231 37 230 38 c 0
 229 39 227 38 226 36 c 0
 217 21 208 10 200 4 c 0
 193 -2 188 -6 184 -8 c 0
 180 -10 173 -12 164 -13 c 0
 159 -14 153 -14 144 -13 c 0
 135 -12 130 -11 128 -10 c 0
 125 -9 123 -8 122 -8 c 0
 117 -8 109 -3 97 6 c 0
 85 15 77 22 74 28 c 0
 72 32 70 35 68 36 c 0
 65 39 61 46 55 59 c 0
 49 72 44 84 41 95 c 0
 40 96 40 97 40 99 c 0
 40 101 39 102 39 103 c 0
 39 104 38 104 38 105 c 0
 29 136 24 182 24 243 c 0
142 234 m 0
 142 223 142 214 143 207 c 0
 144 199 145 193 145 190 c 1
 144 189 145 185 147 178 c 1
 148 168 149 161 150 157 c 0
 152 146 156 135 163 124 c 0
 168 115 174 109 183 106 c 0
 187 105 190 104 194 104 c 0
 198 104 201 105 204 106 c 0
 217 111 225 123 229 142 c 0
 230 151 231 183 231 237 c 0
 231 288 231 318 230 328 c 0
 229 329 229 333 228 337 c 0
 227 341 227 344 227 345 c 0
 226 352 224 358 222 362 c 0
 220 366 215 369 208 372 c 0
 202 375 198 376 196 376 c 0
 195 376 195 376 194 376 c 0
 189 376 182 375 175 371 c 0
 167 367 161 361 158 355 c 0
 151 344 147 323 145 293 c 0
 144 290 144 283 143 271 c 0
 142 257 142 245 142 234 c 0
EndSplineSet
Validated: 1
EndChar

StartChar: r
Encoding: 114 114 82
Width: 267
Flags: HW
LayerCount: 2
Fore
SplineSet
42 225 m 1
 42 336 l 1
 42 430 l 1
 42 465 l 2
 42 478 43 485 44 486 c 0
 45 487 63 488 99 488 c 0
 106 488 113 489 119 489 c 0
 142 489 154 488 156 487 c 0
 157 486 159 484 159 482 c 0
 159 480 159 474 158 464 c 0
 157 452 157 443 157 435 c 0
 157 423 158 416 159 414 c 0
 160 413 161 414 163 418 c 2
 168 428 l 2
 179 449 191 465 205 476 c 0
 220 489 232 495 240 496 c 0
 242 496 246 497 251 498 c 0
 257 500 262 500 266 500 c 0
 269 500 271 500 272 499 c 0
 273 498 274 477 274 436 c 2
 274 374 l 1
 266 373 l 2
 265 373 257 372 241 371 c 0
 230 370 220 367 211 362 c 0
 188 350 174 331 168 306 c 0
 168 304 168 301 167 298 c 0
 166 295 165 293 165 292 c 0
 162 281 160 224 160 121 c 0
 160 44 159 4 158 2 c 0
 157 1 139 1 102 1 c 0
 65 1 45 1 44 2 c 0
 43 3 43 77 42 225 c 1
EndSplineSet
Validated: 1
EndChar

StartChar: s
Encoding: 115 115 83
Width: 256
Flags: HW
LayerCount: 2
Fore
SplineSet
16 395 m 0
 16 409 16 419 18 426 c 0
 20 433 24 441 30 449 c 1
 33 452 l 1
 38 457 l 1
 44 463 l 2
 57 476 67 484 75 486 c 0
 76 487 81 488 88 491 c 0
 97 495 112 498 133 499 c 0
 140 499 146 499 151 499 c 0
 161 499 168 499 172 498 c 2
 184 496 l 2
 205 493 218 489 222 486 c 0
 224 484 225 480 226 474 c 0
 227 468 227 451 227 426 c 0
 226 400 226 385 225 382 c 0
 224 380 221 380 217 382 c 0
 214 383 209 385 201 388 c 0
 194 391 185 392 175 392 c 0
 165 392 158 391 155 389 c 0
 148 385 144 378 144 367 c 0
 144 361 145 353 149 343 c 0
 153 333 157 324 162 317 c 0
 168 307 171 301 171 300 c 0
 172 298 175 293 179 286 c 0
 187 273 198 253 213 224 c 0
 215 220 218 216 220 212 c 0
 222 208 224 204 225 201 c 2
 227 197 l 1
 230 194 235 182 240 162 c 0
 242 155 243 143 243 126 c 0
 243 123 242 120 242 117 c 0
 242 95 241 80 239 73 c 0
 234 56 226 41 213 28 c 0
 201 16 189 8 178 3 c 0
 159 -5 135 -9 107 -9 c 0
 105 -9 102 -9 100 -9 c 0
 82 -8 64 -7 47 -4 c 0
 30 -1 21 1 19 4 c 0
 18 6 18 25 18 60 c 0
 18 87 18 102 18 107 c 0
 18 112 20 114 21 115 c 0
 24 116 28 116 33 113 c 1
 49 107 64 104 79 104 c 0
 94 104 104 106 109 110 c 0
 114 114 117 122 117 135 c 0
 117 142 116 149 114 156 c 0
 112 163 107 175 98 192 c 0
 89 209 85 218 85 219 c 0
 85 220 83 224 80 229 c 0
 77 234 71 245 62 262 c 0
 54 278 49 287 48 289 c 0
 45 293 41 304 34 321 c 0
 27 338 23 351 20 360 c 0
 17 369 16 381 16 395 c 0
EndSplineSet
Validated: 1
EndChar

StartChar: t
Encoding: 116 116 84
Width: 201
Flags: HW
LayerCount: 2
Fore
SplineSet
11 469 m 0
 11 479 11 484 12 485 c 0
 13 486 19 487 28 487 c 0
 38 487 43 488 44 489 c 0
 45 490 45 507 45 538 c 0
 44 573 43 592 43 596 c 0
 42 608 45 615 50 618 c 0
 61 623 68 627 69 627 c 0
 70 627 73 628 77 629 c 0
 78 630 83 632 92 635 c 0
 96 636 101 638 108 641 c 0
 109 642 112 643 116 645 c 0
 120 647 123 647 124 648 c 0
 132 651 138 654 143 656 c 0
 148 659 152 660 155 660 c 0
 157 660 158 660 159 659 c 0
 160 658 161 643 161 616 c 2
 161 574 l 1
 161 571 l 1
 161 565 l 2
 161 562 160 559 160 556 c 0
 160 553 160 549 160 545 c 2
 160 532 l 2
 160 505 160 490 161 489 c 0
 162 488 167 487 174 487 c 0
 181 487 186 487 187 486 c 0
 188 485 189 470 189 442 c 2
 189 400 l 1
 176 400 l 2
 168 400 163 399 162 398 c 0
 161 397 160 375 160 334 c 0
 161 277 162 213 162 144 c 0
 163 58 163 15 163 14 c 0
 164 13 163 11 162 7 c 2
 161 1 l 1
 142 1 l 2
 81 1 49 2 48 3 c 0
 47 4 46 8 46 15 c 2
 46 209 l 2
 46 331 46 394 45 397 c 0
 45 398 44 400 42 400 c 0
 40 400 37 400 30 400 c 0
 21 400 16 401 14 404 c 0
 12 407 12 416 12 431 c 0
 12 446 12 459 11 469 c 0
EndSplineSet
Validated: 1
EndChar

StartChar: u
Encoding: 117 117 85
Width: 388
Flags: HW
LayerCount: 2
Fore
SplineSet
38 464 m 0
 38 467 38 469 38 471 c 0
 38 480 39 485 41 487 c 1
 44 488 61 488 94 488 c 2
 150 487 l 2
 153 487 155 485 156 481 c 0
 157 477 157 467 156 450 c 0
 156 437 155 408 155 365 c 0
 155 343 156 318 156 289 c 0
 156 201 156 155 157 152 c 0
 159 141 161 134 163 129 c 0
 166 124 169 120 174 116 c 0
 179 112 185 110 191 110 c 0
 201 110 209 114 216 122 c 0
 223 130 228 140 231 153 c 0
 232 159 232 186 232 233 c 0
 232 257 232 285 232 319 c 0
 231 398 230 448 229 469 c 0
 228 476 229 480 230 483 c 2
 231 487 l 1
 288 487 l 2
 325 487 344 486 345 485 c 0
 346 484 346 403 346 242 c 2
 346 0 l 1
 297 1 l 1
 282 1 l 1
 268 1 l 2
 264 1 260 2 257 2 c 0
 254 2 251 2 250 2 c 2
 246 2 l 2
 245 2 244 3 244 6 c 0
 244 9 243 16 244 27 c 0
 244 32 244 37 244 41 c 0
 244 53 243 59 242 60 c 0
 241 60 239 57 235 50 c 0
 232 46 229 41 224 34 c 0
 220 29 218 27 218 26 c 0
 218 25 216 22 210 17 c 0
 204 12 199 8 195 5 c 0
 191 2 185 0 177 -3 c 1
 172 -6 167 -7 164 -8 c 0
 161 -9 154 -9 143 -9 c 0
 128 -9 116 -7 108 -4 c 0
 92 1 80 8 72 17 c 0
 60 32 52 48 48 66 c 0
 44 84 41 109 41 142 c 0
 41 335 40 442 38 464 c 0
EndSplineSet
Validated: 1
EndChar

StartChar: v
Encoding: 118 118 86
Width: 323
Flags: HW
LayerCount: 2
Fore
SplineSet
-2 481 m 0
 -2 484 -1 486 0 486 c 0
 3 487 12 487 28 487 c 0
 36 487 46 487 57 487 c 2
 64 487 l 1
 69 487 l 1
 74 487 l 1
 92 486 102 485 106 485 c 0
 110 485 112 484 113 483 c 0
 116 481 118 475 119 465 c 0
 119 462 120 459 121 454 c 0
 122 449 122 443 123 436 c 0
 124 429 124 424 125 420 c 0
 126 416 127 412 128 406 c 0
 129 400 129 395 130 391 c 0
 131 387 131 386 131 385 c 0
 131 384 132 376 135 361 c 0
 136 360 137 358 137 356 c 0
 137 354 137 352 137 350 c 0
 137 348 137 347 138 345 c 2
 139 340 l 1
 139 337 l 1
 140 333 141 329 141 325 c 0
 141 324 142 318 144 309 c 0
 146 298 148 288 149 280 c 0
 152 263 154 250 156 241 c 0
 156 239 156 236 157 231 c 2
 158 225 l 2
 159 223 159 221 159 220 c 0
 161 213 163 211 165 214 c 0
 167 217 170 231 173 255 c 0
 174 256 174 258 175 260 c 2
 176 266 l 2
 176 268 177 270 177 273 c 0
 177 276 177 278 177 279 c 0
 178 283 179 288 180 293 c 0
 181 298 181 304 182 309 c 0
 183 314 183 319 184 323 c 0
 185 328 186 333 187 340 c 0
 187 341 188 343 188 346 c 0
 188 349 189 352 190 356 c 0
 191 360 191 362 191 364 c 0
 192 376 193 385 194 390 c 0
 195 393 195 396 196 399 c 0
 197 402 198 405 198 408 c 0
 198 411 198 414 199 417 c 0
 200 420 200 422 200 423 c 0
 205 463 209 484 212 485 c 0
 214 486 233 487 268 487 c 0
 303 487 321 487 322 486 c 0
 324 485 325 481 325 476 c 0
 325 471 324 467 323 465 c 0
 322 463 321 459 320 452 c 0
 319 445 318 439 317 436 c 0
 316 433 315 427 313 418 c 0
 311 409 309 401 308 396 c 0
 306 388 305 383 305 382 c 0
 305 381 305 380 304 379 c 0
 303 378 303 376 302 373 c 0
 301 370 301 368 301 367 c 0
 296 349 293 337 292 331 c 0
 291 330 291 327 290 324 c 0
 289 321 289 319 289 318 c 2
 286 304 l 1
 283 292 l 2
 282 291 282 289 282 288 c 2
 281 284 l 1
 280 282 l 2
 280 280 280 277 279 274 c 0
 278 271 277 265 275 258 c 0
 273 251 271 244 270 238 c 0
 268 229 266 219 264 208 c 2
 257 180 l 1
 255 170 l 2
 254 166 254 163 253 160 c 0
 253 159 252 154 250 146 c 0
 248 137 246 128 244 120 c 0
 242 113 241 106 240 101 c 0
 235 80 233 69 233 68 c 0
 233 67 232 63 230 55 c 0
 230 54 230 53 230 51 c 0
 230 49 229 47 229 46 c 2
 228 44 l 1
 227 38 226 32 225 27 c 0
 221 11 218 2 215 1 c 0
 214 0 196 0 163 0 c 2
 153 0 l 2
 130 0 117 1 113 3 c 0
 109 5 105 9 104 18 c 0
 103 20 103 21 103 22 c 0
 101 31 100 38 99 43 c 0
 99 44 98 49 96 59 c 0
 95 61 94 66 92 75 c 0
 91 78 89 85 87 96 c 0
 85 110 82 125 78 141 c 0
 77 142 77 144 76 147 c 2
 75 151 l 2
 74 156 73 165 70 176 c 0
 69 177 69 180 68 183 c 0
 67 186 67 187 67 188 c 0
 66 191 65 196 64 201 c 0
 63 202 63 205 62 208 c 0
 61 211 61 213 61 214 c 0
 57 231 54 242 53 248 c 0
 52 251 51 254 51 256 c 1
 50 257 49 263 47 273 c 0
 46 276 44 281 43 286 c 0
 42 291 41 293 41 294 c 0
 41 295 41 298 40 303 c 0
 39 308 38 311 38 312 c 0
 34 328 30 343 27 357 c 0
 27 358 27 359 27 360 c 0
 27 361 26 363 26 364 c 0
 26 365 25 366 25 367 c 0
 25 368 24 370 24 371 c 2
 23 372 l 1
 18 396 13 419 7 440 c 2
 5 448 l 2
 5 451 5 453 4 455 c 0
 0 468 -2 474 -2 481 c 0
EndSplineSet
Validated: 1
EndChar

StartChar: w
Encoding: 119 119 87
Width: 490
Flags: HW
LayerCount: 2
Fore
SplineSet
-3 480 m 0
 -3 483 -2 485 0 486 c 0
 2 487 14 488 38 488 c 0
 44 488 51 488 58 488 c 0
 94 488 113 486 115 485 c 0
 117 483 118 477 119 467 c 0
 119 464 120 460 121 455 c 0
 122 453 123 443 126 424 c 0
 129 407 130 397 131 393 c 0
 134 374 137 361 138 352 c 0
 141 338 143 327 144 318 c 0
 145 308 146 298 147 289 c 1
 150 276 151 268 151 264 c 0
 152 257 154 250 156 242 c 0
 158 234 159 227 160 222 c 0
 161 217 162 214 163 214 c 0
 164 213 166 214 167 217 c 0
 168 220 169 223 170 228 c 0
 170 229 170 232 171 236 c 0
 172 240 172 243 172 245 c 0
 172 247 173 250 174 255 c 0
 175 260 175 262 176 263 c 0
 178 277 181 292 184 309 c 0
 184 311 184 314 185 318 c 2
 186 324 l 1
 185 327 186 330 187 335 c 0
 188 341 190 349 191 358 c 0
 193 373 194 381 194 382 c 0
 194 383 196 390 198 403 c 0
 198 405 198 409 199 415 c 0
 200 421 200 424 201 425 c 0
 202 430 203 438 204 449 c 0
 207 471 210 483 213 484 c 0
 214 485 225 486 246 486 c 0
 267 486 278 486 280 485 c 0
 282 484 284 479 285 468 c 0
 286 459 288 444 292 422 c 0
 297 394 300 375 301 365 c 0
 302 354 304 342 306 331 c 0
 308 322 310 312 311 303 c 0
 312 289 315 274 318 259 c 0
 319 254 320 247 322 237 c 0
 324 228 325 222 326 219 c 0
 327 216 329 215 331 216 c 0
 334 217 338 237 344 274 c 0
 344 279 345 287 348 299 c 0
 348 302 349 307 350 314 c 0
 351 321 352 325 352 328 c 0
 352 333 353 343 356 358 c 0
 358 365 359 374 360 383 c 0
 361 392 362 399 364 406 c 0
 365 413 366 422 368 434 c 0
 370 447 372 460 375 475 c 0
 376 480 377 483 378 484 c 0
 379 485 397 486 433 486 c 0
 440 486 447 486 453 486 c 0
 476 486 489 485 491 484 c 0
 493 484 493 481 493 478 c 0
 493 472 491 463 487 449 c 0
 483 434 480 422 478 411 c 0
 475 396 474 388 473 387 c 0
 471 381 470 377 470 374 c 0
 469 371 469 368 468 365 c 2
 467 359 l 2
 466 356 464 351 462 344 c 0
 460 337 459 330 458 325 c 0
 457 320 456 317 456 316 c 0
 456 313 455 308 452 299 c 0
 449 290 447 281 445 271 c 0
 445 270 444 267 443 261 c 0
 442 255 441 251 440 250 c 0
 439 247 435 229 428 196 c 0
 427 191 426 186 425 181 c 0
 424 180 423 176 422 167 c 0
 421 160 419 156 418 153 c 0
 417 147 415 138 412 125 c 0
 411 120 410 117 409 115 c 0
 408 114 408 112 408 109 c 0
 408 107 407 102 406 95 c 0
 405 93 404 86 402 75 c 0
 401 74 400 70 399 66 c 0
 398 62 398 59 397 58 c 0
 396 52 396 47 395 43 c 0
 395 42 394 42 394 41 c 0
 394 40 394 39 394 38 c 0
 394 37 394 36 393 35 c 2
 392 32 l 1
 392 30 l 1
 391 25 390 19 389 13 c 0
 388 6 386 3 384 2 c 0
 382 1 366 0 337 -0 c 0
 308 0 293 0 292 1 c 0
 291 2 290 5 289 10 c 0
 288 13 288 17 287 21 c 0
 286 25 285 28 284 31 c 0
 283 34 283 37 282 40 c 0
 281 48 280 53 279 56 c 0
 275 76 273 91 272 101 c 0
 271 102 271 103 271 104 c 0
 271 105 270 106 270 107 c 0
 270 108 270 110 270 111 c 0
 270 112 269 114 269 115 c 0
 269 116 269 117 269 118 c 0
 268 127 267 135 266 141 c 0
 260 174 256 193 254 197 c 2
 253 200 l 2
 252 203 252 205 252 206 c 0
 251 207 251 209 251 210 c 0
 249 215 247 217 245 215 c 0
 244 214 242 207 239 197 c 0
 236 187 234 177 232 167 c 0
 232 165 231 162 230 158 c 0
 230 157 229 154 229 151 c 0
 229 148 229 146 228 145 c 0
 226 134 224 123 223 112 c 0
 222 107 221 100 220 92 c 0
 219 85 218 80 218 79 c 0
 217 73 216 69 216 68 c 0
 213 57 211 45 208 30 c 0
 205 12 202 3 200 2 c 0
 198 1 182 1 154 1 c 0
 126 1 111 1 109 2 c 0
 108 3 106 6 105 11 c 0
 103 22 101 30 100 37 c 0
 99 44 98 49 97 52 c 0
 96 55 95 62 92 74 c 0
 89 86 88 94 88 97 c 0
 87 100 86 103 85 108 c 0
 84 112 82 116 81 121 c 0
 80 125 80 129 79 134 c 0
 78 134 77 140 75 151 c 0
 74 153 74 155 73 158 c 0
 72 161 71 163 71 165 c 0
 71 167 71 168 71 169 c 0
 69 178 67 185 65 192 c 0
 63 199 63 205 62 209 c 0
 61 213 61 216 60 219 c 0
 59 223 58 227 57 230 c 0
 57 231 56 234 55 238 c 2
 51 252 l 2
 50 259 49 265 47 271 c 0
 46 271 45 273 44 278 c 0
 43 283 43 286 43 288 c 0
 39 306 36 319 34 327 c 0
 33 331 30 340 27 353 c 2
 25 363 l 2
 24 367 23 370 22 372 c 0
 21 374 21 376 21 377 c 0
 20 380 20 383 20 386 c 1
 21 387 20 389 19 392 c 0
 18 393 18 395 17 398 c 0
 16 403 15 409 13 417 c 0
 6 440 3 453 2 456 c 0
 2 457 1 459 1 460 c 0
 1 461 1 463 -0 465 c 0
 -1 467 -1 469 -1 470 c 0
 -3 474 -3 477 -3 480 c 0
EndSplineSet
Validated: 1
EndChar

StartChar: x
Encoding: 120 120 88
Width: 296
Flags: HW
LayerCount: 2
Fore
SplineSet
-6 6 m 0
 -6 7 -5 10 -3 15 c 0
 -2 16 -2 18 -1 20 c 0
 0 22 0 24 1 25 c 0
 2 26 2 27 2 28 c 0
 4 32 17 65 40 127 c 0
 48 151 55 171 62 188 c 0
 65 193 69 203 74 217 c 0
 79 232 82 241 83 243 c 0
 84 247 85 252 84 256 c 0
 83 260 80 268 75 281 c 2
 69 297 l 2
 67 304 64 314 59 325 c 0
 56 331 53 341 49 354 c 0
 45 364 42 372 40 377 c 1
 41 377 37 386 30 405 c 0
 28 410 26 416 23 423 c 0
 20 430 19 433 19 434 c 0
 16 442 15 446 15 447 c 0
 14 451 12 455 10 459 c 0
 6 465 3 473 1 482 c 0
 0 485 1 486 3 486 c 0
 5 486 14 487 30 487 c 0
 38 487 49 487 61 487 c 0
 97 487 114 486 115 485 c 0
 117 482 120 469 124 444 c 0
 125 438 126 433 127 428 c 0
 132 409 137 390 141 371 c 0
 144 356 146 349 149 349 c 1
 151 350 152 351 152 354 c 0
 153 357 153 359 154 359 c 0
 155 361 157 368 159 381 c 0
 160 385 161 388 162 389 c 1
 162 393 l 2
 162 394 163 398 164 403 c 0
 164 404 165 406 165 408 c 0
 165 410 165 412 166 414 c 0
 167 416 167 418 167 419 c 0
 168 422 170 434 175 456 c 0
 176 459 177 464 178 472 c 1
 180 479 181 483 182 484 c 0
 183 485 202 486 239 486 c 2
 294 485 l 1
 294 482 l 2
 294 478 293 474 292 471 c 0
 287 456 283 447 282 446 c 0
 281 445 281 444 281 443 c 0
 281 440 280 439 279 438 c 0
 278 437 276 433 274 427 c 0
 270 413 264 396 255 375 c 0
 254 374 253 370 250 362 c 0
 247 354 245 348 244 343 c 0
 237 322 232 306 227 296 c 0
 225 291 222 282 219 271 c 0
 216 260 214 254 214 251 c 0
 214 248 215 242 218 233 c 0
 221 224 223 219 224 217 c 0
 225 216 227 213 228 208 c 0
 229 201 233 191 239 177 c 0
 243 166 247 156 250 147 c 0
 252 142 254 137 257 130 c 0
 261 120 264 113 266 108 c 0
 274 86 278 74 279 73 c 2
 281 67 l 2
 283 64 284 61 285 58 c 0
 287 52 289 46 292 39 c 0
 298 26 302 15 302 8 c 0
 302 7 302 7 302 6 c 2
 301 -0 l 1
 249 -0 l 1
 214 1 196 1 194 2 c 0
 193 3 191 5 190 10 c 0
 189 15 187 22 184 31 c 2
 179 50 l 2
 178 54 177 60 175 67 c 0
 174 69 173 73 172 78 c 0
 171 83 170 87 170 88 c 0
 167 105 163 120 158 135 c 0
 153 150 150 157 149 157 c 2
 148 156 l 1
 148 155 l 2
 148 154 147 153 146 152 c 0
 145 151 145 150 145 149 c 0
 145 148 144 146 143 142 c 0
 142 138 141 135 141 134 c 0
 138 129 137 123 136 116 c 0
 135 107 129 81 118 38 c 0
 117 37 116 31 113 19 c 0
 111 10 109 5 107 3 c 0
 106 1 87 0 52 0 c 0
 16 0 -3 1 -4 2 c 0
 -5 3 -6 5 -6 6 c 0
EndSplineSet
Validated: 1
EndChar

StartChar: y
Encoding: 121 121 89
Width: 328
Flags: HWO
LayerCount: 2
Fore
SplineSet
-2 479 m 0
 -2 482 -1 483 1 484 c 0
 2 484 7 484 17 484 c 0
 27 484 41 484 59 484 c 0
 95 484 114 483 116 481 c 0
 119 478 121 469 122 454 c 0
 123 450 124 442 126 432 c 0
 128 422 129 416 130 415 c 2
 131 413 l 1
 131 411 l 1
 131 411 131 411 132 410 c 1
 132 409 l 2
 132 408 132 405 133 400 c 0
 134 396 135 392 136 387 c 0
 138 378 139 372 140 367 c 0
 142 359 144 351 145 344 c 0
 146 339 147 332 149 324 c 0
 151 316 151 311 151 309 c 0
 151 308 151 306 152 304 c 0
 153 302 153 299 154 296 c 0
 155 293 155 291 155 289 c 0
 156 285 157 277 160 264 c 0
 162 256 164 251 164 248 c 0
 164 245 164 243 165 243 c 0
 166 243 166 241 166 238 c 0
 166 231 168 227 172 228 c 0
 174 228 177 239 180 261 c 0
 180 262 181 266 182 273 c 0
 183 280 184 286 185 291 c 0
 186 296 187 304 189 316 c 0
 191 328 193 340 195 352 c 0
 200 378 203 400 205 419 c 0
 210 459 213 480 215 482 c 0
 216 483 236 485 273 485 c 2
 329 485 l 1
 329 475 l 2
 329 469 330 465 329 462 c 0
 328 461 327 455 324 444 c 1
 323 433 321 426 319 423 c 1
 319 421 317 410 312 391 c 0
 307 370 304 355 302 348 c 0
 299 334 298 326 297 324 c 0
 295 317 294 312 293 310 c 0
 292 305 291 301 291 299 c 0
 291 297 290 294 289 291 c 0
 288 289 286 280 283 264 c 0
 281 250 279 241 277 237 c 0
 277 236 276 231 274 223 c 0
 274 222 274 219 273 216 c 0
 272 213 272 211 271 210 c 0
 270 209 269 202 267 189 c 0
 266 178 264 171 262 170 c 0
 261 169 261 167 260 163 c 2
 258 151 l 2
 258 148 257 144 255 138 c 0
 254 133 253 126 250 117 c 1
 249 110 247 100 244 87 c 0
 239 65 237 53 236 52 c 0
 235 47 234 43 234 39 c 0
 234 36 234 33 233 33 c 0
 232 33 231 32 231 29 c 0
 231 26 230 23 229 20 c 0
 227 13 224 -1 220 -21 c 0
 219 -31 217 -38 216 -42 c 0
 216 -45 215 -50 213 -55 c 2
 212 -60 l 2
 211 -63 211 -65 210 -66 c 0
 209 -71 209 -73 208 -74 c 0
 207 -75 207 -82 206 -93 c 0
 204 -106 203 -113 202 -114 c 0
 201 -116 197 -132 192 -161 c 0
 192 -162 192 -165 191 -168 c 0
 190 -171 189 -173 189 -174 c 0
 188 -180 187 -185 186 -188 c 0
 185 -194 184 -198 182 -200 c 0
 180 -202 177 -202 172 -203 c 0
 163 -204 145 -204 116 -205 c 0
 106 -205 96 -205 89 -205 c 0
 74 -205 67 -205 65 -204 c 0
 64 -203 63 -201 63 -200 c 0
 63 -199 64 -195 65 -189 c 0
 68 -177 69 -170 70 -168 c 0
 71 -163 73 -156 74 -149 c 0
 75 -142 77 -137 78 -135 c 0
 79 -132 81 -122 85 -104 c 0
 85 -103 86 -102 87 -98 c 0
 88 -94 89 -92 89 -90 c 0
 89 -88 90 -86 91 -82 c 0
 92 -78 92 -75 93 -74 c 2
 95 -66 l 2
 96 -61 96 -57 97 -55 c 0
 98 -48 100 -38 103 -24 c 0
 104 -21 104 -19 105 -19 c 0
 106 -19 106 -18 106 -15 c 0
 106 -13 107 -7 109 2 c 0
 111 11 111 18 110 24 c 0
 108 31 107 37 106 40 c 0
 105 48 102 61 98 79 c 2
 96 89 l 1
 93 99 l 2
 92 102 92 103 91 104 c 2
 90 110 l 2
 89 115 88 118 88 121 c 0
 86 130 85 135 84 135 c 0
 83 136 83 139 82 142 c 0
 82 145 82 146 81 147 c 0
 80 148 80 150 79 153 c 0
 78 158 78 161 77 164 c 0
 76 168 74 173 73 178 c 0
 73 181 72 186 70 191 c 0
 70 192 70 193 69 197 c 0
 68 201 68 204 68 205 c 0
 68 207 67 212 64 220 c 0
 63 225 61 229 60 233 c 0
 60 234 60 236 59 239 c 0
 58 242 58 245 57 246 c 0
 53 263 50 273 49 276 c 0
 48 280 47 286 45 294 c 2
 41 310 l 2
 41 311 39 318 36 331 c 2
 34 339 l 1
 31 347 l 2
 30 349 30 350 30 351 c 0
 30 352 29 356 27 364 c 0
 26 370 24 376 22 383 c 0
 21 389 20 397 17 408 c 0
 17 409 16 410 15 414 c 0
 14 418 13 421 13 422 c 0
 11 429 10 433 9 434 c 0
 8 437 8 438 7 439 c 1
 7 442 7 443 6 444 c 2
 3 457 l 2
 2 462 1 467 -1 473 c 0
 -2 475 -2 477 -2 479 c 0
EndSplineSet
EndChar

StartChar: z
Encoding: 122 122 90
Width: 241
Flags: HW
LayerCount: 2
Fore
SplineSet
-9 5 m 0
 -9 8 -7 13 -5 19 c 0
 -2 26 1 36 5 50 c 0
 6 51 8 58 11 70 c 0
 12 72 13 76 15 82 c 0
 17 88 17 92 18 93 c 0
 21 100 23 106 24 113 c 0
 24 114 25 117 27 121 c 0
 29 125 29 129 29 130 c 2
 31 138 l 2
 33 144 34 148 35 151 c 0
 36 153 37 157 39 163 c 0
 41 169 41 172 41 173 c 0
 44 183 46 190 47 193 c 0
 48 194 49 197 51 203 c 0
 53 209 53 213 54 215 c 0
 57 224 60 235 63 246 c 0
 64 249 65 253 67 258 c 0
 69 263 69 266 69 267 c 2
 75 287 l 2
 79 301 82 311 83 316 c 0
 86 326 91 344 100 371 c 0
 105 384 107 392 106 393 c 0
 105 394 89 395 57 395 c 0
 24 395 7 395 6 396 c 0
 5 397 6 404 11 418 c 0
 14 428 18 442 23 461 c 1
 28 476 30 483 31 484 c 0
 31 485 35 486 42 487 c 1
 120 487 l 1
 245 487 l 2
 248 487 249 486 249 483 c 0
 249 480 246 471 241 456 c 0
 241 455 240 452 238 446 c 0
 236 440 235 435 233 429 c 0
 231 423 230 419 229 416 c 0
 227 409 224 402 222 394 c 0
 220 386 218 380 217 376 c 0
 216 372 215 370 215 369 c 0
 213 364 211 358 209 350 c 0
 207 341 205 335 204 332 c 0
 203 330 202 327 201 323 c 0
 201 322 199 316 196 305 c 0
 195 303 193 300 192 296 c 0
 191 292 190 291 190 290 c 0
 189 288 188 284 186 277 c 0
 186 275 186 272 185 269 c 0
 184 266 183 264 183 263 c 0
 180 250 176 237 172 224 c 0
 171 222 169 215 165 202 c 0
 164 200 164 197 163 193 c 0
 162 189 161 188 161 187 c 0
 161 186 161 185 160 182 c 0
 159 179 158 177 158 176 c 0
 157 175 153 160 144 132 c 0
 140 120 138 113 138 111 c 0
 138 109 147 108 165 108 c 0
 174 108 185 109 198 109 c 0
 208 109 215 109 222 109 c 0
 235 109 243 109 244 108 c 0
 246 107 247 104 247 99 c 2
 245 87 l 2
 244 84 243 81 242 77 c 0
 241 76 241 73 240 71 c 0
 239 69 239 68 239 67 c 0
 236 62 234 55 233 46 c 0
 233 45 232 39 229 29 c 0
 227 22 225 16 224 11 c 0
 223 6 221 3 218 2 c 0
 216 1 178 0 105 0 c 0
 81 0 60 0 44 0 c 0
 11 0 -6 1 -7 1 c 0
 -8 2 -9 3 -9 5 c 0
EndSplineSet
Validated: 1
EndChar

StartChar: braceleft
Encoding: 123 123 91
Width: 290
Flags: HW
LayerCount: 2
Fore
SplineSet
11 334 m 0
 11 347 12 353 13 354 c 0
 14 355 17 356 21 357 c 0
 25 358 29 358 32 359 c 0
 33 360 34 360 37 361 c 0
 40 362 41 362 42 362 c 0
 46 363 49 365 51 367 c 0
 53 368 56 370 61 373 c 0
 66 376 71 383 78 393 c 0
 85 403 89 411 92 420 c 0
 96 432 98 443 99 453 c 0
 100 463 100 487 100 524 c 0
 100 588 102 625 105 635 c 0
 105 636 106 637 106 638 c 0
 106 639 106 641 107 643 c 0
 108 645 108 645 108 646 c 0
 111 659 114 666 116 669 c 0
 117 669 119 673 123 681 c 0
 126 688 132 696 141 705 c 0
 148 711 155 718 163 724 c 0
 171 730 175 733 178 733 c 0
 181 733 185 734 191 737 c 0
 208 743 226 747 247 748 c 0
 255 749 260 749 261 750 c 0
 261 751 263 751 268 751 c 0
 273 751 276 750 277 750 c 0
 278 750 279 743 279 729 c 0
 279 716 278 708 277 707 c 0
 272 704 266 702 259 702 c 0
 258 702 254 700 245 696 c 0
 236 691 228 685 221 678 c 0
 210 666 202 652 197 636 c 0
 194 624 191 613 190 603 c 0
 189 593 189 568 189 529 c 0
 188 476 187 447 186 442 c 0
 184 431 180 416 173 398 c 0
 172 395 169 390 165 383 c 0
 160 376 158 372 158 371 c 0
 157 370 153 367 146 362 c 0
 139 357 133 353 128 350 c 0
 117 345 110 343 106 342 c 0
 96 339 90 337 89 337 c 2
 84 335 l 1
 88 333 l 2
 91 331 92 330 93 330 c 0
 96 330 104 328 116 323 c 0
 128 318 135 315 138 313 c 0
 142 310 148 304 156 296 c 0
 164 288 168 282 170 277 c 0
 177 265 182 245 186 218 c 0
 188 203 189 176 189 135 c 0
 189 129 189 124 189 118 c 0
 189 79 191 50 195 31 c 0
 198 20 204 8 215 -7 c 0
 218 -12 224 -18 232 -24 c 0
 240 -30 246 -33 251 -34 c 0
 252 -34 255 -35 259 -36 c 0
 263 -37 266 -38 268 -39 c 2
 278 -42 l 1
 279 -63 l 2
 279 -78 278 -86 277 -87 c 0
 274 -88 272 -89 269 -89 c 0
 266 -89 263 -88 260 -87 c 0
 257 -86 252 -86 245 -85 c 0
 220 -83 199 -78 180 -69 c 0
 178 -68 176 -68 174 -67 c 0
 172 -66 172 -65 171 -65 c 2
 170 -65 l 2
 167 -65 158 -57 141 -41 c 1
 133 -32 125 -21 118 -7 c 0
 110 8 105 27 102 49 c 0
 102 50 101 58 100 72 c 0
 99 78 99 105 99 154 c 1
 98 190 97 211 97 219 c 0
 97 227 96 234 95 240 c 0
 93 247 90 254 85 264 c 0
 80 274 77 280 74 283 c 0
 72 286 71 287 71 288 c 0
 71 289 69 291 65 294 c 0
 61 297 58 298 56 299 c 0
 54 300 53 300 53 301 c 0
 53 303 48 305 40 308 c 0
 32 311 26 313 21 313 c 0
 16 313 13 314 12 316 c 0
 11 318 11 324 11 334 c 0
EndSplineSet
Validated: 1
EndChar

StartChar: bar
Encoding: 124 124 92
Width: 222
Flags: HW
LayerCount: 2
Fore
SplineSet
73 298 m 0
 73 626 75 793 75 793 c 2
 76 794 89 795 113 795 c 2
 148 794 l 1
 149 299 l 2
 149 -31 148 -198 148 -198 c 2
 147 -199 134 -200 111 -200 c 0
 88 -200 76 -199 75 -197 c 2
 75 -197 73 -30 73 298 c 0
EndSplineSet
Validated: 1
EndChar

StartChar: braceright
Encoding: 125 125 93
Width: 291
Flags: HW
LayerCount: 2
Fore
SplineSet
11 729 m 0
 11 738 11 744 12 746 c 0
 13 748 14 750 15 751 c 0
 17 752 19 753 23 753 c 0
 27 753 33 752 39 751 c 0
 43 750 50 749 60 748 c 0
 71 747 78 745 81 744 c 0
 85 743 88 742 90 742 c 0
 97 742 110 737 130 726 c 0
 135 723 144 714 156 700 c 0
 168 686 175 676 175 672 c 1
 176 670 176 669 177 668 c 0
 178 667 182 658 187 639 c 0
 191 624 193 585 193 522 c 1
 194 473 194 446 195 440 c 0
 198 424 201 412 206 405 c 0
 207 402 208 401 208 400 c 0
 208 399 211 395 216 389 c 0
 221 383 225 378 229 375 c 0
 240 366 252 361 265 360 c 0
 272 359 277 358 278 356 c 0
 279 354 280 346 280 335 c 0
 280 323 279 316 278 315 c 0
 277 314 273 313 265 312 c 0
 258 311 252 309 249 308 c 0
 242 304 234 299 226 292 c 0
 218 285 213 280 212 277 c 0
 209 272 206 267 203 264 c 0
 201 263 198 250 195 225 c 0
 193 211 192 180 192 132 c 0
 192 83 192 57 191 54 c 0
 190 51 189 47 189 42 c 0
 188 27 186 19 183 16 c 0
 182 15 181 14 181 13 c 0
 181 11 178 4 172 -7 c 0
 166 -18 162 -26 159 -29 c 0
 148 -42 138 -51 130 -57 c 0
 122 -63 112 -68 101 -72 c 0
 96 -74 87 -76 75 -79 c 0
 63 -82 54 -83 48 -83 c 0
 39 -84 32 -84 27 -85 c 0
 24 -85 22 -86 20 -86 c 0
 17 -86 15 -84 14 -83 c 0
 13 -81 12 -73 12 -58 c 0
 12 -49 13 -44 14 -42 c 0
 15 -40 18 -39 23 -38 c 0
 34 -35 42 -33 48 -30 c 0
 54 -27 61 -21 69 -15 c 0
 77 -9 82 -3 85 3 c 0
 93 17 98 30 99 43 c 1
 100 48 l 2
 101 52 101 55 101 56 c 0
 102 61 103 89 103 142 c 0
 104 195 105 222 106 224 c 0
 107 229 107 232 107 233 c 0
 107 237 109 244 113 255 c 0
 117 266 119 274 122 279 c 0
 126 285 132 292 140 301 c 0
 148 310 154 315 159 317 c 0
 163 319 167 321 171 322 c 1
 174 324 177 325 180 326 c 0
 191 328 198 331 201 334 c 0
 204 337 203 339 196 340 c 0
 185 343 176 345 170 348 c 0
 163 351 160 353 159 353 c 0
 148 358 140 364 135 372 c 0
 124 387 117 400 114 409 c 0
 110 421 108 433 107 444 c 0
 106 455 105 482 104 525 c 0
 103 580 102 611 101 618 c 0
 96 636 93 646 92 647 c 0
 91 648 91 649 91 651 c 0
 91 653 89 658 83 667 c 0
 77 676 73 681 70 684 c 0
 65 688 58 693 49 697 c 0
 40 701 34 703 30 703 c 1
 27 704 24 705 23 706 c 0
 21 707 19 708 18 708 c 0
 15 708 14 710 13 712 c 0
 12 714 11 720 11 729 c 0
EndSplineSet
Validated: 1
EndChar

StartChar: asciitilde
Encoding: 126 126 94
Width: 369
Flags: HW
LayerCount: 2
Fore
SplineSet
43 598 m 0
 43 613 46 626 54 643 c 1
 57 652 60 659 62 662 c 0
 64 665 66 669 71 674 c 0
 84 691 103 699 126 699 c 0
 127 699 128 699 129 699 c 0
 141 699 151 697 160 694 c 0
 169 691 183 685 202 674 c 0
 217 665 230 660 239 660 c 0
 248 660 255 663 262 669 c 1
 268 676 271 683 272 692 c 1
 271 699 273 703 276 705 c 0
 277 706 285 706 299 706 c 0
 313 706 321 706 322 705 c 0
 324 704 326 701 326 697 c 0
 326 694 325 690 324 686 c 0
 324 685 324 684 323 682 c 0
 322 680 322 678 321 676 c 0
 320 674 320 671 320 669 c 0
 317 655 311 643 303 632 c 0
 297 623 291 617 287 613 c 0
 283 609 277 605 269 601 c 0
 262 598 256 596 254 595 c 0
 252 594 248 594 241 594 c 0
 239 594 238 594 236 594 c 0
 222 594 211 596 202 601 c 0
 191 606 176 614 159 624 c 0
 152 628 143 630 134 631 c 0
 125 632 117 631 112 628 c 0
 101 622 96 612 95 599 c 0
 95 594 93 591 90 590 c 0
 87 589 80 588 68 588 c 0
 55 588 47 589 45 590 c 0
 44 591 43 594 43 598 c 0
EndSplineSet
Validated: 1
EndChar

StartChar: exclamdown
Encoding: 161 161 95
Width: 222
Flags: HW
LayerCount: 2
Fore
SplineSet
43 -144 m 0
 43 -136 43 -129 44 -122 c 0
 45 -119 46 -112 46 -99 c 0
 46 -92 46 -82 47 -70 c 0
 48 -65 49 -53 50 -36 c 0
 51 -21 51 -11 52 -6 c 0
 53 -2 54 5 53 14 c 1
 53 25 54 34 55 39 c 0
 56 46 56 55 56 66 c 0
 55 77 56 85 57 89 c 0
 58 94 58 105 59 122 c 0
 60 140 60 151 61 154 c 0
 62 157 63 165 63 176 c 1
 62 184 63 194 64 206 c 0
 65 214 65 224 65 236 c 0
 65 246 65 252 66 253 c 0
 67 255 67 264 68 281 c 1
 68 295 l 2
 68 300 68 304 69 307 c 1
 69 312 l 2
 69 313 70 315 70 318 c 0
 70 321 70 324 70 325 c 0
 70 331 71 335 72 336 c 0
 74 338 88 339 113 339 c 0
 138 339 151 338 152 337 c 0
 153 336 154 330 154 320 c 0
 154 311 155 301 156 291 c 0
 157 281 158 271 157 264 c 1
 157 256 157 251 158 248 c 0
 159 243 160 233 160 217 c 0
 161 173 162 149 163 145 c 0
 164 139 164 128 165 111 c 0
 168 54 169 25 170 24 c 0
 171 23 171 18 171 7 c 0
 172 -5 172 -14 173 -21 c 0
 174 -33 175 -45 175 -56 c 0
 176 -72 177 -81 177 -82 c 0
 177 -83 177 -90 178 -102 c 0
 178 -103 178 -116 179 -139 c 0
 179 -144 179 -148 179 -151 c 0
 179 -158 179 -162 178 -162 c 0
 177 -163 155 -164 112 -164 c 0
 69 -163 46 -162 45 -161 c 0
 44 -160 43 -154 43 -144 c 0
52 405 m 1
 52 458 l 2
 52 507 53 532 54 535 c 0
 55 537 71 538 101 538 c 2
 160 538 l 2
 169 538 172 537 172 531 c 0
 172 528 172 524 172 517 c 0
 172 511 172 503 172 493 c 2
 172 422 l 2
 172 401 172 390 171 388 c 0
 170 387 151 386 114 386 c 0
 77 386 57 387 55 388 c 0
 53 390 52 394 52 399 c 0
 52 401 52 403 52 405 c 1
EndSplineSet
Validated: 1
EndChar

StartChar: cent
Encoding: 162 162 96
Width: 442
Flags: HW
LayerCount: 2
Fore
SplineSet
59 240 m 0
 59 257 59 272 61 287 c 0
 62 293 63 301 64 310 c 0
 65 320 69 337 76 362 c 0
 78 371 80 378 83 384 c 0
 84 385 85 388 87 392 c 0
 89 396 90 397 90 398 c 0
 93 406 100 416 109 429 c 0
 123 448 131 458 133 458 c 0
 134 458 137 461 142 466 c 0
 153 477 168 484 185 488 c 0
 188 489 192 491 199 492 c 0
 202 493 209 494 220 494 c 0
 233 493 245 490 258 484 c 0
 264 481 267 480 268 480 c 0
 269 480 272 487 275 502 c 0
 276 509 278 516 280 524 c 0
 281 527 282 531 283 537 c 0
 284 543 285 545 285 546 c 0
 291 574 295 589 297 590 c 0
 299 591 305 593 316 594 c 0
 328 596 335 597 336 597 c 0
 338 598 340 598 342 598 c 0
 344 598 345 598 346 597 c 0
 348 596 348 592 347 586 c 0
 346 582 345 575 342 564 c 0
 339 553 337 548 337 547 c 0
 336 543 335 538 334 532 c 0
 332 525 331 521 330 520 c 0
 329 519 329 517 329 515 c 0
 328 512 328 510 327 508 c 1
 327 505 324 494 318 475 c 0
 317 470 316 467 317 465 c 0
 318 463 320 460 323 457 c 0
 330 451 338 442 346 428 c 0
 354 414 360 402 363 392 c 0
 364 388 364 385 363 383 c 0
 362 381 358 378 352 375 c 0
 351 374 349 373 345 371 c 0
 341 369 339 367 338 366 c 0
 337 365 335 365 332 363 c 0
 329 361 326 359 321 357 c 0
 316 355 312 352 309 350 c 0
 297 343 290 338 286 335 c 0
 282 332 280 328 279 324 c 0
 278 318 277 310 274 301 c 0
 273 300 272 296 271 290 c 0
 270 289 270 287 269 284 c 0
 268 281 268 279 268 278 c 0
 268 277 268 276 267 274 c 0
 266 272 266 270 265 267 c 0
 264 264 264 261 264 260 c 0
 263 259 263 256 262 253 c 0
 261 250 261 247 260 244 c 0
 259 241 259 238 259 237 c 0
 258 232 256 227 255 223 c 0
 254 222 253 219 252 213 c 1
 249 206 247 198 245 189 c 0
 244 186 244 182 242 177 c 0
 240 172 239 168 239 167 c 0
 236 156 233 143 229 128 c 0
 224 111 222 101 222 98 c 0
 222 95 225 94 230 94 c 0
 241 94 250 97 257 102 c 0
 264 107 269 120 271 140 c 0
 272 149 274 154 275 154 c 0
 276 153 292 145 324 130 c 2
 371 107 l 1
 372 101 l 2
 372 96 371 93 370 91 c 2
 368 89 l 1
 367 86 l 1
 367 84 l 2
 367 83 365 78 359 68 c 0
 353 58 348 50 343 44 c 0
 336 34 331 27 327 24 c 0
 320 17 311 11 298 4 c 0
 285 -3 274 -8 264 -11 c 0
 259 -12 255 -14 251 -15 c 0
 246 -16 235 -17 219 -17 c 2
 195 -17 l 1
 192 -27 l 2
 190 -35 189 -39 189 -40 c 0
 188 -43 187 -45 187 -46 c 0
 186 -52 184 -58 182 -65 c 0
 179 -76 178 -82 178 -83 c 0
 178 -86 178 -87 177 -88 c 0
 176 -89 176 -90 175 -93 c 0
 174 -97 173 -102 172 -109 c 0
 171 -110 170 -113 169 -117 c 0
 168 -121 168 -124 168 -125 c 0
 167 -129 164 -131 160 -133 c 0
 156 -135 145 -137 125 -140 c 0
 123 -140 122 -140 121 -140 c 0
 120 -140 118 -140 117 -140 c 0
 115 -139 114 -137 114 -135 c 0
 114 -133 114 -130 115 -126 c 0
 116 -122 118 -118 120 -112 c 0
 121 -111 121 -109 121 -107 c 0
 123 -100 124 -97 124 -96 c 0
 126 -92 128 -87 129 -80 c 0
 132 -65 135 -55 136 -51 c 0
 139 -44 142 -35 143 -23 c 0
 144 -13 145 -7 146 -5 c 0
 147 -3 146 0 144 3 c 0
 142 6 141 8 140 8 c 0
 137 9 132 14 123 24 c 0
 114 34 109 40 106 45 c 0
 93 66 86 80 85 87 c 0
 84 91 84 93 83 94 c 0
 81 97 80 100 79 103 c 0
 78 107 77 109 76 110 c 0
 75 111 72 118 69 131 c 0
 66 144 65 153 64 160 c 0
 60 188 59 215 59 240 c 0
EndSplineSet
Validated: 1
EndChar

StartChar: sterling
Encoding: 163 163 97
Width: 444
Flags: HW
LayerCount: 2
Fore
SplineSet
42 49 m 0
 42 90 42 111 43 111 c 0
 44 112 49 115 58 120 c 0
 68 125 75 128 78 131 c 0
 81 134 86 138 92 145 c 0
 98 152 102 158 104 163 c 0
 109 174 112 187 114 202 c 0
 114 203 115 210 117 222 c 0
 118 227 118 235 118 247 c 0
 118 253 118 259 118 267 c 2
 118 301 l 1
 82 301 l 2
 57 301 44 301 43 302 c 0
 43 303 42 311 42 326 c 0
 42 334 42 344 42 355 c 0
 42 389 43 405 44 406 c 0
 45 407 57 408 80 408 c 1
 93 407 100 407 101 408 c 0
 102 409 102 411 102 413 c 0
 102 415 102 416 101 417 c 0
 99 420 98 424 97 429 c 0
 97 431 96 436 94 442 c 0
 92 448 91 452 91 453 c 0
 83 486 79 515 79 540 c 0
 79 552 80 564 82 574 c 0
 85 593 89 607 93 616 c 0
 100 634 111 650 125 664 c 0
 136 675 148 684 163 691 c 0
 176 698 191 702 209 705 c 0
 211 706 213 707 215 707 c 0
 217 707 219 707 220 708 c 1
 222 708 l 2
 223 708 225 709 229 709 c 0
 233 709 240 708 248 708 c 0
 264 707 274 707 279 706 c 0
 289 704 301 699 316 693 c 0
 331 687 342 681 347 676 c 2
 350 673 l 1
 353 670 l 2
 354 669 355 668 356 668 c 0
 359 666 366 656 377 640 c 0
 388 624 394 613 397 606 c 0
 398 605 399 602 400 598 c 0
 401 594 402 592 402 591 c 0
 403 587 404 584 403 583 c 0
 402 580 395 576 383 573 c 0
 379 572 375 570 371 568 c 0
 368 567 366 566 364 565 c 0
 363 565 360 564 353 561 c 0
 346 558 342 557 341 557 c 0
 340 556 339 556 338 555 c 0
 338 554 337 554 334 554 c 0
 332 554 328 553 323 550 c 0
 311 545 304 542 302 542 c 0
 301 542 298 545 294 552 c 0
 283 574 272 588 259 593 c 0
 255 595 249 596 241 596 c 0
 233 596 229 595 226 594 c 0
 218 589 212 583 208 574 c 0
 205 569 203 566 203 563 c 0
 203 560 203 553 203 541 c 0
 203 526 204 515 205 510 c 0
 206 505 207 499 208 492 c 0
 212 470 214 459 215 458 c 2
 219 435 l 2
 222 420 223 411 223 410 c 0
 223 408 230 407 243 407 c 0
 250 407 257 408 267 408 c 0
 276 408 283 408 289 408 c 0
 301 408 308 408 309 407 c 2
 312 405 l 1
 312 354 l 1
 311 320 310 303 309 302 c 0
 307 301 301 301 290 301 c 0
 285 301 279 301 271 301 c 0
 248 301 235 301 234 300 c 0
 233 299 232 293 232 282 c 1
 231 279 231 268 230 249 c 0
 229 234 224 211 215 179 c 1
 214 171 209 159 200 143 c 0
 197 138 196 134 198 132 c 0
 200 130 206 127 216 123 c 0
 242 112 261 107 274 107 c 0
 276 107 278 107 280 107 c 0
 297 110 308 120 314 137 c 0
 317 144 319 147 322 147 c 0
 325 147 328 146 331 145 c 0
 334 144 343 140 360 135 c 0
 377 130 389 126 396 124 c 0
 403 121 408 120 411 119 c 0
 415 117 417 116 418 115 c 0
 419 114 420 109 420 106 c 0
 420 104 420 103 419 102 c 0
 418 101 418 100 418 98 c 0
 418 91 415 81 408 68 c 0
 405 63 404 61 404 60 c 0
 404 59 400 51 391 37 c 0
 387 31 383 26 378 21 c 2
 371 14 l 1
 367 9 l 2
 365 6 362 4 357 2 c 0
 355 1 352 -1 347 -4 c 0
 343 -6 338 -8 333 -9 c 0
 326 -11 323 -12 323 -13 c 0
 321 -14 311 -15 294 -14 c 0
 277 -13 265 -12 260 -11 c 0
 257 -10 252 -9 245 -7 c 0
 240 -6 230 -2 216 4 c 0
 202 10 196 14 195 15 c 0
 195 16 192 18 187 21 c 0
 181 25 174 30 166 36 c 0
 157 43 152 46 150 46 c 0
 148 46 147 44 145 40 c 0
 142 36 138 32 133 27 c 0
 132 26 129 25 126 22 c 0
 123 19 120 17 119 16 c 0
 115 13 111 10 107 7 c 0
 106 6 105 6 104 5 c 0
 103 4 102 3 101 3 c 0
 96 0 87 -4 75 -8 c 0
 63 -12 54 -15 50 -15 c 0
 46 -15 44 -14 43 -13 c 0
 42 -12 42 8 42 49 c 0
EndSplineSet
Validated: 1
EndChar

